<svg width="1942" height="1080" viewBox="0 0 1942 1080" fill="none" xmlns="http://www.w3.org/2000/svg">
<rect width="1942" height="1080" fill="white"/>
<path d="M1638.31 985L1638.31 970.86H1643.15C1644.17 970.86 1645.05 971.027 1645.79 971.36C1646.52 971.693 1647.08 972.207 1647.47 972.9C1647.87 973.58 1648.07 974.447 1648.07 975.5C1648.07 976.54 1647.83 977.413 1647.37 978.12C1646.91 978.827 1646.29 979.353 1645.49 979.7C1644.7 980.047 1643.79 980.22 1642.77 980.22H1639.75L1639.75 985H1638.31ZM1639.75 978.92H1642.71C1643.85 978.92 1644.79 978.647 1645.51 978.1C1646.23 977.553 1646.59 976.66 1646.59 975.42C1646.59 974.3 1646.28 973.48 1645.67 972.96C1645.07 972.427 1644.19 972.16 1643.05 972.16H1639.75L1639.75 978.92ZM1653.49 985.12C1653.06 985.12 1652.63 985.067 1652.19 984.96C1651.75 984.84 1651.35 984.66 1650.99 984.42C1650.63 984.167 1650.34 983.847 1650.11 983.46C1649.9 983.06 1649.79 982.593 1649.79 982.06C1649.79 981.46 1649.9 980.96 1650.11 980.56C1650.34 980.16 1650.64 979.84 1651.01 979.6C1651.38 979.36 1651.81 979.193 1652.29 979.1C1652.77 978.993 1653.28 978.94 1653.81 978.94H1657.15C1657.15 978.287 1657.06 977.713 1656.87 977.22C1656.7 976.713 1656.4 976.313 1655.99 976.02C1655.59 975.727 1655.05 975.58 1654.37 975.58C1654.01 975.58 1653.66 975.62 1653.33 975.7C1653 975.78 1652.7 975.913 1652.43 976.1C1652.18 976.273 1651.98 976.513 1651.83 976.82H1650.31C1650.43 976.353 1650.63 975.96 1650.91 975.64C1651.2 975.32 1651.54 975.067 1651.93 974.88C1652.32 974.68 1652.72 974.54 1653.15 974.46C1653.58 974.38 1653.98 974.34 1654.37 974.34C1655.37 974.34 1656.18 974.547 1656.79 974.96C1657.4 975.36 1657.84 975.933 1658.11 976.68C1658.39 977.413 1658.53 978.28 1658.53 979.28L1658.53 985H1657.31L1657.25 983.56C1656.96 983.96 1656.6 984.273 1656.19 984.5C1655.79 984.727 1655.36 984.887 1654.89 984.98C1654.44 985.073 1653.97 985.12 1653.49 985.12ZM1653.63 983.88C1654.28 983.88 1654.88 983.773 1655.41 983.56C1655.94 983.333 1656.36 983 1656.67 982.56C1656.99 982.12 1657.15 981.573 1657.15 980.92L1657.15 980.12H1654.79C1654.38 980.12 1653.96 980.133 1653.53 980.16C1653.1 980.173 1652.72 980.24 1652.37 980.36C1652.02 980.467 1651.74 980.647 1651.53 980.9C1651.32 981.14 1651.21 981.487 1651.21 981.94C1651.21 982.393 1651.32 982.767 1651.55 983.06C1651.78 983.34 1652.08 983.547 1652.45 983.68C1652.82 983.813 1653.22 983.88 1653.63 983.88ZM1665.03 985.12C1664.55 985.12 1664.06 985.08 1663.57 985C1663.09 984.92 1662.63 984.78 1662.21 984.58C1661.79 984.38 1661.45 984.107 1661.17 983.76C1660.89 983.4 1660.72 982.947 1660.67 982.4H1662.07C1662.17 982.787 1662.39 983.093 1662.73 983.32C1663.07 983.533 1663.45 983.68 1663.87 983.76C1664.29 983.84 1664.67 983.88 1665.01 983.88C1665.42 983.88 1665.85 983.833 1666.29 983.74C1666.73 983.647 1667.09 983.467 1667.39 983.2C1667.69 982.933 1667.85 982.54 1667.85 982.02C1667.85 981.513 1667.72 981.14 1667.47 980.9C1667.21 980.66 1666.89 980.5 1666.49 980.42C1666.09 980.34 1665.67 980.3 1665.23 980.3H1663.39L1663.39 979.08H1664.77C1665.05 979.08 1665.34 979.053 1665.65 979C1665.97 978.947 1666.26 978.853 1666.53 978.72C1666.79 978.587 1667.01 978.4 1667.17 978.16C1667.34 977.92 1667.43 977.613 1667.43 977.24C1667.43 976.827 1667.31 976.5 1667.07 976.26C1666.83 976.007 1666.52 975.833 1666.15 975.74C1665.77 975.633 1665.4 975.58 1665.03 975.58C1664.69 975.58 1664.34 975.613 1663.97 975.68C1663.59 975.747 1663.27 975.88 1662.99 976.08C1662.71 976.28 1662.53 976.58 1662.45 976.98H1661.03C1661.08 976.3 1661.31 975.773 1661.73 975.4C1662.15 975.013 1662.66 974.74 1663.25 974.58C1663.85 974.42 1664.43 974.34 1665.01 974.34C1665.46 974.34 1665.91 974.387 1666.35 974.48C1666.8 974.56 1667.21 974.707 1667.57 974.92C1667.94 975.133 1668.23 975.42 1668.45 975.78C1668.67 976.127 1668.79 976.56 1668.81 977.08C1668.82 977.587 1668.7 978.04 1668.45 978.44C1668.21 978.84 1667.81 979.16 1667.25 979.4C1667.98 979.573 1668.5 979.9 1668.81 980.38C1669.11 980.86 1669.27 981.407 1669.27 982.02C1669.27 982.593 1669.14 983.073 1668.89 983.46C1668.65 983.847 1668.32 984.167 1667.91 984.42C1667.51 984.673 1667.05 984.853 1666.55 984.96C1666.05 985.067 1665.55 985.12 1665.03 985.12ZM1671.54 985L1671.54 974.46H1673.52L1677.16 980.16L1680.78 974.46H1682.72L1682.72 985H1681.32L1681.32 975.94L1677.34 982.28H1676.92L1672.94 975.94L1672.94 985H1671.54ZM1690.02 985.12C1688.92 985.12 1688 984.893 1687.26 984.44C1686.53 983.973 1685.98 983.333 1685.62 982.52C1685.26 981.707 1685.08 980.78 1685.08 979.74C1685.08 978.7 1685.27 977.78 1685.64 976.98C1686.02 976.167 1686.57 975.527 1687.3 975.06C1688.04 974.58 1688.94 974.34 1690 974.34C1690.78 974.34 1691.45 974.487 1692.02 974.78C1692.61 975.06 1693.1 975.447 1693.48 975.94C1693.87 976.433 1694.15 976.993 1694.32 977.62C1694.51 978.247 1694.6 978.893 1694.6 979.56C1694.6 979.68 1694.6 979.793 1694.6 979.9C1694.6 980.007 1694.6 980.113 1694.58 980.22H1686.5C1686.56 980.927 1686.72 981.56 1686.98 982.12C1687.25 982.667 1687.64 983.1 1688.14 983.42C1688.66 983.727 1689.31 983.88 1690.08 983.88C1690.44 983.88 1690.81 983.84 1691.18 983.76C1691.56 983.667 1691.9 983.513 1692.2 983.3C1692.51 983.073 1692.74 982.78 1692.88 982.42H1694.36C1694.18 983.047 1693.86 983.56 1693.42 983.96C1692.98 984.36 1692.46 984.653 1691.86 984.84C1691.26 985.027 1690.65 985.12 1690.02 985.12ZM1686.54 979H1693.18C1693.17 978.347 1693.03 977.767 1692.76 977.26C1692.5 976.74 1692.13 976.333 1691.66 976.04C1691.2 975.733 1690.62 975.58 1689.94 975.58C1689.24 975.58 1688.64 975.74 1688.14 976.06C1687.65 976.38 1687.27 976.8 1687 977.32C1686.75 977.84 1686.6 978.4 1686.54 979ZM1696.99 988.9L1696.99 974.46H1698.35L1698.41 976.24C1698.82 975.587 1699.34 975.107 1699.97 974.8C1700.61 974.493 1701.32 974.34 1702.11 974.34C1703.17 974.34 1704.05 974.58 1704.73 975.06C1705.41 975.54 1705.91 976.193 1706.25 977.02C1706.58 977.833 1706.75 978.747 1706.75 979.76C1706.75 980.8 1706.57 981.727 1706.23 982.54C1705.89 983.353 1705.37 983.987 1704.67 984.44C1703.97 984.893 1703.09 985.12 1702.03 985.12C1701.53 985.12 1701.06 985.067 1700.61 984.96C1700.15 984.853 1699.74 984.68 1699.37 984.44C1698.99 984.187 1698.67 983.873 1698.41 983.5L1698.41 988.9H1696.99ZM1701.97 983.88C1702.79 983.88 1703.45 983.693 1703.93 983.32C1704.42 982.933 1704.77 982.427 1704.99 981.8C1705.21 981.173 1705.33 980.487 1705.33 979.74C1705.33 978.98 1705.21 978.287 1704.99 977.66C1704.76 977.033 1704.39 976.533 1703.89 976.16C1703.38 975.773 1702.71 975.58 1701.89 975.58C1701.13 975.58 1700.48 975.773 1699.95 976.16C1699.43 976.547 1699.03 977.06 1698.77 977.7C1698.5 978.34 1698.37 979.027 1698.37 979.76C1698.37 980.547 1698.49 981.253 1698.75 981.88C1699.01 982.493 1699.41 982.98 1699.95 983.34C1700.49 983.7 1701.17 983.88 1701.97 983.88ZM1709.04 985L1709.04 974.46H1710.48L1710.48 978.6H1712.5C1713.1 978.6 1713.65 978.647 1714.16 978.74C1714.66 978.833 1715.1 978.993 1715.48 979.22C1715.86 979.447 1716.16 979.76 1716.38 980.16C1716.59 980.547 1716.7 981.053 1716.7 981.68C1716.7 982.28 1716.59 982.793 1716.38 983.22C1716.18 983.633 1715.89 983.973 1715.52 984.24C1715.16 984.507 1714.73 984.7 1714.24 984.82C1713.74 984.94 1713.21 985 1712.64 985H1709.04ZM1710.48 983.78H1711.48C1711.94 983.78 1712.4 983.767 1712.84 983.74C1713.29 983.713 1713.7 983.64 1714.06 983.52C1714.42 983.387 1714.7 983.18 1714.92 982.9C1715.14 982.62 1715.26 982.233 1715.26 981.74C1715.26 981.287 1715.16 980.933 1714.98 980.68C1714.8 980.427 1714.57 980.24 1714.28 980.12C1713.98 979.987 1713.66 979.907 1713.3 979.88C1712.95 979.84 1712.61 979.82 1712.28 979.82H1710.48L1710.48 983.78ZM1718.38 985L1718.38 974.46H1719.8L1719.8 985H1718.38ZM1728.26 989.64L1728.26 988.3C1728.92 988.3 1729.44 988.2 1729.84 988C1730.26 987.8 1730.6 987.493 1730.86 987.08C1731.14 986.667 1731.41 986.153 1731.66 985.54L1726.96 974.46H1728.64L1732.44 983.86L1735.58 974.46H1737.2L1734.02 983.38C1733.89 983.767 1733.73 984.207 1733.54 984.7C1733.37 985.18 1733.18 985.673 1732.96 986.18C1732.75 986.687 1732.52 987.16 1732.26 987.6C1732.01 988.04 1731.73 988.393 1731.42 988.66C1731.14 988.913 1730.86 989.107 1730.58 989.24C1730.32 989.387 1730 989.487 1729.64 989.54C1729.28 989.607 1728.82 989.64 1728.26 989.64ZM1738.86 985L1738.86 974.46H1740.28L1740.28 979.12H1742.42L1745.62 974.46H1747.22L1743.7 979.5L1747.54 985H1745.9L1742.6 980.34H1740.28L1740.28 985H1738.86ZM1752.22 985.12C1751.79 985.12 1751.36 985.067 1750.92 984.96C1750.48 984.84 1750.08 984.66 1749.72 984.42C1749.36 984.167 1749.07 983.847 1748.84 983.46C1748.63 983.06 1748.52 982.593 1748.52 982.06C1748.52 981.46 1748.63 980.96 1748.84 980.56C1749.07 980.16 1749.37 979.84 1749.74 979.6C1750.11 979.36 1750.54 979.193 1751.02 979.1C1751.5 978.993 1752.01 978.94 1752.54 978.94H1755.88C1755.88 978.287 1755.79 977.713 1755.6 977.22C1755.43 976.713 1755.13 976.313 1754.72 976.02C1754.32 975.727 1753.78 975.58 1753.1 975.58C1752.74 975.58 1752.39 975.62 1752.06 975.7C1751.73 975.78 1751.43 975.913 1751.16 976.1C1750.91 976.273 1750.71 976.513 1750.56 976.82H1749.04C1749.16 976.353 1749.36 975.96 1749.64 975.64C1749.93 975.32 1750.27 975.067 1750.66 974.88C1751.05 974.68 1751.45 974.54 1751.88 974.46C1752.31 974.38 1752.71 974.34 1753.1 974.34C1754.1 974.34 1754.91 974.547 1755.52 974.96C1756.13 975.36 1756.57 975.933 1756.84 976.68C1757.12 977.413 1757.26 978.28 1757.26 979.28L1757.26 985H1756.04L1755.98 983.56C1755.69 983.96 1755.33 984.273 1754.92 984.5C1754.52 984.727 1754.09 984.887 1753.62 984.98C1753.17 985.073 1752.7 985.12 1752.22 985.12ZM1752.36 983.88C1753.01 983.88 1753.61 983.773 1754.14 983.56C1754.67 983.333 1755.09 983 1755.4 982.56C1755.72 982.12 1755.88 981.573 1755.88 980.92L1755.88 980.12H1753.52C1753.11 980.12 1752.69 980.133 1752.26 980.16C1751.83 980.173 1751.45 980.24 1751.1 980.36C1750.75 980.467 1750.47 980.647 1750.26 980.9C1750.05 981.14 1749.94 981.487 1749.94 981.94C1749.94 982.393 1750.05 982.767 1750.28 983.06C1750.51 983.34 1750.81 983.547 1751.18 983.68C1751.55 983.813 1751.95 983.88 1752.36 983.88ZM1763.76 985.12C1763.28 985.12 1762.79 985.08 1762.3 985C1761.82 984.92 1761.36 984.78 1760.94 984.58C1760.52 984.38 1760.18 984.107 1759.9 983.76C1759.62 983.4 1759.45 982.947 1759.4 982.4H1760.8C1760.9 982.787 1761.12 983.093 1761.46 983.32C1761.8 983.533 1762.18 983.68 1762.6 983.76C1763.02 983.84 1763.4 983.88 1763.74 983.88C1764.15 983.88 1764.58 983.833 1765.02 983.74C1765.46 983.647 1765.82 983.467 1766.12 983.2C1766.42 982.933 1766.58 982.54 1766.58 982.02C1766.58 981.513 1766.45 981.14 1766.2 980.9C1765.94 980.66 1765.62 980.5 1765.22 980.42C1764.82 980.34 1764.4 980.3 1763.96 980.3H1762.12L1762.12 979.08H1763.5C1763.78 979.08 1764.07 979.053 1764.38 979C1764.7 978.947 1764.99 978.853 1765.26 978.72C1765.52 978.587 1765.74 978.4 1765.9 978.16C1766.07 977.92 1766.16 977.613 1766.16 977.24C1766.16 976.827 1766.04 976.5 1765.8 976.26C1765.56 976.007 1765.25 975.833 1764.88 975.74C1764.5 975.633 1764.13 975.58 1763.76 975.58C1763.42 975.58 1763.07 975.613 1762.7 975.68C1762.32 975.747 1762 975.88 1761.72 976.08C1761.44 976.28 1761.26 976.58 1761.18 976.98H1759.76C1759.81 976.3 1760.04 975.773 1760.46 975.4C1760.88 975.013 1761.39 974.74 1761.98 974.58C1762.58 974.42 1763.16 974.34 1763.74 974.34C1764.19 974.34 1764.64 974.387 1765.08 974.48C1765.53 974.56 1765.94 974.707 1766.3 974.92C1766.67 975.133 1766.96 975.42 1767.18 975.78C1767.4 976.127 1767.52 976.56 1767.54 977.08C1767.55 977.587 1767.43 978.04 1767.18 978.44C1766.94 978.84 1766.54 979.16 1765.98 979.4C1766.71 979.573 1767.23 979.9 1767.54 980.38C1767.84 980.86 1768 981.407 1768 982.02C1768 982.593 1767.87 983.073 1767.62 983.46C1767.38 983.847 1767.05 984.167 1766.64 984.42C1766.24 984.673 1765.78 984.853 1765.28 984.96C1764.78 985.067 1764.28 985.12 1763.76 985.12ZM1773.59 985.12C1773.16 985.12 1772.73 985.067 1772.29 984.96C1771.85 984.84 1771.45 984.66 1771.09 984.42C1770.73 984.167 1770.44 983.847 1770.21 983.46C1770 983.06 1769.89 982.593 1769.89 982.06C1769.89 981.46 1770 980.96 1770.21 980.56C1770.44 980.16 1770.74 979.84 1771.11 979.6C1771.48 979.36 1771.91 979.193 1772.39 979.1C1772.87 978.993 1773.38 978.94 1773.91 978.94H1777.25C1777.25 978.287 1777.16 977.713 1776.97 977.22C1776.8 976.713 1776.5 976.313 1776.09 976.02C1775.69 975.727 1775.15 975.58 1774.47 975.58C1774.11 975.58 1773.76 975.62 1773.43 975.7C1773.1 975.78 1772.8 975.913 1772.53 976.1C1772.28 976.273 1772.08 976.513 1771.93 976.82H1770.41C1770.53 976.353 1770.73 975.96 1771.01 975.64C1771.3 975.32 1771.64 975.067 1772.03 974.88C1772.42 974.68 1772.82 974.54 1773.25 974.46C1773.68 974.38 1774.08 974.34 1774.47 974.34C1775.47 974.34 1776.28 974.547 1776.89 974.96C1777.5 975.36 1777.94 975.933 1778.21 976.68C1778.49 977.413 1778.63 978.28 1778.63 979.28L1778.63 985H1777.41L1777.35 983.56C1777.06 983.96 1776.7 984.273 1776.29 984.5C1775.89 984.727 1775.46 984.887 1774.99 984.98C1774.54 985.073 1774.07 985.12 1773.59 985.12ZM1773.73 983.88C1774.38 983.88 1774.98 983.773 1775.51 983.56C1776.04 983.333 1776.46 983 1776.77 982.56C1777.09 982.12 1777.25 981.573 1777.25 980.92L1777.25 980.12H1774.89C1774.48 980.12 1774.06 980.133 1773.63 980.16C1773.2 980.173 1772.82 980.24 1772.47 980.36C1772.12 980.467 1771.84 980.647 1771.63 980.9C1771.42 981.14 1771.31 981.487 1771.31 981.94C1771.31 982.393 1771.42 982.767 1771.65 983.06C1771.88 983.34 1772.18 983.547 1772.55 983.68C1772.92 983.813 1773.32 983.88 1773.73 983.88ZM1781.34 985L1781.34 974.46H1782.76L1782.76 979.22H1788.56L1788.56 974.46H1789.96L1789.96 985H1788.56L1788.56 980.44H1782.76L1782.76 985H1781.34ZM1792.73 985L1792.73 974.46H1794.17L1794.17 978.6H1796.19C1796.79 978.6 1797.34 978.647 1797.85 978.74C1798.36 978.833 1798.8 978.993 1799.17 979.22C1799.56 979.447 1799.86 979.76 1800.07 980.16C1800.28 980.547 1800.39 981.053 1800.39 981.68C1800.39 982.28 1800.28 982.793 1800.07 983.22C1799.87 983.633 1799.58 983.973 1799.21 984.24C1798.85 984.507 1798.42 984.7 1797.93 984.82C1797.44 984.94 1796.9 985 1796.33 985H1792.73ZM1794.17 983.78H1795.17C1795.64 983.78 1796.09 983.767 1796.53 983.74C1796.98 983.713 1797.39 983.64 1797.75 983.52C1798.11 983.387 1798.4 983.18 1798.61 982.9C1798.84 982.62 1798.95 982.233 1798.95 981.74C1798.95 981.287 1798.86 980.933 1798.67 980.68C1798.5 980.427 1798.26 980.24 1797.97 980.12C1797.68 979.987 1797.35 979.907 1796.99 979.88C1796.64 979.84 1796.3 979.82 1795.97 979.82H1794.17L1794.17 983.78ZM1802.07 985L1802.07 974.46H1803.49L1803.49 985H1802.07ZM1811.64 985L1811.64 974.46H1815.7C1816.14 974.46 1816.58 974.493 1817.04 974.56C1817.49 974.613 1817.9 974.733 1818.28 974.92C1818.66 975.093 1818.97 975.353 1819.2 975.7C1819.44 976.033 1819.56 976.487 1819.56 977.06C1819.56 977.367 1819.5 977.667 1819.4 977.96C1819.29 978.253 1819.12 978.52 1818.9 978.76C1818.68 979 1818.38 979.2 1818 979.36C1818.76 979.52 1819.31 979.833 1819.66 980.3C1820 980.753 1820.18 981.3 1820.18 981.94C1820.18 982.473 1820.08 982.933 1819.88 983.32C1819.69 983.707 1819.42 984.027 1819.08 984.28C1818.74 984.52 1818.35 984.7 1817.9 984.82C1817.46 984.94 1816.99 985 1816.5 985H1811.64ZM1813.08 983.78H1816.12C1816.54 983.78 1816.96 983.74 1817.36 983.66C1817.77 983.567 1818.1 983.4 1818.36 983.16C1818.62 982.907 1818.76 982.54 1818.76 982.06C1818.76 981.607 1818.66 981.26 1818.46 981.02C1818.26 980.767 1818 980.587 1817.68 980.48C1817.36 980.373 1817.01 980.307 1816.64 980.28C1816.26 980.253 1815.91 980.24 1815.58 980.24H1813.08L1813.08 983.78ZM1813.08 979.06H1815C1815.29 979.06 1815.62 979.04 1815.98 979C1816.34 978.96 1816.68 978.88 1817.02 978.76C1817.35 978.64 1817.62 978.467 1817.84 978.24C1818.05 978 1818.16 977.687 1818.16 977.3C1818.16 976.767 1818.01 976.393 1817.72 976.18C1817.44 975.953 1817.09 975.813 1816.68 975.76C1816.28 975.707 1815.89 975.68 1815.52 975.68H1813.08L1813.08 979.06ZM1827.96 985L1827.96 974.46H1829.94L1833.58 980.16L1837.2 974.46H1839.14L1839.14 985H1837.74L1837.74 975.94L1833.76 982.28H1833.34L1829.36 975.94L1829.36 985H1827.96ZM1841.91 985L1841.91 974.46H1843.89L1847.53 980.16L1851.15 974.46H1853.09L1853.09 985H1851.69L1851.69 975.94L1847.71 982.28H1847.29L1843.31 975.94L1843.31 985H1841.91Z" fill="#A3A3A1"/>
<rect x="175.244" y="419" width="1533" height="241" fill="#D9D9D9"/>
<path fill-rule="evenodd" clip-rule="evenodd" d="M628.725 549.122C631.147 550.575 633.811 551.645 636.718 552.331C639.624 553.017 642.602 553.36 645.649 553.36C647.708 553.36 649.423 553.219 650.796 552.937C652.168 552.654 653.268 552.291 654.096 551.847C654.923 551.403 655.509 550.898 655.853 550.333C656.196 549.768 656.367 549.193 656.367 548.607C656.367 547.76 655.993 547.032 655.246 546.427C654.519 545.821 653.308 545.519 651.613 545.519C650.826 545.519 649.978 545.569 649.07 545.67C648.162 545.771 647.203 545.882 646.194 546.003C645.205 546.104 644.165 546.205 643.075 546.306C642.006 546.407 640.916 546.457 639.806 546.457C637.384 546.457 635.315 546.195 633.6 545.67C631.904 545.145 630.521 544.429 629.451 543.52C628.382 542.612 627.604 541.543 627.12 540.312C626.636 539.06 626.394 537.718 626.394 536.285C626.394 534.469 626.817 532.793 627.665 531.259C628.513 529.725 629.724 528.403 631.298 527.293C632.872 526.163 634.77 525.285 636.99 524.659C639.231 524.033 641.724 523.721 644.469 523.721C645.902 523.721 647.395 523.812 648.949 523.993C650.523 524.155 652.067 524.377 653.581 524.659C655.095 524.942 656.549 525.275 657.941 525.658C659.334 526.021 660.565 526.415 661.635 526.839L658.819 533.802C656.539 532.954 654.257 532.288 651.977 531.804C649.716 531.299 647.385 531.047 644.983 531.047C643.308 531.047 641.885 531.178 640.714 531.44C639.564 531.683 638.625 532.016 637.898 532.439C637.172 532.843 636.637 533.317 636.294 533.862C635.971 534.387 635.81 534.943 635.81 535.528C635.81 535.952 635.89 536.336 636.052 536.679C636.233 537.022 636.516 537.325 636.899 537.587C637.303 537.829 637.818 538.021 638.443 538.162C639.089 538.283 639.876 538.344 640.805 538.344C641.652 538.344 642.551 538.293 643.499 538.192C644.448 538.091 645.437 537.991 646.467 537.89C647.496 537.769 648.556 537.658 649.646 537.557C650.756 537.456 651.886 537.405 653.036 537.405C655.176 537.405 657.043 537.657 658.638 538.162C660.252 538.667 661.584 539.373 662.634 540.281C663.683 541.189 664.47 542.259 664.995 543.49C665.52 544.721 665.782 546.064 665.782 547.518C665.782 549.395 665.348 551.14 664.48 552.755C663.613 554.369 662.321 555.772 660.605 556.963C658.89 558.134 656.75 559.053 654.187 559.719C651.644 560.385 648.697 560.718 645.347 560.718C643.288 560.718 641.299 560.587 639.382 560.324C637.465 560.082 635.638 559.749 633.902 559.325C632.167 558.881 630.531 558.366 628.997 557.78C627.483 557.195 626.101 556.569 624.85 555.903L628.725 549.122ZM601.749 524.356V513.245L610.711 513.245V524.356L619.339 524.356V531.077L610.711 531.077V560.082L601.749 560.082V531.077L593.12 531.077V524.356L601.749 524.356ZM574.197 524.356V529.503C576.175 528.03 578.265 526.758 580.465 525.688C582.665 524.619 584.855 523.8 587.035 523.235L589.669 531.44C586.218 531.784 583.18 532.56 580.556 533.771C577.952 534.962 575.832 536.648 574.197 538.828V560.082L565.236 560.082V524.356L574.197 524.356ZM512.011 548.819C512.011 547.104 512.384 545.539 513.131 544.126C513.878 542.713 514.999 541.502 516.492 540.493C517.986 539.464 519.842 538.677 522.062 538.132C524.303 537.567 526.907 537.284 529.874 537.284C532.074 537.284 534.385 537.446 536.807 537.769C539.249 538.091 541.762 538.586 544.346 539.252C544.245 538.122 543.902 537.082 543.316 536.134C542.731 535.165 541.914 534.337 540.864 533.65C539.835 532.944 538.583 532.399 537.109 532.016C535.656 531.632 534.001 531.44 532.145 531.44C531.135 531.44 530.025 531.501 528.814 531.622C527.603 531.743 526.351 531.925 525.06 532.167C523.768 532.409 522.486 532.712 521.215 533.075C519.964 533.438 518.793 533.872 517.703 534.377L514.978 527.02C516.33 526.536 517.774 526.092 519.308 525.688C520.862 525.285 522.446 524.942 524.061 524.659C525.675 524.356 527.291 524.124 528.905 523.963C530.52 523.801 532.084 523.721 533.598 523.721C540.278 523.721 545.244 525.426 548.493 528.837C551.743 532.248 553.368 537.475 553.368 544.52V560.082L544.406 560.082V556.721C543.478 557.266 542.459 557.78 541.349 558.265C540.259 558.749 539.067 559.174 537.775 559.537C536.484 559.9 535.091 560.183 533.598 560.385C532.124 560.607 530.56 560.718 528.905 560.718C526.12 560.718 523.667 560.415 521.548 559.81C519.449 559.204 517.693 558.366 516.28 557.296C514.867 556.226 513.797 554.975 513.07 553.542C512.364 552.089 512.011 550.515 512.011 548.819ZM521.457 548.517C521.457 549.102 521.608 549.667 521.911 550.212C522.214 550.737 522.698 551.211 523.364 551.635C524.03 552.038 524.878 552.371 525.907 552.634C526.957 552.876 528.219 552.997 529.692 552.997C531.267 552.997 532.79 552.856 534.264 552.573C535.737 552.291 537.109 551.917 538.381 551.453C539.652 550.989 540.804 550.454 541.833 549.849C542.862 549.243 543.72 548.617 544.406 547.972V546.396C543.034 546.013 541.672 545.69 540.319 545.428C538.987 545.165 537.705 544.964 536.474 544.822C535.263 544.661 534.112 544.55 533.022 544.489C531.953 544.429 531.014 544.398 530.207 544.398C528.532 544.398 527.138 544.509 526.028 544.731C524.918 544.953 524.02 545.256 523.334 545.64C522.648 546.003 522.163 546.438 521.881 546.942C521.598 547.447 521.457 547.972 521.457 548.517ZM470.2 515.667V521.691L470.442 523.145C470.563 523.75 470.725 524.427 470.927 525.174C471.149 525.9 471.421 526.688 471.744 527.535C472.087 528.363 472.501 529.2 472.985 530.048C476.195 535.659 481.412 538.465 488.638 538.465C490.656 538.465 492.463 538.213 494.058 537.708C495.652 537.203 496.994 536.467 498.084 535.498C498.952 534.731 499.608 533.852 500.052 532.863C500.516 531.854 500.748 530.795 500.748 529.685C500.748 528.696 500.546 527.717 500.143 526.748C499.759 525.779 499.154 524.911 498.326 524.145C497.519 523.357 496.48 522.731 495.208 522.267C493.957 521.782 492.472 521.54 490.757 521.54C487.871 521.54 485.338 522.095 483.158 523.205C480.978 524.295 479.081 525.981 477.466 528.262L471.744 524.205C474.005 521.016 476.739 518.614 479.948 516.999C483.157 515.364 486.761 514.547 490.757 514.547C493.28 514.547 495.591 514.93 497.69 515.697C499.81 516.464 501.656 517.605 503.23 519.118C504.684 520.531 505.795 522.146 506.562 523.963C507.349 525.759 507.742 527.666 507.742 529.685C507.742 531.824 507.318 533.833 506.471 535.71C505.623 537.587 504.381 539.252 502.746 540.705C501.01 542.279 498.942 543.47 496.54 544.277C494.158 545.065 491.524 545.458 488.638 545.458C486.397 545.458 484.349 545.266 482.492 544.883C480.635 544.479 478.949 543.934 477.436 543.248C475.922 542.562 474.57 541.775 473.379 540.887C472.188 539.979 471.129 539.03 470.2 538.041V560.082L461.935 560.082V515.667L470.2 515.667ZM439.651 554.844C439.651 554.036 439.813 553.28 440.136 552.573C440.479 551.847 440.963 551.221 441.589 550.696C442.214 550.151 442.971 549.728 443.859 549.425C444.747 549.122 445.747 548.971 446.857 548.971C447.967 548.971 448.967 549.122 449.854 549.425C450.742 549.728 451.489 550.151 452.095 550.696C452.72 551.221 453.195 551.847 453.518 552.573C453.861 553.28 454.032 554.036 454.032 554.844C454.032 555.651 453.861 556.418 453.518 557.145C453.195 557.851 452.72 558.467 452.095 558.992C451.489 559.517 450.742 559.931 449.854 560.233C448.967 560.556 447.967 560.718 446.857 560.718C445.747 560.718 444.747 560.556 443.859 560.233C442.971 559.931 442.215 559.517 441.589 558.992C440.963 558.467 440.479 557.851 440.136 557.145C439.813 556.418 439.651 555.651 439.651 554.844ZM386.244 548.819C386.244 547.104 386.617 545.539 387.364 544.126C388.111 542.713 389.232 541.502 390.726 540.493C392.219 539.464 394.076 538.677 396.296 538.132C398.536 537.567 401.14 537.284 404.107 537.284C406.307 537.284 408.618 537.446 411.04 537.769C413.482 538.091 415.996 538.586 418.579 539.252C418.478 538.122 418.135 537.082 417.55 536.134C416.964 535.165 416.147 534.337 415.098 533.65C414.068 532.944 412.816 532.399 411.343 532.016C409.89 531.632 408.235 531.44 406.378 531.44C405.369 531.44 404.259 531.501 403.048 531.622C401.837 531.743 400.585 531.925 399.293 532.167C398.001 532.409 396.72 532.712 395.448 533.075C394.197 533.438 393.026 533.872 391.937 534.377L389.212 527.021C390.564 526.536 392.007 526.092 393.541 525.688C395.095 525.285 396.679 524.942 398.294 524.659C399.909 524.356 401.524 524.124 403.139 523.963C404.753 523.801 406.317 523.721 407.831 523.721C414.512 523.721 419.477 525.426 422.727 528.837C425.976 532.248 427.602 537.475 427.602 544.52V560.082L418.64 560.082V556.721C417.711 557.266 416.692 557.78 415.582 558.265C414.492 558.749 413.301 559.174 412.01 559.537C410.718 559.9 409.325 560.183 407.831 560.385C406.358 560.607 404.794 560.718 403.139 560.718C400.353 560.718 397.901 560.415 395.781 559.81C393.682 559.204 391.927 558.366 390.514 557.296C389.101 556.226 388.03 554.975 387.304 553.542C386.597 552.089 386.244 550.515 386.244 548.819ZM395.69 548.517C395.69 549.102 395.842 549.667 396.145 550.212C396.447 550.737 396.932 551.211 397.598 551.635C398.264 552.038 399.112 552.371 400.142 552.634C401.191 552.876 402.453 552.997 403.926 552.997C405.5 552.997 407.024 552.856 408.497 552.573C409.971 552.291 411.344 551.917 412.615 551.453C413.887 550.989 415.037 550.454 416.066 549.849C417.096 549.243 417.953 548.617 418.64 547.972V546.396C417.267 546.013 415.905 545.69 414.553 545.428C413.221 545.165 411.938 544.964 410.707 544.822C409.496 544.661 408.346 544.55 407.256 544.489C406.186 544.429 405.248 544.398 404.44 544.398C402.765 544.398 401.373 544.509 400.263 544.731C399.153 544.953 398.254 545.256 397.567 545.64C396.881 546.003 396.397 546.438 396.114 546.942C395.832 547.447 395.69 547.972 395.69 548.517ZM292.407 510.999C310.845 510.999 326.041 524.869 328.136 542.743L334.731 542.743V553.324L318.859 553.324V546.747C318.738 532.166 307.018 520.385 292.407 520.385V510.999ZM271.244 546.532C271.244 534.622 280.9 524.967 292.811 524.967C304.722 524.967 314.378 534.622 314.378 546.532C314.378 558.443 304.722 568.098 292.811 568.098C280.9 568.097 271.244 558.442 271.244 546.532ZM280.487 546.532C280.487 553.338 286.004 558.855 292.811 558.855C299.617 558.855 305.135 553.338 305.135 546.532C305.135 539.726 299.617 534.209 292.811 534.209C286.004 534.209 280.487 539.726 280.487 546.532Z" fill="black"/>
<path d="M1418.72 549.122C1421.15 550.575 1423.81 551.645 1426.72 552.331C1429.62 553.017 1432.6 553.36 1435.65 553.36C1437.71 553.36 1439.42 553.219 1440.8 552.937C1442.17 552.654 1443.27 552.291 1444.1 551.847C1444.92 551.403 1445.51 550.898 1445.85 550.333C1446.2 549.768 1446.37 549.193 1446.37 548.607C1446.37 547.76 1445.99 547.032 1445.25 546.427C1444.52 545.821 1443.31 545.519 1441.61 545.519C1440.83 545.519 1439.98 545.569 1439.07 545.67C1438.16 545.771 1437.2 545.882 1436.19 546.003C1435.21 546.104 1434.17 546.205 1433.08 546.306C1432.01 546.407 1430.92 546.457 1429.81 546.457C1427.38 546.457 1425.32 546.195 1423.6 545.67C1421.9 545.145 1420.52 544.429 1419.45 543.52C1418.38 542.612 1417.6 541.543 1417.12 540.312C1416.64 539.06 1416.39 537.718 1416.39 536.285C1416.39 534.469 1416.82 532.793 1417.67 531.259C1418.51 529.725 1419.72 528.403 1421.3 527.293C1422.87 526.163 1424.77 525.285 1426.99 524.659C1429.23 524.033 1431.72 523.721 1434.47 523.721C1435.9 523.721 1437.4 523.812 1438.95 523.993C1440.52 524.155 1442.07 524.377 1443.58 524.659C1445.09 524.942 1446.55 525.275 1447.94 525.658C1449.33 526.021 1450.57 526.415 1451.63 526.839L1448.82 533.802C1446.54 532.954 1444.26 532.288 1441.98 531.804C1439.72 531.299 1437.39 531.047 1434.98 531.047C1433.31 531.047 1431.88 531.178 1430.71 531.44C1429.56 531.683 1428.62 532.016 1427.9 532.439C1427.17 532.843 1426.64 533.317 1426.29 533.862C1425.97 534.387 1425.81 534.943 1425.81 535.528C1425.81 535.952 1425.89 536.336 1426.05 536.679C1426.23 537.022 1426.52 537.325 1426.9 537.587C1427.3 537.829 1427.82 538.021 1428.44 538.162C1429.09 538.283 1429.88 538.344 1430.8 538.344C1431.65 538.344 1432.55 538.293 1433.5 538.192C1434.45 538.091 1435.44 537.991 1436.47 537.89C1437.5 537.769 1438.56 537.658 1439.65 537.557C1440.76 537.456 1441.89 537.405 1443.04 537.405C1445.18 537.405 1447.04 537.657 1448.64 538.162C1450.25 538.667 1451.58 539.373 1452.63 540.281C1453.68 541.189 1454.47 542.259 1455 543.49C1455.52 544.721 1455.78 546.064 1455.78 547.518C1455.78 549.395 1455.35 551.14 1454.48 552.755C1453.61 554.369 1452.32 555.772 1450.61 556.963C1448.89 558.134 1446.75 559.053 1444.19 559.719C1441.64 560.385 1438.7 560.718 1435.35 560.718C1433.29 560.718 1431.3 560.587 1429.38 560.324C1427.46 560.082 1425.64 559.749 1423.9 559.325C1422.17 558.881 1420.53 558.366 1419 557.78C1417.48 557.195 1416.1 556.569 1414.85 555.903L1418.72 549.122ZM1391.75 524.356V513.245L1400.71 513.245V524.356L1409.34 524.356V531.077L1400.71 531.077V560.082L1391.75 560.082V531.077L1383.12 531.077V524.356L1391.75 524.356ZM1364.2 524.356V529.503C1366.18 528.03 1368.26 526.758 1370.46 525.688C1372.66 524.619 1374.86 523.8 1377.04 523.235L1379.67 531.44C1376.22 531.784 1373.18 532.56 1370.56 533.771C1367.95 534.962 1365.83 536.648 1364.2 538.828V560.082L1355.24 560.082V524.356L1364.2 524.356ZM1302.01 548.819C1302.01 547.104 1302.38 545.539 1303.13 544.126C1303.88 542.713 1305 541.502 1306.49 540.493C1307.99 539.464 1309.84 538.677 1312.06 538.132C1314.3 537.567 1316.91 537.284 1319.87 537.284C1322.07 537.284 1324.38 537.446 1326.81 537.769C1329.25 538.091 1331.76 538.586 1334.35 539.252C1334.24 538.122 1333.9 537.082 1333.32 536.134C1332.73 535.165 1331.91 534.337 1330.86 533.65C1329.83 532.944 1328.58 532.399 1327.11 532.016C1325.66 531.632 1324 531.44 1322.14 531.44C1321.14 531.44 1320.03 531.501 1318.81 531.622C1317.6 531.743 1316.35 531.925 1315.06 532.167C1313.77 532.409 1312.49 532.712 1311.21 533.075C1309.96 533.438 1308.79 533.872 1307.7 534.377L1304.98 527.02C1306.33 526.536 1307.77 526.092 1309.31 525.688C1310.86 525.285 1312.45 524.942 1314.06 524.659C1315.68 524.356 1317.29 524.124 1318.91 523.963C1320.52 523.801 1322.08 523.721 1323.6 523.721C1330.28 523.721 1335.24 525.426 1338.49 528.837C1341.74 532.248 1343.37 537.475 1343.37 544.52V560.082L1334.41 560.082V556.721C1333.48 557.266 1332.46 557.78 1331.35 558.265C1330.26 558.749 1329.07 559.174 1327.78 559.537C1326.48 559.9 1325.09 560.183 1323.6 560.385C1322.12 560.607 1320.56 560.718 1318.91 560.718C1316.12 560.718 1313.67 560.415 1311.55 559.81C1309.45 559.204 1307.69 558.366 1306.28 557.296C1304.87 556.226 1303.8 554.975 1303.07 553.542C1302.36 552.089 1302.01 550.515 1302.01 548.819ZM1311.46 548.517C1311.46 549.102 1311.61 549.667 1311.91 550.212C1312.21 550.737 1312.7 551.211 1313.36 551.635C1314.03 552.038 1314.88 552.371 1315.91 552.634C1316.96 552.876 1318.22 552.997 1319.69 552.997C1321.27 552.997 1322.79 552.856 1324.26 552.573C1325.74 552.291 1327.11 551.917 1328.38 551.453C1329.65 550.989 1330.8 550.454 1331.83 549.849C1332.86 549.243 1333.72 548.617 1334.41 547.972V546.396C1333.03 546.013 1331.67 545.69 1330.32 545.428C1328.99 545.165 1327.7 544.964 1326.47 544.822C1325.26 544.661 1324.11 544.55 1323.02 544.489C1321.95 544.429 1321.01 544.398 1320.21 544.398C1318.53 544.398 1317.14 544.509 1316.03 544.731C1314.92 544.953 1314.02 545.256 1313.33 545.64C1312.65 546.003 1312.16 546.438 1311.88 546.942C1311.6 547.447 1311.46 547.972 1311.46 548.517ZM1260.2 515.667V521.691L1260.44 523.145C1260.56 523.75 1260.72 524.427 1260.93 525.174C1261.15 525.9 1261.42 526.688 1261.74 527.535C1262.09 528.363 1262.5 529.2 1262.99 530.048C1266.19 535.659 1271.41 538.465 1278.64 538.465C1280.66 538.465 1282.46 538.213 1284.06 537.708C1285.65 537.203 1286.99 536.467 1288.08 535.498C1288.95 534.731 1289.61 533.852 1290.05 532.863C1290.52 531.854 1290.75 530.795 1290.75 529.685C1290.75 528.696 1290.55 527.717 1290.14 526.748C1289.76 525.779 1289.15 524.911 1288.33 524.145C1287.52 523.357 1286.48 522.731 1285.21 522.267C1283.96 521.782 1282.47 521.54 1280.76 521.54C1277.87 521.54 1275.34 522.095 1273.16 523.205C1270.98 524.295 1269.08 525.981 1267.47 528.262L1261.74 524.205C1264 521.016 1266.74 518.614 1269.95 516.999C1273.16 515.364 1276.76 514.547 1280.76 514.547C1283.28 514.547 1285.59 514.93 1287.69 515.697C1289.81 516.464 1291.66 517.605 1293.23 519.118C1294.68 520.531 1295.79 522.146 1296.56 523.963C1297.35 525.759 1297.74 527.666 1297.74 529.685C1297.74 531.824 1297.32 533.833 1296.47 535.71C1295.62 537.587 1294.38 539.252 1292.75 540.705C1291.01 542.279 1288.94 543.47 1286.54 544.277C1284.16 545.065 1281.52 545.458 1278.64 545.458C1276.4 545.458 1274.35 545.266 1272.49 544.883C1270.64 544.479 1268.95 543.934 1267.44 543.248C1265.92 542.562 1264.57 541.775 1263.38 540.887C1262.19 539.979 1261.13 539.03 1260.2 538.041V560.082L1251.93 560.082V515.667L1260.2 515.667ZM1229.65 554.844C1229.65 554.036 1229.81 553.28 1230.14 552.573C1230.48 551.847 1230.96 551.221 1231.59 550.696C1232.21 550.151 1232.97 549.728 1233.86 549.425C1234.75 549.122 1235.75 548.971 1236.86 548.971C1237.97 548.971 1238.97 549.122 1239.85 549.425C1240.74 549.728 1241.49 550.151 1242.09 550.696C1242.72 551.221 1243.19 551.847 1243.52 552.573C1243.86 553.28 1244.03 554.036 1244.03 554.844C1244.03 555.651 1243.86 556.418 1243.52 557.145C1243.19 557.851 1242.72 558.467 1242.09 558.992C1241.49 559.517 1240.74 559.931 1239.85 560.233C1238.97 560.556 1237.97 560.718 1236.86 560.718C1235.75 560.718 1234.75 560.556 1233.86 560.233C1232.97 559.931 1232.21 559.517 1231.59 558.992C1230.96 558.467 1230.48 557.851 1230.14 557.145C1229.81 556.418 1229.65 555.651 1229.65 554.844ZM1176.24 548.819C1176.24 547.104 1176.62 545.539 1177.36 544.126C1178.11 542.713 1179.23 541.502 1180.73 540.493C1182.22 539.464 1184.08 538.677 1186.3 538.132C1188.54 537.567 1191.14 537.284 1194.11 537.284C1196.31 537.284 1198.62 537.446 1201.04 537.769C1203.48 538.091 1206 538.586 1208.58 539.252C1208.48 538.122 1208.14 537.082 1207.55 536.134C1206.96 535.165 1206.15 534.337 1205.1 533.65C1204.07 532.944 1202.82 532.399 1201.34 532.016C1199.89 531.632 1198.23 531.44 1196.38 531.44C1195.37 531.44 1194.26 531.501 1193.05 531.622C1191.84 531.743 1190.58 531.925 1189.29 532.167C1188 532.409 1186.72 532.712 1185.45 533.075C1184.2 533.438 1183.03 533.872 1181.94 534.377L1179.21 527.021C1180.56 526.536 1182.01 526.092 1183.54 525.688C1185.1 525.285 1186.68 524.942 1188.29 524.659C1189.91 524.356 1191.52 524.124 1193.14 523.963C1194.75 523.801 1196.32 523.721 1197.83 523.721C1204.51 523.721 1209.48 525.426 1212.73 528.837C1215.98 532.248 1217.6 537.475 1217.6 544.52V560.082L1208.64 560.082V556.721C1207.71 557.266 1206.69 557.78 1205.58 558.265C1204.49 558.749 1203.3 559.174 1202.01 559.537C1200.72 559.9 1199.32 560.183 1197.83 560.385C1196.36 560.607 1194.79 560.718 1193.14 560.718C1190.35 560.718 1187.9 560.415 1185.78 559.81C1183.68 559.204 1181.93 558.366 1180.51 557.296C1179.1 556.226 1178.03 554.975 1177.3 553.542C1176.6 552.089 1176.24 550.515 1176.24 548.819ZM1185.69 548.517C1185.69 549.102 1185.84 549.667 1186.14 550.212C1186.45 550.737 1186.93 551.211 1187.6 551.635C1188.26 552.038 1189.11 552.371 1190.14 552.634C1191.19 552.876 1192.45 552.997 1193.93 552.997C1195.5 552.997 1197.02 552.856 1198.5 552.573C1199.97 552.291 1201.34 551.917 1202.62 551.453C1203.89 550.989 1205.04 550.454 1206.07 549.849C1207.1 549.243 1207.95 548.617 1208.64 547.972V546.396C1207.27 546.013 1205.9 545.69 1204.55 545.428C1203.22 545.165 1201.94 544.964 1200.71 544.822C1199.5 544.661 1198.35 544.55 1197.26 544.489C1196.19 544.429 1195.25 544.398 1194.44 544.398C1192.77 544.398 1191.37 544.509 1190.26 544.731C1189.15 544.953 1188.25 545.256 1187.57 545.64C1186.88 546.003 1186.4 546.438 1186.11 546.942C1185.83 547.447 1185.69 547.972 1185.69 548.517ZM1082.41 510.999C1100.85 510.999 1116.04 524.869 1118.14 542.743L1124.73 542.743V553.324L1108.86 553.324V546.747C1108.74 532.166 1097.02 520.385 1082.41 520.385V510.999ZM1061.24 546.532C1061.24 534.622 1070.9 524.967 1082.81 524.967C1094.72 524.967 1104.38 534.622 1104.38 546.532C1104.38 558.443 1094.72 568.098 1082.81 568.098C1070.9 568.097 1061.24 558.442 1061.24 546.532ZM1070.49 546.532C1070.49 553.338 1076 558.855 1082.81 558.855C1089.62 558.855 1095.13 553.338 1095.13 546.532C1095.13 539.726 1089.62 534.209 1082.81 534.209C1076 534.209 1070.49 539.726 1070.49 546.532Z" fill="black"/>
<path d="M1746.99 421.5V660.5" stroke="black"/>
<path d="M142 463L142 618" stroke="black"/>
<path d="M1869 660L73 660" stroke="black"/>
<path d="M1869 419L73 419" stroke="black"/>
<path d="M271 787L271 313" stroke="black"/>
<path d="M271 381H666" stroke="black"/>
<path d="M271 695H666" stroke="black"/>
<path d="M1061 381H1456" stroke="black"/>
<path d="M1061 695H1456" stroke="black"/>
<path d="M666 787L666 313" stroke="black"/>
<path d="M99.7285 463L1745.26 463" stroke="black" stroke-width="1.30252"/>
<path d="M98 618L1747 618" stroke="black" stroke-width="1.30252"/>
<path d="M1061 787L1061 313" stroke="black"/>
<path d="M1456 787L1456 313" stroke="black"/>
<path d="M1770.73 546.316C1770.19 546.316 1769.63 546.238 1769.04 546.082C1768.46 545.934 1767.91 545.684 1767.39 545.332C1766.88 544.973 1766.42 544.5 1766.03 543.914C1765.65 543.32 1765.39 542.59 1765.26 541.723H1766.62C1766.76 542.348 1766.98 542.871 1767.29 543.293C1767.6 543.715 1767.95 544.055 1768.33 544.312C1768.72 544.562 1769.13 544.742 1769.55 544.852C1769.98 544.961 1770.37 545.016 1770.73 545.016C1771.29 545.016 1771.83 544.914 1772.33 544.711C1772.83 544.5 1773.26 544.211 1773.63 543.844C1774 543.477 1774.3 543.047 1774.52 542.555C1774.74 542.055 1774.85 541.512 1774.85 540.926C1774.85 540.348 1774.74 539.824 1774.52 539.355C1774.3 538.887 1773.99 538.488 1773.58 538.16C1773.17 537.832 1772.68 537.582 1772.1 537.41C1771.53 537.23 1770.9 537.141 1770.19 537.141L1766.99 537.129L1766.24 536.566L1767.1 530.051H1775.16V531.234H1768.27L1767.65 536.062H1770.47C1771.37 536.062 1772.17 536.18 1772.88 536.414C1773.59 536.648 1774.19 536.98 1774.69 537.41C1775.19 537.832 1775.58 538.344 1775.84 538.945C1776.11 539.539 1776.24 540.203 1776.24 540.938C1776.24 541.664 1776.11 542.355 1775.84 543.012C1775.58 543.66 1775.2 544.23 1774.72 544.723C1774.23 545.207 1773.65 545.594 1772.97 545.883C1772.3 546.172 1771.55 546.316 1770.73 546.316ZM1785.01 546.316C1783.94 546.316 1783.01 546.098 1782.19 545.66C1781.39 545.223 1780.71 544.633 1780.15 543.891C1779.61 543.141 1779.19 542.27 1778.91 541.277C1778.63 540.285 1778.49 539.23 1778.49 538.113C1778.49 536.949 1778.64 535.859 1778.94 534.844C1779.23 533.82 1779.66 532.93 1780.22 532.172C1780.79 531.414 1781.47 530.82 1782.26 530.391C1783.07 529.953 1783.97 529.734 1784.98 529.734C1786.11 529.734 1787.08 529.965 1787.9 530.426C1788.72 530.887 1789.4 531.504 1789.93 532.277C1790.46 533.051 1790.85 533.938 1791.11 534.938C1791.37 535.938 1791.5 536.977 1791.5 538.055C1791.5 539.188 1791.35 540.258 1791.06 541.266C1790.78 542.266 1790.37 543.141 1789.81 543.891C1789.26 544.641 1788.59 545.234 1787.78 545.672C1786.98 546.102 1786.05 546.316 1785.01 546.316ZM1785.01 545.016C1785.81 545.016 1786.53 544.836 1787.16 544.477C1787.79 544.117 1788.33 543.625 1788.77 543C1789.21 542.375 1789.54 541.641 1789.76 540.797C1790 539.945 1790.12 539.031 1790.12 538.055C1790.12 537.117 1790.01 536.223 1789.79 535.371C1789.58 534.52 1789.26 533.773 1788.83 533.133C1788.4 532.492 1787.87 531.984 1787.23 531.609C1786.59 531.227 1785.84 531.035 1784.98 531.035C1784.21 531.035 1783.51 531.215 1782.87 531.574C1782.25 531.934 1781.71 532.43 1781.27 533.062C1780.82 533.688 1780.48 534.434 1780.24 535.301C1779.99 536.16 1779.87 537.094 1779.87 538.102C1779.87 539.07 1779.99 539.977 1780.21 540.82C1780.45 541.656 1780.78 542.387 1781.22 543.012C1781.66 543.629 1782.19 544.117 1782.83 544.477C1783.47 544.836 1784.19 545.016 1785.01 545.016Z" fill="#211F22"/>
<path d="M1256.48 356.156H1247.76L1247.69 355.113L1256.42 343.969H1257.86L1257.86 354.961H1260.79L1260.79 356.156H1257.86V360H1256.48V356.156ZM1256.48 354.973L1256.48 345.879L1249.26 354.996L1256.48 354.973ZM1268.87 360.316C1267.8 360.316 1266.87 360.098 1266.05 359.66C1265.25 359.223 1264.57 358.633 1264.02 357.891C1263.47 357.141 1263.05 356.27 1262.77 355.277C1262.49 354.285 1262.35 353.23 1262.35 352.113C1262.35 350.949 1262.5 349.859 1262.8 348.844C1263.09 347.82 1263.52 346.93 1264.09 346.172C1264.65 345.414 1265.33 344.82 1266.12 344.391C1266.93 343.953 1267.84 343.734 1268.84 343.734C1269.97 343.734 1270.94 343.965 1271.76 344.426C1272.58 344.887 1273.26 345.504 1273.79 346.277C1274.32 347.051 1274.71 347.938 1274.97 348.938C1275.23 349.938 1275.36 350.977 1275.36 352.055C1275.36 353.188 1275.21 354.258 1274.93 355.266C1274.64 356.266 1274.23 357.141 1273.67 357.891C1273.12 358.641 1272.45 359.234 1271.64 359.672C1270.84 360.102 1269.91 360.316 1268.87 360.316ZM1268.87 359.016C1269.67 359.016 1270.39 358.836 1271.02 358.477C1271.66 358.117 1272.19 357.625 1272.63 357C1273.07 356.375 1273.4 355.641 1273.62 354.797C1273.86 353.945 1273.98 353.031 1273.98 352.055C1273.98 351.117 1273.87 350.223 1273.65 349.371C1273.44 348.52 1273.12 347.773 1272.69 347.133C1272.27 346.492 1271.73 345.984 1271.09 345.609C1270.45 345.227 1269.7 345.035 1268.84 345.035C1268.07 345.035 1267.37 345.215 1266.73 345.574C1266.11 345.934 1265.57 346.43 1265.13 347.062C1264.68 347.688 1264.34 348.434 1264.1 349.301C1263.86 350.16 1263.73 351.094 1263.73 352.102C1263.73 353.07 1263.85 353.977 1264.07 354.82C1264.31 355.656 1264.64 356.387 1265.08 357.012C1265.52 357.629 1266.05 358.117 1266.69 358.477C1267.33 358.836 1268.05 359.016 1268.87 359.016Z" fill="#211F22"/>
<path d="M463.48 356.156H454.762L454.691 355.113L463.422 343.969H464.863L464.863 354.961H467.793V356.156H464.863L464.863 360H463.48L463.48 356.156ZM463.48 354.973L463.48 345.879L456.262 354.996L463.48 354.973ZM475.867 360.316C474.805 360.316 473.867 360.098 473.055 359.66C472.25 359.223 471.57 358.633 471.016 357.891C470.469 357.141 470.055 356.27 469.773 355.277C469.492 354.285 469.352 353.23 469.352 352.113C469.352 350.949 469.5 349.859 469.797 348.844C470.094 347.82 470.523 346.93 471.086 346.172C471.648 345.414 472.328 344.82 473.125 344.391C473.93 343.953 474.836 343.734 475.844 343.734C476.969 343.734 477.941 343.965 478.762 344.426C479.582 344.887 480.258 345.504 480.789 346.277C481.32 347.051 481.715 347.938 481.973 348.938C482.23 349.938 482.359 350.977 482.359 352.055C482.359 353.188 482.215 354.258 481.926 355.266C481.645 356.266 481.227 357.141 480.672 357.891C480.125 358.641 479.449 359.234 478.645 359.672C477.84 360.102 476.914 360.316 475.867 360.316ZM475.867 359.016C476.672 359.016 477.391 358.836 478.023 358.477C478.656 358.117 479.191 357.625 479.629 357C480.066 356.375 480.398 355.641 480.625 354.797C480.859 353.945 480.977 353.031 480.977 352.055C480.977 351.117 480.867 350.223 480.648 349.371C480.437 348.52 480.117 347.773 479.687 347.133C479.266 346.492 478.734 345.984 478.094 345.609C477.453 345.227 476.703 345.035 475.844 345.035C475.07 345.035 474.367 345.215 473.734 345.574C473.109 345.934 472.574 346.43 472.129 347.062C471.684 347.688 471.34 348.434 471.098 349.301C470.855 350.16 470.734 351.094 470.734 352.102C470.734 353.07 470.848 353.977 471.074 354.82C471.309 355.656 471.645 356.387 472.082 357.012C472.52 357.629 473.055 358.117 473.687 358.477C474.328 358.836 475.055 359.016 475.867 359.016Z" fill="#211F22"/>
<path d="M1256.48 725.156H1247.76L1247.69 724.113L1256.42 712.969H1257.86L1257.86 723.961H1260.79L1260.79 725.156H1257.86V729H1256.48V725.156ZM1256.48 723.973L1256.48 714.879L1249.26 723.996L1256.48 723.973ZM1268.87 729.316C1267.8 729.316 1266.87 729.098 1266.05 728.66C1265.25 728.223 1264.57 727.633 1264.02 726.891C1263.47 726.141 1263.05 725.27 1262.77 724.277C1262.49 723.285 1262.35 722.23 1262.35 721.113C1262.35 719.949 1262.5 718.859 1262.8 717.844C1263.09 716.82 1263.52 715.93 1264.09 715.172C1264.65 714.414 1265.33 713.82 1266.12 713.391C1266.93 712.953 1267.84 712.734 1268.84 712.734C1269.97 712.734 1270.94 712.965 1271.76 713.426C1272.58 713.887 1273.26 714.504 1273.79 715.277C1274.32 716.051 1274.71 716.938 1274.97 717.938C1275.23 718.938 1275.36 719.977 1275.36 721.055C1275.36 722.188 1275.21 723.258 1274.93 724.266C1274.64 725.266 1274.23 726.141 1273.67 726.891C1273.12 727.641 1272.45 728.234 1271.64 728.672C1270.84 729.102 1269.91 729.316 1268.87 729.316ZM1268.87 728.016C1269.67 728.016 1270.39 727.836 1271.02 727.477C1271.66 727.117 1272.19 726.625 1272.63 726C1273.07 725.375 1273.4 724.641 1273.62 723.797C1273.86 722.945 1273.98 722.031 1273.98 721.055C1273.98 720.117 1273.87 719.223 1273.65 718.371C1273.44 717.52 1273.12 716.773 1272.69 716.133C1272.27 715.492 1271.73 714.984 1271.09 714.609C1270.45 714.227 1269.7 714.035 1268.84 714.035C1268.07 714.035 1267.37 714.215 1266.73 714.574C1266.11 714.934 1265.57 715.43 1265.13 716.062C1264.68 716.688 1264.34 717.434 1264.1 718.301C1263.86 719.16 1263.73 720.094 1263.73 721.102C1263.73 722.07 1263.85 722.977 1264.07 723.82C1264.31 724.656 1264.64 725.387 1265.08 726.012C1265.52 726.629 1266.05 727.117 1266.69 727.477C1267.33 727.836 1268.05 728.016 1268.87 728.016Z" fill="#211F22"/>
<path d="M463.48 725.156H454.762L454.691 724.113L463.422 712.969H464.863L464.863 723.961H467.793V725.156H464.863L464.863 729H463.48L463.48 725.156ZM463.48 723.973L463.48 714.879L456.262 723.996L463.48 723.973ZM475.867 729.316C474.805 729.316 473.867 729.098 473.055 728.66C472.25 728.223 471.57 727.633 471.016 726.891C470.469 726.141 470.055 725.27 469.773 724.277C469.492 723.285 469.352 722.23 469.352 721.113C469.352 719.949 469.5 718.859 469.797 717.844C470.094 716.82 470.523 715.93 471.086 715.172C471.648 714.414 472.328 713.82 473.125 713.391C473.93 712.953 474.836 712.734 475.844 712.734C476.969 712.734 477.941 712.965 478.762 713.426C479.582 713.887 480.258 714.504 480.789 715.277C481.32 716.051 481.715 716.938 481.973 717.938C482.23 718.938 482.359 719.977 482.359 721.055C482.359 722.188 482.215 723.258 481.926 724.266C481.645 725.266 481.227 726.141 480.672 726.891C480.125 727.641 479.449 728.234 478.645 728.672C477.84 729.102 476.914 729.316 475.867 729.316ZM475.867 728.016C476.672 728.016 477.391 727.836 478.023 727.477C478.656 727.117 479.191 726.625 479.629 726C480.066 725.375 480.398 724.641 480.625 723.797C480.859 722.945 480.977 722.031 480.977 721.055C480.977 720.117 480.867 719.223 480.648 718.371C480.437 717.52 480.117 716.773 479.687 716.133C479.266 715.492 478.734 714.984 478.094 714.609C477.453 714.227 476.703 714.035 475.844 714.035C475.07 714.035 474.367 714.215 473.734 714.574C473.109 714.934 472.574 715.43 472.129 716.062C471.684 716.688 471.34 717.434 471.098 718.301C470.855 719.16 470.734 720.094 470.734 721.102C470.734 722.07 470.848 722.977 471.074 723.82C471.309 724.656 471.645 725.387 472.082 726.012C472.52 726.629 473.055 727.117 473.687 727.477C474.328 727.836 475.055 728.016 475.867 728.016Z" fill="#211F22"/>
<path d="M101.039 545.086L106.863 539.777C107.332 539.348 107.766 538.938 108.164 538.547C108.562 538.156 108.906 537.766 109.195 537.375C109.484 536.984 109.711 536.586 109.875 536.18C110.039 535.773 110.121 535.336 110.121 534.867C110.121 534.328 110.023 533.832 109.828 533.379C109.633 532.926 109.367 532.539 109.031 532.219C108.695 531.898 108.301 531.648 107.848 531.469C107.402 531.289 106.926 531.199 106.418 531.199C105.926 531.199 105.449 531.289 104.988 531.469C104.535 531.641 104.133 531.902 103.781 532.254C103.43 532.598 103.148 533.023 102.937 533.531C102.727 534.039 102.621 534.625 102.621 535.289H101.238C101.238 534.523 101.363 533.812 101.613 533.156C101.871 532.5 102.227 531.93 102.68 531.445C103.133 530.961 103.672 530.582 104.297 530.309C104.93 530.035 105.625 529.898 106.383 529.898C107.117 529.898 107.797 530.023 108.422 530.273C109.047 530.523 109.586 530.871 110.039 531.316C110.5 531.762 110.859 532.289 111.117 532.898C111.375 533.5 111.504 534.156 111.504 534.867C111.504 535.43 111.418 535.949 111.246 536.426C111.082 536.895 110.852 537.348 110.555 537.785C110.266 538.215 109.918 538.637 109.512 539.051C109.105 539.457 108.664 539.871 108.187 540.293L103.102 544.875L103.863 544.77H111.727L111.727 546H101.039L101.039 545.086ZM120.27 546.316C119.207 546.316 118.27 546.098 117.457 545.66C116.652 545.223 115.973 544.633 115.418 543.891C114.871 543.141 114.457 542.27 114.176 541.277C113.895 540.285 113.754 539.23 113.754 538.113C113.754 536.949 113.902 535.859 114.199 534.844C114.496 533.82 114.926 532.93 115.488 532.172C116.051 531.414 116.73 530.82 117.527 530.391C118.332 529.953 119.238 529.734 120.246 529.734C121.371 529.734 122.344 529.965 123.164 530.426C123.984 530.887 124.66 531.504 125.191 532.277C125.723 533.051 126.117 533.938 126.375 534.938C126.633 535.938 126.762 536.977 126.762 538.055C126.762 539.188 126.617 540.258 126.328 541.266C126.047 542.266 125.629 543.141 125.074 543.891C124.527 544.641 123.852 545.234 123.047 545.672C122.242 546.102 121.316 546.316 120.27 546.316ZM120.27 545.016C121.074 545.016 121.793 544.836 122.426 544.477C123.059 544.117 123.594 543.625 124.031 543C124.469 542.375 124.801 541.641 125.027 540.797C125.262 539.945 125.379 539.031 125.379 538.055C125.379 537.117 125.27 536.223 125.051 535.371C124.84 534.52 124.52 533.773 124.09 533.133C123.668 532.492 123.137 531.984 122.496 531.609C121.855 531.227 121.105 531.035 120.246 531.035C119.473 531.035 118.77 531.215 118.137 531.574C117.512 531.934 116.977 532.43 116.531 533.062C116.086 533.688 115.742 534.434 115.5 535.301C115.258 536.16 115.137 537.094 115.137 538.102C115.137 539.07 115.25 539.977 115.477 540.82C115.711 541.656 116.047 542.387 116.484 543.012C116.922 543.629 117.457 544.117 118.09 544.477C118.73 544.836 119.457 545.016 120.27 545.016Z" fill="#211F22"/>
</svg>
