<svg width="1942" height="1080" viewBox="0 0 1942 1080" fill="none" xmlns="http://www.w3.org/2000/svg">
<rect width="1942" height="1080" fill="white"/>
<path d="M1638.31 985L1638.31 970.86H1643.15C1644.17 970.86 1645.05 971.027 1645.79 971.36C1646.52 971.693 1647.08 972.207 1647.47 972.9C1647.87 973.58 1648.07 974.447 1648.07 975.5C1648.07 976.54 1647.83 977.413 1647.37 978.12C1646.91 978.827 1646.29 979.353 1645.49 979.7C1644.7 980.047 1643.79 980.22 1642.77 980.22H1639.75L1639.75 985H1638.31ZM1639.75 978.92H1642.71C1643.85 978.92 1644.79 978.647 1645.51 978.1C1646.23 977.553 1646.59 976.66 1646.59 975.42C1646.59 974.3 1646.28 973.48 1645.67 972.96C1645.07 972.427 1644.19 972.16 1643.05 972.16H1639.75L1639.75 978.92ZM1653.49 985.12C1653.06 985.12 1652.63 985.067 1652.19 984.96C1651.75 984.84 1651.35 984.66 1650.99 984.42C1650.63 984.167 1650.34 983.847 1650.11 983.46C1649.9 983.06 1649.79 982.593 1649.79 982.06C1649.79 981.46 1649.9 980.96 1650.11 980.56C1650.34 980.16 1650.64 979.84 1651.01 979.6C1651.38 979.36 1651.81 979.193 1652.29 979.1C1652.77 978.993 1653.28 978.94 1653.81 978.94H1657.15C1657.15 978.287 1657.06 977.713 1656.87 977.22C1656.7 976.713 1656.4 976.313 1655.99 976.02C1655.59 975.727 1655.05 975.58 1654.37 975.58C1654.01 975.58 1653.66 975.62 1653.33 975.7C1653 975.78 1652.7 975.913 1652.43 976.1C1652.18 976.273 1651.98 976.513 1651.83 976.82H1650.31C1650.43 976.353 1650.63 975.96 1650.91 975.64C1651.2 975.32 1651.54 975.067 1651.93 974.88C1652.32 974.68 1652.72 974.54 1653.15 974.46C1653.58 974.38 1653.98 974.34 1654.37 974.34C1655.37 974.34 1656.18 974.547 1656.79 974.96C1657.4 975.36 1657.84 975.933 1658.11 976.68C1658.39 977.413 1658.53 978.28 1658.53 979.28L1658.53 985H1657.31L1657.25 983.56C1656.96 983.96 1656.6 984.273 1656.19 984.5C1655.79 984.727 1655.36 984.887 1654.89 984.98C1654.44 985.073 1653.97 985.12 1653.49 985.12ZM1653.63 983.88C1654.28 983.88 1654.88 983.773 1655.41 983.56C1655.94 983.333 1656.36 983 1656.67 982.56C1656.99 982.12 1657.15 981.573 1657.15 980.92L1657.15 980.12H1654.79C1654.38 980.12 1653.96 980.133 1653.53 980.16C1653.1 980.173 1652.72 980.24 1652.37 980.36C1652.02 980.467 1651.74 980.647 1651.53 980.9C1651.32 981.14 1651.21 981.487 1651.21 981.94C1651.21 982.393 1651.32 982.767 1651.55 983.06C1651.78 983.34 1652.08 983.547 1652.45 983.68C1652.82 983.813 1653.22 983.88 1653.63 983.88ZM1665.03 985.12C1664.55 985.12 1664.06 985.08 1663.57 985C1663.09 984.92 1662.63 984.78 1662.21 984.58C1661.79 984.38 1661.45 984.107 1661.17 983.76C1660.89 983.4 1660.72 982.947 1660.67 982.4H1662.07C1662.17 982.787 1662.39 983.093 1662.73 983.32C1663.07 983.533 1663.45 983.68 1663.87 983.76C1664.29 983.84 1664.67 983.88 1665.01 983.88C1665.42 983.88 1665.85 983.833 1666.29 983.74C1666.73 983.647 1667.09 983.467 1667.39 983.2C1667.69 982.933 1667.85 982.54 1667.85 982.02C1667.85 981.513 1667.72 981.14 1667.47 980.9C1667.21 980.66 1666.89 980.5 1666.49 980.42C1666.09 980.34 1665.67 980.3 1665.23 980.3H1663.39L1663.39 979.08H1664.77C1665.05 979.08 1665.34 979.053 1665.65 979C1665.97 978.947 1666.26 978.853 1666.53 978.72C1666.79 978.587 1667.01 978.4 1667.17 978.16C1667.34 977.92 1667.43 977.613 1667.43 977.24C1667.43 976.827 1667.31 976.5 1667.07 976.26C1666.83 976.007 1666.52 975.833 1666.15 975.74C1665.77 975.633 1665.4 975.58 1665.03 975.58C1664.69 975.58 1664.34 975.613 1663.97 975.68C1663.59 975.747 1663.27 975.88 1662.99 976.08C1662.71 976.28 1662.53 976.58 1662.45 976.98H1661.03C1661.08 976.3 1661.31 975.773 1661.73 975.4C1662.15 975.013 1662.66 974.74 1663.25 974.58C1663.85 974.42 1664.43 974.34 1665.01 974.34C1665.46 974.34 1665.91 974.387 1666.35 974.48C1666.8 974.56 1667.21 974.707 1667.57 974.92C1667.94 975.133 1668.23 975.42 1668.45 975.78C1668.67 976.127 1668.79 976.56 1668.81 977.08C1668.82 977.587 1668.7 978.04 1668.45 978.44C1668.21 978.84 1667.81 979.16 1667.25 979.4C1667.98 979.573 1668.5 979.9 1668.81 980.38C1669.11 980.86 1669.27 981.407 1669.27 982.02C1669.27 982.593 1669.14 983.073 1668.89 983.46C1668.65 983.847 1668.32 984.167 1667.91 984.42C1667.51 984.673 1667.05 984.853 1666.55 984.96C1666.05 985.067 1665.55 985.12 1665.03 985.12ZM1671.54 985L1671.54 974.46H1673.52L1677.16 980.16L1680.78 974.46H1682.72L1682.72 985H1681.32L1681.32 975.94L1677.34 982.28H1676.92L1672.94 975.94L1672.94 985H1671.54ZM1690.02 985.12C1688.92 985.12 1688 984.893 1687.26 984.44C1686.53 983.973 1685.98 983.333 1685.62 982.52C1685.26 981.707 1685.08 980.78 1685.08 979.74C1685.08 978.7 1685.27 977.78 1685.64 976.98C1686.02 976.167 1686.57 975.527 1687.3 975.06C1688.04 974.58 1688.94 974.34 1690 974.34C1690.78 974.34 1691.45 974.487 1692.02 974.78C1692.61 975.06 1693.1 975.447 1693.48 975.94C1693.87 976.433 1694.15 976.993 1694.32 977.62C1694.51 978.247 1694.6 978.893 1694.6 979.56C1694.6 979.68 1694.6 979.793 1694.6 979.9C1694.6 980.007 1694.6 980.113 1694.58 980.22H1686.5C1686.56 980.927 1686.72 981.56 1686.98 982.12C1687.25 982.667 1687.64 983.1 1688.14 983.42C1688.66 983.727 1689.31 983.88 1690.08 983.88C1690.44 983.88 1690.81 983.84 1691.18 983.76C1691.56 983.667 1691.9 983.513 1692.2 983.3C1692.51 983.073 1692.74 982.78 1692.88 982.42H1694.36C1694.18 983.047 1693.86 983.56 1693.42 983.96C1692.98 984.36 1692.46 984.653 1691.86 984.84C1691.26 985.027 1690.65 985.12 1690.02 985.12ZM1686.54 979H1693.18C1693.17 978.347 1693.03 977.767 1692.76 977.26C1692.5 976.74 1692.13 976.333 1691.66 976.04C1691.2 975.733 1690.62 975.58 1689.94 975.58C1689.24 975.58 1688.64 975.74 1688.14 976.06C1687.65 976.38 1687.27 976.8 1687 977.32C1686.75 977.84 1686.6 978.4 1686.54 979ZM1696.99 988.9L1696.99 974.46H1698.35L1698.41 976.24C1698.82 975.587 1699.34 975.107 1699.97 974.8C1700.61 974.493 1701.32 974.34 1702.11 974.34C1703.17 974.34 1704.05 974.58 1704.73 975.06C1705.41 975.54 1705.91 976.193 1706.25 977.02C1706.58 977.833 1706.75 978.747 1706.75 979.76C1706.75 980.8 1706.57 981.727 1706.23 982.54C1705.89 983.353 1705.37 983.987 1704.67 984.44C1703.97 984.893 1703.09 985.12 1702.03 985.12C1701.53 985.12 1701.06 985.067 1700.61 984.96C1700.15 984.853 1699.74 984.68 1699.37 984.44C1698.99 984.187 1698.67 983.873 1698.41 983.5L1698.41 988.9H1696.99ZM1701.97 983.88C1702.79 983.88 1703.45 983.693 1703.93 983.32C1704.42 982.933 1704.77 982.427 1704.99 981.8C1705.21 981.173 1705.33 980.487 1705.33 979.74C1705.33 978.98 1705.21 978.287 1704.99 977.66C1704.76 977.033 1704.39 976.533 1703.89 976.16C1703.38 975.773 1702.71 975.58 1701.89 975.58C1701.13 975.58 1700.48 975.773 1699.95 976.16C1699.43 976.547 1699.03 977.06 1698.77 977.7C1698.5 978.34 1698.37 979.027 1698.37 979.76C1698.37 980.547 1698.49 981.253 1698.75 981.88C1699.01 982.493 1699.41 982.98 1699.95 983.34C1700.49 983.7 1701.17 983.88 1701.97 983.88ZM1709.04 985L1709.04 974.46H1710.48L1710.48 978.6H1712.5C1713.1 978.6 1713.65 978.647 1714.16 978.74C1714.66 978.833 1715.1 978.993 1715.48 979.22C1715.86 979.447 1716.16 979.76 1716.38 980.16C1716.59 980.547 1716.7 981.053 1716.7 981.68C1716.7 982.28 1716.59 982.793 1716.38 983.22C1716.18 983.633 1715.89 983.973 1715.52 984.24C1715.16 984.507 1714.73 984.7 1714.24 984.82C1713.74 984.94 1713.21 985 1712.64 985H1709.04ZM1710.48 983.78H1711.48C1711.94 983.78 1712.4 983.767 1712.84 983.74C1713.29 983.713 1713.7 983.64 1714.06 983.52C1714.42 983.387 1714.7 983.18 1714.92 982.9C1715.14 982.62 1715.26 982.233 1715.26 981.74C1715.26 981.287 1715.16 980.933 1714.98 980.68C1714.8 980.427 1714.57 980.24 1714.28 980.12C1713.98 979.987 1713.66 979.907 1713.3 979.88C1712.95 979.84 1712.61 979.82 1712.28 979.82H1710.48L1710.48 983.78ZM1718.38 985L1718.38 974.46H1719.8L1719.8 985H1718.38ZM1728.26 989.64L1728.26 988.3C1728.92 988.3 1729.44 988.2 1729.84 988C1730.26 987.8 1730.6 987.493 1730.86 987.08C1731.14 986.667 1731.41 986.153 1731.66 985.54L1726.96 974.46H1728.64L1732.44 983.86L1735.58 974.46H1737.2L1734.02 983.38C1733.89 983.767 1733.73 984.207 1733.54 984.7C1733.37 985.18 1733.18 985.673 1732.96 986.18C1732.75 986.687 1732.52 987.16 1732.26 987.6C1732.01 988.04 1731.73 988.393 1731.42 988.66C1731.14 988.913 1730.86 989.107 1730.58 989.24C1730.32 989.387 1730 989.487 1729.64 989.54C1729.28 989.607 1728.82 989.64 1728.26 989.64ZM1738.86 985L1738.86 974.46H1740.28L1740.28 979.12H1742.42L1745.62 974.46H1747.22L1743.7 979.5L1747.54 985H1745.9L1742.6 980.34H1740.28L1740.28 985H1738.86ZM1752.22 985.12C1751.79 985.12 1751.36 985.067 1750.92 984.96C1750.48 984.84 1750.08 984.66 1749.72 984.42C1749.36 984.167 1749.07 983.847 1748.84 983.46C1748.63 983.06 1748.52 982.593 1748.52 982.06C1748.52 981.46 1748.63 980.96 1748.84 980.56C1749.07 980.16 1749.37 979.84 1749.74 979.6C1750.11 979.36 1750.54 979.193 1751.02 979.1C1751.5 978.993 1752.01 978.94 1752.54 978.94H1755.88C1755.88 978.287 1755.79 977.713 1755.6 977.22C1755.43 976.713 1755.13 976.313 1754.72 976.02C1754.32 975.727 1753.78 975.58 1753.1 975.58C1752.74 975.58 1752.39 975.62 1752.06 975.7C1751.73 975.78 1751.43 975.913 1751.16 976.1C1750.91 976.273 1750.71 976.513 1750.56 976.82H1749.04C1749.16 976.353 1749.36 975.96 1749.64 975.64C1749.93 975.32 1750.27 975.067 1750.66 974.88C1751.05 974.68 1751.45 974.54 1751.88 974.46C1752.31 974.38 1752.71 974.34 1753.1 974.34C1754.1 974.34 1754.91 974.547 1755.52 974.96C1756.13 975.36 1756.57 975.933 1756.84 976.68C1757.12 977.413 1757.26 978.28 1757.26 979.28L1757.26 985H1756.04L1755.98 983.56C1755.69 983.96 1755.33 984.273 1754.92 984.5C1754.52 984.727 1754.09 984.887 1753.62 984.98C1753.17 985.073 1752.7 985.12 1752.22 985.12ZM1752.36 983.88C1753.01 983.88 1753.61 983.773 1754.14 983.56C1754.67 983.333 1755.09 983 1755.4 982.56C1755.72 982.12 1755.88 981.573 1755.88 980.92L1755.88 980.12H1753.52C1753.11 980.12 1752.69 980.133 1752.26 980.16C1751.83 980.173 1751.45 980.24 1751.1 980.36C1750.75 980.467 1750.47 980.647 1750.26 980.9C1750.05 981.14 1749.94 981.487 1749.94 981.94C1749.94 982.393 1750.05 982.767 1750.28 983.06C1750.51 983.34 1750.81 983.547 1751.18 983.68C1751.55 983.813 1751.95 983.88 1752.36 983.88ZM1763.76 985.12C1763.28 985.12 1762.79 985.08 1762.3 985C1761.82 984.92 1761.36 984.78 1760.94 984.58C1760.52 984.38 1760.18 984.107 1759.9 983.76C1759.62 983.4 1759.45 982.947 1759.4 982.4H1760.8C1760.9 982.787 1761.12 983.093 1761.46 983.32C1761.8 983.533 1762.18 983.68 1762.6 983.76C1763.02 983.84 1763.4 983.88 1763.74 983.88C1764.15 983.88 1764.58 983.833 1765.02 983.74C1765.46 983.647 1765.82 983.467 1766.12 983.2C1766.42 982.933 1766.58 982.54 1766.58 982.02C1766.58 981.513 1766.45 981.14 1766.2 980.9C1765.94 980.66 1765.62 980.5 1765.22 980.42C1764.82 980.34 1764.4 980.3 1763.96 980.3H1762.12L1762.12 979.08H1763.5C1763.78 979.08 1764.07 979.053 1764.38 979C1764.7 978.947 1764.99 978.853 1765.26 978.72C1765.52 978.587 1765.74 978.4 1765.9 978.16C1766.07 977.92 1766.16 977.613 1766.16 977.24C1766.16 976.827 1766.04 976.5 1765.8 976.26C1765.56 976.007 1765.25 975.833 1764.88 975.74C1764.5 975.633 1764.13 975.58 1763.76 975.58C1763.42 975.58 1763.07 975.613 1762.7 975.68C1762.32 975.747 1762 975.88 1761.72 976.08C1761.44 976.28 1761.26 976.58 1761.18 976.98H1759.76C1759.81 976.3 1760.04 975.773 1760.46 975.4C1760.88 975.013 1761.39 974.74 1761.98 974.58C1762.58 974.42 1763.16 974.34 1763.74 974.34C1764.19 974.34 1764.64 974.387 1765.08 974.48C1765.53 974.56 1765.94 974.707 1766.3 974.92C1766.67 975.133 1766.96 975.42 1767.18 975.78C1767.4 976.127 1767.52 976.56 1767.54 977.08C1767.55 977.587 1767.43 978.04 1767.18 978.44C1766.94 978.84 1766.54 979.16 1765.98 979.4C1766.71 979.573 1767.23 979.9 1767.54 980.38C1767.84 980.86 1768 981.407 1768 982.02C1768 982.593 1767.87 983.073 1767.62 983.46C1767.38 983.847 1767.05 984.167 1766.64 984.42C1766.24 984.673 1765.78 984.853 1765.28 984.96C1764.78 985.067 1764.28 985.12 1763.76 985.12ZM1773.59 985.12C1773.16 985.12 1772.73 985.067 1772.29 984.96C1771.85 984.84 1771.45 984.66 1771.09 984.42C1770.73 984.167 1770.44 983.847 1770.21 983.46C1770 983.06 1769.89 982.593 1769.89 982.06C1769.89 981.46 1770 980.96 1770.21 980.56C1770.44 980.16 1770.74 979.84 1771.11 979.6C1771.48 979.36 1771.91 979.193 1772.39 979.1C1772.87 978.993 1773.38 978.94 1773.91 978.94H1777.25C1777.25 978.287 1777.16 977.713 1776.97 977.22C1776.8 976.713 1776.5 976.313 1776.09 976.02C1775.69 975.727 1775.15 975.58 1774.47 975.58C1774.11 975.58 1773.76 975.62 1773.43 975.7C1773.1 975.78 1772.8 975.913 1772.53 976.1C1772.28 976.273 1772.08 976.513 1771.93 976.82H1770.41C1770.53 976.353 1770.73 975.96 1771.01 975.64C1771.3 975.32 1771.64 975.067 1772.03 974.88C1772.42 974.68 1772.82 974.54 1773.25 974.46C1773.68 974.38 1774.08 974.34 1774.47 974.34C1775.47 974.34 1776.28 974.547 1776.89 974.96C1777.5 975.36 1777.94 975.933 1778.21 976.68C1778.49 977.413 1778.63 978.28 1778.63 979.28L1778.63 985H1777.41L1777.35 983.56C1777.06 983.96 1776.7 984.273 1776.29 984.5C1775.89 984.727 1775.46 984.887 1774.99 984.98C1774.54 985.073 1774.07 985.12 1773.59 985.12ZM1773.73 983.88C1774.38 983.88 1774.98 983.773 1775.51 983.56C1776.04 983.333 1776.46 983 1776.77 982.56C1777.09 982.12 1777.25 981.573 1777.25 980.92L1777.25 980.12H1774.89C1774.48 980.12 1774.06 980.133 1773.63 980.16C1773.2 980.173 1772.82 980.24 1772.47 980.36C1772.12 980.467 1771.84 980.647 1771.63 980.9C1771.42 981.14 1771.31 981.487 1771.31 981.94C1771.31 982.393 1771.42 982.767 1771.65 983.06C1771.88 983.34 1772.18 983.547 1772.55 983.68C1772.92 983.813 1773.32 983.88 1773.73 983.88ZM1781.34 985L1781.34 974.46H1782.76L1782.76 979.22H1788.56L1788.56 974.46H1789.96L1789.96 985H1788.56L1788.56 980.44H1782.76L1782.76 985H1781.34ZM1792.73 985L1792.73 974.46H1794.17L1794.17 978.6H1796.19C1796.79 978.6 1797.34 978.647 1797.85 978.74C1798.36 978.833 1798.8 978.993 1799.17 979.22C1799.56 979.447 1799.86 979.76 1800.07 980.16C1800.28 980.547 1800.39 981.053 1800.39 981.68C1800.39 982.28 1800.28 982.793 1800.07 983.22C1799.87 983.633 1799.58 983.973 1799.21 984.24C1798.85 984.507 1798.42 984.7 1797.93 984.82C1797.44 984.94 1796.9 985 1796.33 985H1792.73ZM1794.17 983.78H1795.17C1795.64 983.78 1796.09 983.767 1796.53 983.74C1796.98 983.713 1797.39 983.64 1797.75 983.52C1798.11 983.387 1798.4 983.18 1798.61 982.9C1798.84 982.62 1798.95 982.233 1798.95 981.74C1798.95 981.287 1798.86 980.933 1798.67 980.68C1798.5 980.427 1798.26 980.24 1797.97 980.12C1797.68 979.987 1797.35 979.907 1796.99 979.88C1796.64 979.84 1796.3 979.82 1795.97 979.82H1794.17L1794.17 983.78ZM1802.07 985L1802.07 974.46H1803.49L1803.49 985H1802.07ZM1811.64 985L1811.64 974.46H1815.7C1816.14 974.46 1816.58 974.493 1817.04 974.56C1817.49 974.613 1817.9 974.733 1818.28 974.92C1818.66 975.093 1818.97 975.353 1819.2 975.7C1819.44 976.033 1819.56 976.487 1819.56 977.06C1819.56 977.367 1819.5 977.667 1819.4 977.96C1819.29 978.253 1819.12 978.52 1818.9 978.76C1818.68 979 1818.38 979.2 1818 979.36C1818.76 979.52 1819.31 979.833 1819.66 980.3C1820 980.753 1820.18 981.3 1820.18 981.94C1820.18 982.473 1820.08 982.933 1819.88 983.32C1819.69 983.707 1819.42 984.027 1819.08 984.28C1818.74 984.52 1818.35 984.7 1817.9 984.82C1817.46 984.94 1816.99 985 1816.5 985H1811.64ZM1813.08 983.78H1816.12C1816.54 983.78 1816.96 983.74 1817.36 983.66C1817.77 983.567 1818.1 983.4 1818.36 983.16C1818.62 982.907 1818.76 982.54 1818.76 982.06C1818.76 981.607 1818.66 981.26 1818.46 981.02C1818.26 980.767 1818 980.587 1817.68 980.48C1817.36 980.373 1817.01 980.307 1816.64 980.28C1816.26 980.253 1815.91 980.24 1815.58 980.24H1813.08L1813.08 983.78ZM1813.08 979.06H1815C1815.29 979.06 1815.62 979.04 1815.98 979C1816.34 978.96 1816.68 978.88 1817.02 978.76C1817.35 978.64 1817.62 978.467 1817.84 978.24C1818.05 978 1818.16 977.687 1818.16 977.3C1818.16 976.767 1818.01 976.393 1817.72 976.18C1817.44 975.953 1817.09 975.813 1816.68 975.76C1816.28 975.707 1815.89 975.68 1815.52 975.68H1813.08L1813.08 979.06ZM1827.96 985L1827.96 974.46H1829.94L1833.58 980.16L1837.2 974.46H1839.14L1839.14 985H1837.74L1837.74 975.94L1833.76 982.28H1833.34L1829.36 975.94L1829.36 985H1827.96ZM1841.91 985L1841.91 974.46H1843.89L1847.53 980.16L1851.15 974.46H1853.09L1853.09 985H1851.69L1851.69 975.94L1847.71 982.28H1847.29L1843.31 975.94L1843.31 985H1841.91Z" fill="#A3A3A1"/>
<path d="M990.414 224.5C983.914 213.242 976.92 197 973.914 197C966.914 215.5 937.609 246.1 933.914 252.5C930.914 260.5 930.914 266 935.414 275C928.873 280.887 912.414 290 909.414 310.5C902.914 310.5 862.914 333.546 872.414 350C879.92 363 890.914 354.5 894.914 359.5C904.414 375.954 862.914 388 862.914 401C862.914 414 881.414 412.5 885.414 421C863.914 435.5 837.414 440 842.914 462C838.414 462 796.414 479.5 796.414 497C796.414 511.5 808.414 509 808.414 514.5C808.414 521 793.338 528.5 796.414 540C804.42 567 837.967 553 840.914 564C841.45 566 799.926 589 801.42 600C814.42 633 851.42 614 855.42 615.5C859.42 617 852.92 628.262 868.92 637.5C881.42 644.717 896.92 632.426 897.914 633C904.42 636.756 892.42 652 912.414 661.5C914.414 668.964 902.414 697 897.914 701.5H1037.41C1032.41 692.84 1023.92 677 1025.41 661.5C1048.42 650.5 1036.42 637 1042.41 635.5C1058.87 645 1074.92 645.5 1086.41 619C1113.91 626.369 1133.49 622 1137.91 605.5C1142.34 589 1091.92 570.5 1099.42 563C1106.92 555.5 1133.42 567.5 1144.42 545.5C1149.92 534.5 1132.92 522 1134.42 517.5C1138.42 512.5 1143.43 510 1145.42 506C1151.92 479 1101.41 467.83 1098.91 463.5C1097.42 460.912 1101.42 456.5 1099.42 448.5C1097.29 440 1054.42 426.5 1058.91 421C1064.42 416.5 1079.41 408.464 1081.41 401C1083.41 393.536 1041.77 374.5 1048.41 363C1051.92 356.928 1067.92 363.5 1073.41 355C1083.42 333 1045.92 312 1037.41 310.5C1034.42 303.5 1027.92 283.5 1011.41 275C1025.27 251 996.914 235.758 990.414 224.5Z" fill="#D9D9D9"/>
<rect x="852.42" y="701" width="230" height="92" rx="16" fill="#D9D9D9"/>
<path d="M896.95 507.551C896.95 506.721 897.131 505.964 897.492 505.28C897.854 504.597 898.396 504.011 899.118 503.522C899.841 503.024 900.739 502.644 901.813 502.38C902.897 502.106 904.157 501.97 905.593 501.97C906.657 501.97 907.775 502.048 908.947 502.204C910.129 502.36 911.345 502.6 912.595 502.922C912.546 502.375 912.38 501.872 912.097 501.413C911.813 500.944 911.418 500.544 910.91 500.212C910.412 499.87 909.807 499.606 909.094 499.421C908.391 499.235 907.59 499.143 906.691 499.143C906.203 499.143 905.666 499.172 905.08 499.23C904.494 499.289 903.889 499.377 903.264 499.494C902.639 499.611 902.019 499.758 901.403 499.934C900.798 500.109 900.231 500.319 899.704 500.563L898.386 497.004C899.04 496.77 899.738 496.555 900.48 496.359C901.232 496.164 901.999 495.998 902.78 495.861C903.562 495.715 904.343 495.603 905.124 495.524C905.905 495.446 906.662 495.407 907.395 495.407C910.627 495.407 913.029 496.232 914.602 497.883C916.174 499.533 916.96 502.062 916.96 505.471V513H912.624V511.374C912.175 511.638 911.682 511.887 911.145 512.121C910.617 512.355 910.041 512.561 909.416 512.736C908.791 512.912 908.117 513.049 907.395 513.146C906.682 513.254 905.925 513.308 905.124 513.308C903.776 513.308 902.59 513.161 901.564 512.868C900.549 512.575 899.699 512.17 899.016 511.652C898.332 511.135 897.814 510.529 897.463 509.836C897.121 509.133 896.95 508.371 896.95 507.551ZM901.521 507.404C901.521 507.688 901.594 507.961 901.74 508.225C901.887 508.479 902.121 508.708 902.443 508.913C902.766 509.108 903.176 509.27 903.674 509.396C904.182 509.514 904.792 509.572 905.505 509.572C906.267 509.572 907.004 509.504 907.717 509.367C908.43 509.23 909.094 509.05 909.709 508.825C910.324 508.601 910.881 508.342 911.379 508.049C911.877 507.756 912.292 507.453 912.624 507.141V506.379C911.96 506.193 911.301 506.037 910.646 505.91C910.002 505.783 909.382 505.686 908.786 505.617C908.2 505.539 907.644 505.485 907.116 505.456C906.599 505.427 906.145 505.412 905.754 505.412C904.943 505.412 904.27 505.466 903.732 505.573C903.195 505.681 902.761 505.827 902.429 506.013C902.097 506.188 901.862 506.398 901.726 506.643C901.589 506.887 901.521 507.141 901.521 507.404ZM922.79 510.466C922.79 510.075 922.868 509.709 923.024 509.367C923.19 509.016 923.425 508.713 923.728 508.459C924.03 508.195 924.396 507.99 924.826 507.844C925.256 507.697 925.739 507.624 926.276 507.624C926.813 507.624 927.297 507.697 927.727 507.844C928.156 507.99 928.518 508.195 928.811 508.459C929.113 508.713 929.343 509.016 929.499 509.367C929.665 509.709 929.748 510.075 929.748 510.466C929.748 510.856 929.665 511.228 929.499 511.579C929.343 511.921 929.113 512.219 928.811 512.473C928.518 512.727 928.156 512.927 927.727 513.073C927.297 513.229 926.813 513.308 926.276 513.308C925.739 513.308 925.256 513.229 924.826 513.073C924.396 512.927 924.03 512.727 923.728 512.473C923.425 512.219 923.19 511.921 923.024 511.579C922.868 511.228 922.79 510.856 922.79 510.466ZM954.665 490.969C956.003 490.969 957.253 491.096 958.415 491.35C959.577 491.594 960.637 491.936 961.594 492.375C962.561 492.805 963.42 493.317 964.172 493.913C964.924 494.509 965.559 495.158 966.076 495.861C966.594 496.555 966.984 497.287 967.248 498.059C967.521 498.82 967.658 499.592 967.658 500.373C967.658 501.174 967.536 501.975 967.292 502.775C967.058 503.576 966.687 504.343 966.179 505.075C965.681 505.798 965.041 506.477 964.26 507.111C963.488 507.736 962.556 508.278 961.462 508.737C960.378 509.196 959.133 509.558 957.727 509.821C956.33 510.085 954.758 510.217 953.01 510.217C950.92 510.217 949.05 510.021 947.399 509.631C945.759 509.23 944.309 508.713 943.049 508.078C941.799 507.434 940.72 506.711 939.812 505.91C938.913 505.109 938.151 504.299 937.526 503.479V516.765H933.542V491.525H937.526V493.269C937.526 494.382 937.639 495.393 937.863 496.301C938.088 497.209 938.337 497.99 938.61 498.645C938.894 499.299 939.152 499.816 939.387 500.197C939.621 500.568 939.753 500.773 939.782 500.812C942.487 504.826 946.896 506.833 953.01 506.833C954.748 506.833 956.262 506.652 957.551 506.291C958.84 505.93 959.909 505.451 960.759 504.855C961.618 504.25 962.258 503.562 962.678 502.79C963.098 502.009 963.308 501.203 963.308 500.373C963.308 499.719 963.151 499.04 962.839 498.337C962.536 497.624 962.043 496.975 961.359 496.389C960.676 495.793 959.782 495.305 958.679 494.924C957.585 494.543 956.247 494.353 954.665 494.353C951.804 494.353 949.323 494.904 947.224 496.008C945.124 497.102 943.4 498.752 942.053 500.959L939.167 499.187C939.548 498.562 939.997 497.927 940.515 497.282C941.032 496.628 941.623 495.998 942.287 495.393C942.951 494.777 943.698 494.206 944.528 493.679C945.368 493.142 946.296 492.673 947.312 492.272C948.337 491.872 949.455 491.555 950.666 491.32C951.887 491.086 953.22 490.969 954.665 490.969ZM970.339 507.551C970.339 506.721 970.52 505.964 970.881 505.28C971.242 504.597 971.784 504.011 972.507 503.522C973.229 503.024 974.128 502.644 975.202 502.38C976.286 502.106 977.546 501.97 978.981 501.97C980.046 501.97 981.164 502.048 982.336 502.204C983.518 502.36 984.733 502.6 985.983 502.922C985.935 502.375 985.769 501.872 985.485 501.413C985.202 500.944 984.807 500.544 984.299 500.212C983.801 499.87 983.195 499.606 982.482 499.421C981.779 499.235 980.979 499.143 980.08 499.143C979.592 499.143 979.055 499.172 978.469 499.23C977.883 499.289 977.277 499.377 976.652 499.494C976.027 499.611 975.407 499.758 974.792 499.934C974.187 500.109 973.62 500.319 973.093 500.563L971.774 497.004C972.429 496.77 973.127 496.555 973.869 496.359C974.621 496.164 975.388 495.998 976.169 495.861C976.95 495.715 977.731 495.603 978.513 495.524C979.294 495.446 980.051 495.407 980.783 495.407C984.016 495.407 986.418 496.232 987.99 497.883C989.562 499.533 990.349 502.062 990.349 505.471V513H986.013V511.374C985.563 511.638 985.07 511.887 984.533 512.121C984.006 512.355 983.43 512.561 982.805 512.736C982.18 512.912 981.506 513.049 980.783 513.146C980.07 513.254 979.313 513.308 978.513 513.308C977.165 513.308 975.979 513.161 974.953 512.868C973.938 512.575 973.088 512.17 972.404 511.652C971.721 511.135 971.203 510.529 970.852 509.836C970.51 509.133 970.339 508.371 970.339 507.551ZM974.909 507.404C974.909 507.688 974.982 507.961 975.129 508.225C975.275 508.479 975.51 508.708 975.832 508.913C976.154 509.108 976.564 509.27 977.062 509.396C977.57 509.514 978.181 509.572 978.894 509.572C979.655 509.572 980.393 509.504 981.105 509.367C981.818 509.23 982.482 509.05 983.098 508.825C983.713 508.601 984.27 508.342 984.768 508.049C985.266 507.756 985.681 507.453 986.013 507.141V506.379C985.349 506.193 984.689 506.037 984.035 505.91C983.391 505.783 982.771 505.686 982.175 505.617C981.589 505.539 981.032 505.485 980.505 505.456C979.987 505.427 979.533 505.412 979.143 505.412C978.332 505.412 977.658 505.466 977.121 505.573C976.584 505.681 976.149 505.827 975.817 506.013C975.485 506.188 975.251 506.398 975.114 506.643C974.978 506.887 974.909 507.141 974.909 507.404ZM996.091 495.715H1000.43V498.205C1001.38 497.492 1002.39 496.877 1003.46 496.359C1004.52 495.842 1005.58 495.446 1006.64 495.173L1007.91 499.143C1006.24 499.309 1004.77 499.685 1003.5 500.271C1002.24 500.847 1001.22 501.662 1000.43 502.717V513H996.091V495.715ZM1013.76 498.967H1009.58V495.715H1013.76V490.339H1018.09V495.715H1022.27V498.967H1018.09V513H1013.76V498.967ZM1026.81 507.697C1027.98 508.4 1029.27 508.918 1030.68 509.25C1032.08 509.582 1033.52 509.748 1035 509.748C1035.99 509.748 1036.82 509.68 1037.49 509.543C1038.15 509.406 1038.68 509.23 1039.08 509.016C1039.48 508.801 1039.77 508.557 1039.93 508.283C1040.1 508.01 1040.18 507.731 1040.18 507.448C1040.18 507.038 1040 506.687 1039.64 506.394C1039.29 506.101 1038.7 505.954 1037.88 505.954C1037.5 505.954 1037.09 505.979 1036.65 506.027C1036.21 506.076 1035.75 506.13 1035.26 506.188C1034.78 506.237 1034.28 506.286 1033.75 506.335C1033.23 506.384 1032.71 506.408 1032.17 506.408C1031 506.408 1030 506.281 1029.17 506.027C1028.35 505.773 1027.68 505.427 1027.16 504.987C1026.64 504.548 1026.27 504.03 1026.03 503.435C1025.8 502.829 1025.68 502.18 1025.68 501.486C1025.68 500.607 1025.89 499.797 1026.3 499.055C1026.71 498.312 1027.29 497.673 1028.05 497.136C1028.82 496.589 1029.73 496.164 1030.81 495.861C1031.89 495.559 1033.1 495.407 1034.43 495.407C1035.12 495.407 1035.84 495.451 1036.59 495.539C1037.36 495.617 1038.1 495.725 1038.83 495.861C1039.57 495.998 1040.27 496.159 1040.94 496.345C1041.62 496.521 1042.21 496.711 1042.73 496.916L1041.37 500.285C1040.27 499.875 1039.16 499.553 1038.06 499.318C1036.96 499.074 1035.84 498.952 1034.67 498.952C1033.86 498.952 1033.18 499.016 1032.61 499.143C1032.05 499.26 1031.6 499.421 1031.25 499.626C1030.9 499.821 1030.64 500.051 1030.47 500.314C1030.31 500.568 1030.24 500.837 1030.24 501.12C1030.24 501.325 1030.28 501.511 1030.35 501.677C1030.44 501.843 1030.58 501.989 1030.76 502.116C1030.96 502.233 1031.21 502.326 1031.51 502.395C1031.82 502.453 1032.2 502.482 1032.65 502.482C1033.06 502.482 1033.5 502.458 1033.96 502.409C1034.42 502.36 1034.89 502.312 1035.39 502.263C1035.89 502.204 1036.4 502.15 1036.93 502.102C1037.47 502.053 1038.01 502.028 1038.57 502.028C1039.61 502.028 1040.51 502.15 1041.28 502.395C1042.06 502.639 1042.71 502.98 1043.21 503.42C1043.72 503.859 1044.1 504.377 1044.36 504.973C1044.61 505.568 1044.74 506.218 1044.74 506.921C1044.74 507.829 1044.53 508.674 1044.11 509.455C1043.69 510.236 1043.06 510.915 1042.23 511.491C1041.4 512.058 1040.37 512.502 1039.13 512.824C1037.9 513.146 1036.47 513.308 1034.85 513.308C1033.85 513.308 1032.89 513.244 1031.96 513.117C1031.04 513 1030.15 512.839 1029.31 512.634C1028.47 512.419 1027.68 512.17 1026.94 511.887C1026.21 511.604 1025.54 511.301 1024.93 510.979L1026.81 507.697Z" fill="black"/>
<path d="M900.737 772.835H901.491C901.721 772.586 901.94 772.267 902.15 771.876C902.36 771.485 902.546 771.024 902.707 770.492C902.873 769.959 903.012 769.354 903.125 768.675C903.237 767.992 903.31 767.237 903.344 766.412L903.454 764.039H909.606V772.835H910.654V775.707H909.357V774H902.026V775.707H900.737V772.835ZM908.317 772.835V765.204H904.663L904.575 766.837C904.531 767.711 904.45 768.475 904.333 769.129C904.216 769.784 904.077 770.35 903.916 770.829C903.754 771.307 903.579 771.708 903.388 772.03C903.198 772.352 903.007 772.621 902.817 772.835H908.317ZM912.551 766.529H913.759V768.126C913.891 767.867 914.052 767.628 914.243 767.408C914.438 767.188 914.658 766.998 914.902 766.837C915.151 766.676 915.422 766.551 915.715 766.463C916.008 766.371 916.315 766.324 916.638 766.324C917.165 766.324 917.653 766.427 918.103 766.632C918.552 766.837 918.94 767.118 919.267 767.474C919.599 767.831 919.858 768.248 920.043 768.727C920.229 769.205 920.322 769.718 920.322 770.265C920.322 770.812 920.229 771.327 920.043 771.81C919.858 772.289 919.599 772.706 919.267 773.062C918.94 773.419 918.552 773.7 918.103 773.905C917.658 774.11 917.175 774.212 916.652 774.212C916.345 774.212 916.047 774.171 915.759 774.088C915.471 774.005 915.202 773.888 914.953 773.736C914.709 773.58 914.487 773.392 914.287 773.172C914.086 772.953 913.92 772.708 913.789 772.44L913.811 773.282V776.549H912.551V766.529ZM916.433 773.041C916.794 773.041 917.133 772.975 917.451 772.843C917.768 772.706 918.046 772.516 918.286 772.271C918.53 772.027 918.72 771.734 918.857 771.393C918.999 771.051 919.069 770.675 919.069 770.265C919.069 769.859 918.999 769.488 918.857 769.151C918.72 768.814 918.532 768.524 918.293 768.28C918.059 768.031 917.78 767.838 917.458 767.701C917.141 767.564 916.799 767.496 916.433 767.496C916.066 767.496 915.725 767.569 915.407 767.716C915.09 767.857 914.812 768.053 914.572 768.302C914.333 768.551 914.145 768.844 914.008 769.181C913.872 769.518 913.803 769.879 913.803 770.265C913.803 770.66 913.872 771.029 914.008 771.371C914.15 771.708 914.34 772 914.58 772.25C914.819 772.499 915.097 772.694 915.415 772.835C915.737 772.972 916.076 773.041 916.433 773.041ZM928.979 770.082C928.979 770.15 928.977 770.218 928.972 770.287C928.972 770.355 928.967 770.458 928.957 770.594H922.761C922.8 770.97 922.893 771.31 923.039 771.612C923.19 771.91 923.378 772.167 923.603 772.381C923.833 772.591 924.089 772.752 924.372 772.865C924.655 772.977 924.951 773.033 925.258 773.033C925.761 773.033 926.191 772.926 926.547 772.711C926.904 772.496 927.165 772.176 927.331 771.751H928.745C928.637 772.093 928.476 772.413 928.261 772.711C928.051 773.009 927.795 773.27 927.492 773.495C927.194 773.714 926.857 773.888 926.481 774.015C926.11 774.142 925.712 774.205 925.288 774.205C924.746 774.205 924.243 774.103 923.779 773.897C923.32 773.692 922.919 773.412 922.578 773.055C922.236 772.699 921.967 772.281 921.772 771.803C921.582 771.324 921.486 770.812 921.486 770.265C921.486 769.718 921.582 769.205 921.772 768.727C921.967 768.248 922.236 767.831 922.578 767.474C922.919 767.118 923.32 766.837 923.779 766.632C924.243 766.422 924.746 766.317 925.288 766.317C925.825 766.317 926.318 766.419 926.767 766.625C927.221 766.83 927.612 767.105 927.939 767.452C928.266 767.794 928.52 768.192 928.701 768.646C928.886 769.1 928.979 769.579 928.979 770.082ZM927.69 769.481C927.67 769.217 927.592 768.966 927.456 768.727C927.324 768.487 927.148 768.277 926.928 768.097C926.708 767.916 926.455 767.772 926.167 767.665C925.883 767.557 925.583 767.503 925.266 767.503C924.987 767.503 924.716 767.547 924.453 767.635C924.189 767.718 923.947 767.843 923.728 768.009C923.513 768.175 923.325 768.382 923.164 768.631C923.007 768.875 922.893 769.159 922.819 769.481H927.69ZM930.656 766.529H933.806C934.162 766.529 934.484 766.578 934.772 766.676C935.065 766.769 935.314 766.903 935.52 767.079C935.725 767.25 935.881 767.459 935.988 767.708C936.101 767.953 936.157 768.229 936.157 768.536C936.157 768.702 936.13 768.863 936.076 769.02C936.027 769.176 935.959 769.32 935.871 769.452C935.783 769.583 935.681 769.701 935.563 769.803C935.446 769.906 935.322 769.984 935.19 770.038C935.385 770.101 935.568 770.191 935.739 770.309C935.91 770.421 936.059 770.558 936.186 770.719C936.313 770.875 936.413 771.048 936.486 771.239C936.56 771.429 936.596 771.632 936.596 771.847C936.596 772.208 936.528 772.523 936.391 772.792C936.259 773.06 936.081 773.285 935.856 773.465C935.632 773.646 935.373 773.78 935.08 773.868C934.792 773.956 934.492 774 934.179 774H930.656V766.529ZM933.835 769.649C934.177 769.649 934.445 769.559 934.641 769.378C934.836 769.193 934.934 768.934 934.934 768.602C934.934 768.29 934.829 768.045 934.619 767.87C934.409 767.694 934.121 767.606 933.754 767.606H931.923V769.649H933.835ZM934.069 772.923C934.47 772.923 934.782 772.826 935.007 772.63C935.231 772.43 935.344 772.154 935.344 771.803C935.344 771.441 935.236 771.161 935.021 770.96C934.807 770.76 934.504 770.66 934.113 770.66H931.923V772.923H934.069ZM945.253 770.082C945.253 770.15 945.251 770.218 945.246 770.287C945.246 770.355 945.241 770.458 945.231 770.594H939.035C939.074 770.97 939.167 771.31 939.313 771.612C939.465 771.91 939.653 772.167 939.877 772.381C940.107 772.591 940.363 772.752 940.646 772.865C940.93 772.977 941.225 773.033 941.533 773.033C942.036 773.033 942.465 772.926 942.822 772.711C943.178 772.496 943.439 772.176 943.605 771.751H945.019C944.912 772.093 944.75 772.413 944.536 772.711C944.326 773.009 944.069 773.27 943.767 773.495C943.469 773.714 943.132 773.888 942.756 774.015C942.385 774.142 941.987 774.205 941.562 774.205C941.02 774.205 940.517 774.103 940.053 773.897C939.594 773.692 939.194 773.412 938.852 773.055C938.51 772.699 938.242 772.281 938.046 771.803C937.856 771.324 937.761 770.812 937.761 770.265C937.761 769.718 937.856 769.205 938.046 768.727C938.242 768.248 938.51 767.831 938.852 767.474C939.194 767.118 939.594 766.837 940.053 766.632C940.517 766.422 941.02 766.317 941.562 766.317C942.099 766.317 942.592 766.419 943.042 766.625C943.496 766.83 943.886 767.105 944.213 767.452C944.541 767.794 944.794 768.192 944.975 768.646C945.161 769.1 945.253 769.579 945.253 770.082ZM943.964 769.481C943.945 769.217 943.867 768.966 943.73 768.727C943.598 768.487 943.422 768.277 943.203 768.097C942.983 767.916 942.729 767.772 942.441 767.665C942.158 767.557 941.857 767.503 941.54 767.503C941.262 767.503 940.991 767.547 940.727 767.635C940.463 767.718 940.222 767.843 940.002 768.009C939.787 768.175 939.599 768.382 939.438 768.631C939.282 768.875 939.167 769.159 939.094 769.481H943.964ZM950.117 774.212C949.575 774.212 949.072 774.11 948.608 773.905C948.144 773.695 947.741 773.412 947.399 773.055C947.058 772.699 946.789 772.281 946.594 771.803C946.398 771.324 946.301 770.812 946.301 770.265C946.301 769.718 946.398 769.205 946.594 768.727C946.789 768.248 947.058 767.831 947.399 767.474C947.741 767.118 948.144 766.837 948.608 766.632C949.072 766.422 949.575 766.317 950.117 766.317C950.561 766.317 950.976 766.383 951.362 766.515C951.752 766.646 952.102 766.832 952.409 767.071C952.717 767.306 952.98 767.586 953.2 767.914C953.42 768.236 953.586 768.59 953.698 768.976H952.402C952.304 768.731 952.177 768.519 952.021 768.338C951.87 768.153 951.694 767.999 951.494 767.877C951.298 767.755 951.083 767.662 950.849 767.599C950.62 767.535 950.378 767.503 950.124 767.503C949.797 767.503 949.479 767.567 949.172 767.694C948.864 767.821 948.591 768.004 948.352 768.243C948.112 768.482 947.919 768.773 947.773 769.115C947.631 769.457 947.561 769.84 947.561 770.265C947.561 770.694 947.634 771.08 947.78 771.422C947.927 771.764 948.12 772.054 948.359 772.293C948.598 772.533 948.872 772.716 949.179 772.843C949.487 772.97 949.802 773.033 950.124 773.033C950.373 773.033 950.615 773.001 950.849 772.938C951.083 772.875 951.298 772.779 951.494 772.652C951.694 772.521 951.87 772.359 952.021 772.169C952.177 771.974 952.304 771.749 952.402 771.495H953.691C953.583 771.896 953.42 772.264 953.2 772.601C952.98 772.933 952.717 773.219 952.409 773.458C952.102 773.697 951.752 773.883 951.362 774.015C950.976 774.146 950.561 774.212 950.117 774.212ZM955.383 766.522H956.635V769.613H960.751V766.522H962.004V774H960.751V770.777H956.635V774H955.383V766.522ZM967.402 774.212C966.889 774.212 966.413 774.11 965.974 773.905C965.534 773.7 965.153 773.419 964.831 773.062C964.509 772.706 964.255 772.289 964.069 771.81C963.884 771.327 963.791 770.812 963.791 770.265C963.791 769.718 963.884 769.205 964.069 768.727C964.255 768.248 964.509 767.831 964.831 767.474C965.153 767.118 965.534 766.837 965.974 766.632C966.413 766.427 966.887 766.324 967.395 766.324C967.731 766.324 968.051 766.366 968.354 766.449C968.657 766.532 968.935 766.654 969.189 766.815C969.448 766.971 969.675 767.162 969.87 767.386C970.07 767.606 970.234 767.855 970.361 768.133V766.529H971.569V774H970.361V772.411C970.234 772.689 970.07 772.94 969.87 773.165C969.675 773.385 969.448 773.573 969.189 773.729C968.935 773.885 968.657 774.005 968.354 774.088C968.051 774.171 967.734 774.212 967.402 774.212ZM967.68 773.033C968.046 773.033 968.388 772.962 968.706 772.821C969.028 772.679 969.309 772.484 969.548 772.235C969.787 771.986 969.975 771.693 970.112 771.356C970.249 771.019 970.317 770.655 970.317 770.265C970.317 769.879 970.249 769.518 970.112 769.181C969.975 768.844 969.787 768.551 969.548 768.302C969.309 768.053 969.028 767.857 968.706 767.716C968.388 767.574 968.049 767.503 967.688 767.503C967.321 767.503 966.977 767.572 966.655 767.708C966.337 767.845 966.059 768.036 965.82 768.28C965.581 768.524 965.39 768.814 965.249 769.151C965.112 769.488 965.043 769.859 965.043 770.265C965.043 770.68 965.112 771.058 965.249 771.4C965.39 771.737 965.581 772.027 965.82 772.271C966.064 772.511 966.345 772.699 966.662 772.835C966.984 772.967 967.324 773.033 967.68 773.033ZM975.319 771.305C975.08 771.227 974.86 771.117 974.66 770.975C974.465 770.829 974.296 770.658 974.155 770.462C974.018 770.262 973.911 770.042 973.833 769.803C973.759 769.559 973.723 769.298 973.723 769.02C973.723 768.658 973.786 768.326 973.913 768.023C974.045 767.716 974.226 767.452 974.455 767.232C974.685 767.008 974.958 766.834 975.275 766.712C975.598 766.585 975.949 766.522 976.33 766.522H979.443V774H978.19V771.51H976.542L974.821 774H973.408L975.319 771.305ZM978.19 770.433V767.591H976.374C976.174 767.591 975.986 767.63 975.81 767.708C975.639 767.782 975.49 767.884 975.363 768.016C975.241 768.143 975.144 768.294 975.07 768.47C975.002 768.641 974.968 768.824 974.968 769.02C974.968 769.22 975.002 769.405 975.07 769.576C975.144 769.747 975.241 769.896 975.363 770.023C975.49 770.15 975.639 770.25 975.81 770.323C975.981 770.396 976.164 770.433 976.359 770.433H978.19ZM988.049 767.591V771.451C988.049 771.964 988.134 772.34 988.305 772.579C988.476 772.818 988.776 772.938 989.206 772.938H989.47V774H988.979C988.247 774 987.697 773.795 987.331 773.385C986.965 772.975 986.782 772.333 986.782 771.458V767.591H984.489V766.522H990.268V767.591H988.049ZM991.887 766.522H993.154V771.942H993.161L997.46 766.522H998.596V774H997.329V768.595H997.321L993.037 774H991.887V766.522ZM1001.01 766.529H1002.27V772.909H1005.81V766.529H1007.08V772.909H1010.61V766.529H1011.88V774H1001.01V766.529ZM1014.3 766.522H1015.57V771.942H1015.57L1019.87 766.522H1021.01V774H1019.74V768.595H1019.73L1015.45 774H1014.3V766.522ZM1023.42 766.522H1024.68V769.613H1028.79V766.522H1030.05V774H1028.79V770.777H1024.68V774H1023.42V766.522ZM1035.44 774.212C1034.93 774.212 1034.46 774.11 1034.02 773.905C1033.58 773.7 1033.2 773.419 1032.87 773.062C1032.55 772.706 1032.3 772.289 1032.11 771.81C1031.93 771.327 1031.83 770.812 1031.83 770.265C1031.83 769.718 1031.93 769.205 1032.11 768.727C1032.3 768.248 1032.55 767.831 1032.87 767.474C1033.2 767.118 1033.58 766.837 1034.02 766.632C1034.46 766.427 1034.93 766.324 1035.44 766.324C1035.77 766.324 1036.09 766.366 1036.4 766.449C1036.7 766.532 1036.98 766.654 1037.23 766.815C1037.49 766.971 1037.72 767.162 1037.91 767.386C1038.11 767.606 1038.28 767.855 1038.4 768.133V766.529H1039.61V774H1038.4V772.411C1038.28 772.689 1038.11 772.94 1037.91 773.165C1037.72 773.385 1037.49 773.573 1037.23 773.729C1036.98 773.885 1036.7 774.005 1036.4 774.088C1036.09 774.171 1035.78 774.212 1035.44 774.212ZM1035.72 773.033C1036.09 773.033 1036.43 772.962 1036.75 772.821C1037.07 772.679 1037.35 772.484 1037.59 772.235C1037.83 771.986 1038.02 771.693 1038.15 771.356C1038.29 771.019 1038.36 770.655 1038.36 770.265C1038.36 769.879 1038.29 769.518 1038.15 769.181C1038.02 768.844 1037.83 768.551 1037.59 768.302C1037.35 768.053 1037.07 767.857 1036.75 767.716C1036.43 767.574 1036.09 767.503 1035.73 767.503C1035.36 767.503 1035.02 767.572 1034.7 767.708C1034.38 767.845 1034.1 768.036 1033.86 768.28C1033.62 768.524 1033.43 768.814 1033.29 769.151C1033.15 769.488 1033.09 769.859 1033.09 770.265C1033.09 770.68 1033.15 771.058 1033.29 771.4C1033.43 771.737 1033.62 772.027 1033.86 772.271C1034.11 772.511 1034.39 772.699 1034.7 772.835C1035.03 772.967 1035.37 773.033 1035.72 773.033Z" fill="black"/>
<path d="M668 197L1281 197" stroke="black"/>
<path d="M668 793L1281 793" stroke="black"/>
<path d="M1146 172L1146 825" stroke="black"/>
<path d="M796 172L796 825" stroke="black"/>
<path d="M1163.07 430.41L1159.84 431.746V430.469L1163.25 429.051H1164.46L1164.46 445H1163.07L1163.07 430.41ZM1167.77 444.086L1173.59 438.777C1174.06 438.348 1174.49 437.938 1174.89 437.547C1175.29 437.156 1175.63 436.766 1175.92 436.375C1176.21 435.984 1176.44 435.586 1176.6 435.18C1176.77 434.773 1176.85 434.336 1176.85 433.867C1176.85 433.328 1176.75 432.832 1176.55 432.379C1176.36 431.926 1176.09 431.539 1175.76 431.219C1175.42 430.898 1175.03 430.648 1174.57 430.469C1174.13 430.289 1173.65 430.199 1173.14 430.199C1172.65 430.199 1172.18 430.289 1171.71 430.469C1171.26 430.641 1170.86 430.902 1170.51 431.254C1170.16 431.598 1169.88 432.023 1169.66 432.531C1169.45 433.039 1169.35 433.625 1169.35 434.289H1167.96C1167.96 433.523 1168.09 432.812 1168.34 432.156C1168.6 431.5 1168.95 430.93 1169.41 430.445C1169.86 429.961 1170.4 429.582 1171.02 429.309C1171.66 429.035 1172.35 428.898 1173.11 428.898C1173.84 428.898 1174.52 429.023 1175.15 429.273C1175.77 429.523 1176.31 429.871 1176.77 430.316C1177.23 430.762 1177.59 431.289 1177.84 431.898C1178.1 432.5 1178.23 433.156 1178.23 433.867C1178.23 434.43 1178.14 434.949 1177.97 435.426C1177.81 435.895 1177.58 436.348 1177.28 436.785C1176.99 437.215 1176.64 437.637 1176.24 438.051C1175.83 438.457 1175.39 438.871 1174.91 439.293L1169.83 443.875L1170.59 443.77H1178.45V445H1167.77V444.086ZM1187 445.316C1185.93 445.316 1185 445.098 1184.18 444.66C1183.38 444.223 1182.7 443.633 1182.14 442.891C1181.6 442.141 1181.18 441.27 1180.9 440.277C1180.62 439.285 1180.48 438.23 1180.48 437.113C1180.48 435.949 1180.63 434.859 1180.93 433.844C1181.22 432.82 1181.65 431.93 1182.21 431.172C1182.78 430.414 1183.46 429.82 1184.25 429.391C1185.06 428.953 1185.96 428.734 1186.97 428.734C1188.1 428.734 1189.07 428.965 1189.89 429.426C1190.71 429.887 1191.39 430.504 1191.92 431.277C1192.45 432.051 1192.84 432.938 1193.1 433.938C1193.36 434.938 1193.49 435.977 1193.49 437.055C1193.49 438.188 1193.34 439.258 1193.05 440.266C1192.77 441.266 1192.36 442.141 1191.8 442.891C1191.25 443.641 1190.58 444.234 1189.77 444.672C1188.97 445.102 1188.04 445.316 1187 445.316ZM1187 444.016C1187.8 444.016 1188.52 443.836 1189.15 443.477C1189.79 443.117 1190.32 442.625 1190.76 442C1191.2 441.375 1191.53 440.641 1191.75 439.797C1191.99 438.945 1192.11 438.031 1192.11 437.055C1192.11 436.117 1192 435.223 1191.78 434.371C1191.57 433.52 1191.25 432.773 1190.82 432.133C1190.39 431.492 1189.86 430.984 1189.22 430.609C1188.58 430.227 1187.83 430.035 1186.97 430.035C1186.2 430.035 1185.5 430.215 1184.86 430.574C1184.24 430.934 1183.7 431.43 1183.26 432.062C1182.81 432.688 1182.47 433.434 1182.23 434.301C1181.98 435.16 1181.86 436.094 1181.86 437.102C1181.86 438.07 1181.98 438.977 1182.2 439.82C1182.44 440.656 1182.77 441.387 1183.21 442.012C1183.65 442.629 1184.18 443.117 1184.82 443.477C1185.46 443.836 1186.18 444.016 1187 444.016Z" fill="#211F22"/>
<path d="M966.383 189.316C965.586 189.316 964.848 189.195 964.168 188.953C963.488 188.711 962.902 188.379 962.41 187.957C961.918 187.535 961.531 187.035 961.25 186.457C960.977 185.879 960.84 185.25 960.84 184.57C960.84 184.031 960.926 183.523 961.098 183.047C961.277 182.57 961.52 182.141 961.824 181.758C962.137 181.375 962.5 181.047 962.914 180.773C963.336 180.5 963.785 180.293 964.262 180.152C963.902 180.035 963.574 179.867 963.277 179.648C962.98 179.43 962.723 179.176 962.504 178.887C962.293 178.59 962.125 178.262 962 177.902C961.883 177.543 961.824 177.168 961.824 176.777C961.824 176.191 961.941 175.652 962.176 175.16C962.418 174.668 962.746 174.242 963.16 173.883C963.574 173.523 964.059 173.246 964.613 173.051C965.168 172.848 965.762 172.746 966.395 172.746C967.027 172.746 967.621 172.844 968.176 173.039C968.73 173.234 969.211 173.508 969.617 173.859C970.031 174.211 970.355 174.633 970.59 175.125C970.824 175.609 970.941 176.145 970.941 176.73C970.941 177.121 970.879 177.5 970.754 177.867C970.629 178.227 970.457 178.559 970.238 178.863C970.027 179.168 969.773 179.434 969.477 179.66C969.18 179.879 968.855 180.043 968.504 180.152C968.996 180.277 969.449 180.477 969.863 180.75C970.285 181.023 970.648 181.352 970.953 181.734C971.258 182.117 971.496 182.551 971.668 183.035C971.848 183.512 971.937 184.023 971.937 184.57C971.937 185.25 971.797 185.879 971.516 186.457C971.234 187.035 970.848 187.535 970.355 187.957C969.863 188.379 969.277 188.711 968.598 188.953C967.918 189.195 967.18 189.316 966.383 189.316ZM966.383 179.625C966.844 179.625 967.27 179.551 967.66 179.402C968.051 179.254 968.391 179.051 968.68 178.793C968.969 178.535 969.191 178.234 969.348 177.891C969.512 177.547 969.594 177.176 969.594 176.777C969.594 176.387 969.508 176.02 969.336 175.676C969.172 175.324 968.945 175.02 968.656 174.762C968.375 174.504 968.039 174.301 967.648 174.152C967.258 173.996 966.84 173.918 966.395 173.918C965.941 173.918 965.516 173.996 965.117 174.152C964.727 174.301 964.387 174.504 964.098 174.762C963.809 175.02 963.582 175.324 963.418 175.676C963.254 176.02 963.172 176.387 963.172 176.777C963.172 177.176 963.25 177.547 963.406 177.891C963.57 178.234 963.793 178.535 964.074 178.793C964.355 179.051 964.691 179.254 965.082 179.402C965.48 179.551 965.914 179.625 966.383 179.625ZM966.383 188.121C966.961 188.121 967.504 188.031 968.012 187.852C968.52 187.672 968.965 187.422 969.348 187.102C969.73 186.773 970.031 186.391 970.25 185.953C970.469 185.516 970.578 185.039 970.578 184.523C970.578 184 970.469 183.512 970.25 183.059C970.031 182.605 969.73 182.215 969.348 181.887C968.965 181.551 968.52 181.289 968.012 181.102C967.504 180.906 966.961 180.809 966.383 180.809C965.805 180.809 965.262 180.906 964.754 181.102C964.246 181.289 963.801 181.551 963.418 181.887C963.043 182.215 962.746 182.605 962.527 183.059C962.309 183.512 962.199 184 962.199 184.523C962.199 185.039 962.309 185.516 962.527 185.953C962.746 186.391 963.043 186.773 963.418 187.102C963.801 187.422 964.246 187.672 964.754 187.852C965.262 188.031 965.805 188.121 966.383 188.121ZM980.527 189.316C979.465 189.316 978.527 189.098 977.715 188.66C976.91 188.223 976.23 187.633 975.676 186.891C975.129 186.141 974.715 185.27 974.434 184.277C974.152 183.285 974.012 182.23 974.012 181.113C974.012 179.949 974.16 178.859 974.457 177.844C974.754 176.82 975.184 175.93 975.746 175.172C976.309 174.414 976.988 173.82 977.785 173.391C978.59 172.953 979.496 172.734 980.504 172.734C981.629 172.734 982.602 172.965 983.422 173.426C984.242 173.887 984.918 174.504 985.449 175.277C985.98 176.051 986.375 176.938 986.633 177.938C986.891 178.938 987.02 179.977 987.02 181.055C987.02 182.188 986.875 183.258 986.586 184.266C986.305 185.266 985.887 186.141 985.332 186.891C984.785 187.641 984.109 188.234 983.305 188.672C982.5 189.102 981.574 189.316 980.527 189.316ZM980.527 188.016C981.332 188.016 982.051 187.836 982.684 187.477C983.316 187.117 983.852 186.625 984.289 186C984.727 185.375 985.059 184.641 985.285 183.797C985.52 182.945 985.637 182.031 985.637 181.055C985.637 180.117 985.527 179.223 985.309 178.371C985.098 177.52 984.777 176.773 984.348 176.133C983.926 175.492 983.395 174.984 982.754 174.609C982.113 174.227 981.363 174.035 980.504 174.035C979.73 174.035 979.027 174.215 978.395 174.574C977.77 174.934 977.234 175.43 976.789 176.062C976.344 176.688 976 177.434 975.758 178.301C975.516 179.16 975.395 180.094 975.395 181.102C975.395 182.07 975.508 182.977 975.734 183.82C975.969 184.656 976.305 185.387 976.742 186.012C977.18 186.629 977.715 187.117 978.348 187.477C978.988 187.836 979.715 188.016 980.527 188.016Z" fill="#211F22"/>
<path d="M963.383 814.316C962.586 814.316 961.848 814.195 961.168 813.953C960.488 813.711 959.902 813.379 959.41 812.957C958.918 812.535 958.531 812.035 958.25 811.457C957.977 810.879 957.84 810.25 957.84 809.57C957.84 809.031 957.926 808.523 958.098 808.047C958.277 807.57 958.52 807.141 958.824 806.758C959.137 806.375 959.5 806.047 959.914 805.773C960.336 805.5 960.785 805.293 961.262 805.152C960.902 805.035 960.574 804.867 960.277 804.648C959.98 804.43 959.723 804.176 959.504 803.887C959.293 803.59 959.125 803.262 959 802.902C958.883 802.543 958.824 802.168 958.824 801.777C958.824 801.191 958.941 800.652 959.176 800.16C959.418 799.668 959.746 799.242 960.16 798.883C960.574 798.523 961.059 798.246 961.613 798.051C962.168 797.848 962.762 797.746 963.395 797.746C964.027 797.746 964.621 797.844 965.176 798.039C965.73 798.234 966.211 798.508 966.617 798.859C967.031 799.211 967.355 799.633 967.59 800.125C967.824 800.609 967.941 801.145 967.941 801.73C967.941 802.121 967.879 802.5 967.754 802.867C967.629 803.227 967.457 803.559 967.238 803.863C967.027 804.168 966.773 804.434 966.477 804.66C966.18 804.879 965.855 805.043 965.504 805.152C965.996 805.277 966.449 805.477 966.863 805.75C967.285 806.023 967.648 806.352 967.953 806.734C968.258 807.117 968.496 807.551 968.668 808.035C968.848 808.512 968.937 809.023 968.937 809.57C968.937 810.25 968.797 810.879 968.516 811.457C968.234 812.035 967.848 812.535 967.355 812.957C966.863 813.379 966.277 813.711 965.598 813.953C964.918 814.195 964.18 814.316 963.383 814.316ZM963.383 804.625C963.844 804.625 964.27 804.551 964.66 804.402C965.051 804.254 965.391 804.051 965.68 803.793C965.969 803.535 966.191 803.234 966.348 802.891C966.512 802.547 966.594 802.176 966.594 801.777C966.594 801.387 966.508 801.02 966.336 800.676C966.172 800.324 965.945 800.02 965.656 799.762C965.375 799.504 965.039 799.301 964.648 799.152C964.258 798.996 963.84 798.918 963.395 798.918C962.941 798.918 962.516 798.996 962.117 799.152C961.727 799.301 961.387 799.504 961.098 799.762C960.809 800.02 960.582 800.324 960.418 800.676C960.254 801.02 960.172 801.387 960.172 801.777C960.172 802.176 960.25 802.547 960.406 802.891C960.57 803.234 960.793 803.535 961.074 803.793C961.355 804.051 961.691 804.254 962.082 804.402C962.48 804.551 962.914 804.625 963.383 804.625ZM963.383 813.121C963.961 813.121 964.504 813.031 965.012 812.852C965.52 812.672 965.965 812.422 966.348 812.102C966.73 811.773 967.031 811.391 967.25 810.953C967.469 810.516 967.578 810.039 967.578 809.523C967.578 809 967.469 808.512 967.25 808.059C967.031 807.605 966.73 807.215 966.348 806.887C965.965 806.551 965.52 806.289 965.012 806.102C964.504 805.906 963.961 805.809 963.383 805.809C962.805 805.809 962.262 805.906 961.754 806.102C961.246 806.289 960.801 806.551 960.418 806.887C960.043 807.215 959.746 807.605 959.527 808.059C959.309 808.512 959.199 809 959.199 809.523C959.199 810.039 959.309 810.516 959.527 810.953C959.746 811.391 960.043 811.773 960.418 812.102C960.801 812.422 961.246 812.672 961.754 812.852C962.262 813.031 962.805 813.121 963.383 813.121ZM977.527 814.316C976.465 814.316 975.527 814.098 974.715 813.66C973.91 813.223 973.23 812.633 972.676 811.891C972.129 811.141 971.715 810.27 971.434 809.277C971.152 808.285 971.012 807.23 971.012 806.113C971.012 804.949 971.16 803.859 971.457 802.844C971.754 801.82 972.184 800.93 972.746 800.172C973.309 799.414 973.988 798.82 974.785 798.391C975.59 797.953 976.496 797.734 977.504 797.734C978.629 797.734 979.602 797.965 980.422 798.426C981.242 798.887 981.918 799.504 982.449 800.277C982.98 801.051 983.375 801.938 983.633 802.938C983.891 803.938 984.02 804.977 984.02 806.055C984.02 807.188 983.875 808.258 983.586 809.266C983.305 810.266 982.887 811.141 982.332 811.891C981.785 812.641 981.109 813.234 980.305 813.672C979.5 814.102 978.574 814.316 977.527 814.316ZM977.527 813.016C978.332 813.016 979.051 812.836 979.684 812.477C980.316 812.117 980.852 811.625 981.289 811C981.727 810.375 982.059 809.641 982.285 808.797C982.52 807.945 982.637 807.031 982.637 806.055C982.637 805.117 982.527 804.223 982.309 803.371C982.098 802.52 981.777 801.773 981.348 801.133C980.926 800.492 980.395 799.984 979.754 799.609C979.113 799.227 978.363 799.035 977.504 799.035C976.73 799.035 976.027 799.215 975.395 799.574C974.77 799.934 974.234 800.43 973.789 801.062C973.344 801.688 973 802.434 972.758 803.301C972.516 804.16 972.395 805.094 972.395 806.102C972.395 807.07 972.508 807.977 972.734 808.82C972.969 809.656 973.305 810.387 973.742 811.012C974.18 811.629 974.715 812.117 975.348 812.477C975.988 812.836 976.715 813.016 977.527 813.016Z" fill="#211F22"/>
<path d="M751.066 430.41L747.844 431.746V430.469L751.254 429.051H752.461L752.461 445H751.066L751.066 430.41ZM755.766 444.086L761.59 438.777C762.059 438.348 762.492 437.938 762.891 437.547C763.289 437.156 763.633 436.766 763.922 436.375C764.211 435.984 764.437 435.586 764.602 435.18C764.766 434.773 764.848 434.336 764.848 433.867C764.848 433.328 764.75 432.832 764.555 432.379C764.359 431.926 764.094 431.539 763.758 431.219C763.422 430.898 763.027 430.648 762.574 430.469C762.129 430.289 761.652 430.199 761.145 430.199C760.652 430.199 760.176 430.289 759.715 430.469C759.262 430.641 758.859 430.902 758.508 431.254C758.156 431.598 757.875 432.023 757.664 432.531C757.453 433.039 757.348 433.625 757.348 434.289H755.965C755.965 433.523 756.09 432.812 756.34 432.156C756.598 431.5 756.953 430.93 757.406 430.445C757.859 429.961 758.398 429.582 759.023 429.309C759.656 429.035 760.352 428.898 761.109 428.898C761.844 428.898 762.523 429.023 763.148 429.273C763.773 429.523 764.312 429.871 764.766 430.316C765.227 430.762 765.586 431.289 765.844 431.898C766.102 432.5 766.23 433.156 766.23 433.867C766.23 434.43 766.145 434.949 765.973 435.426C765.809 435.895 765.578 436.348 765.281 436.785C764.992 437.215 764.645 437.637 764.238 438.051C763.832 438.457 763.391 438.871 762.914 439.293L757.828 443.875L758.59 443.77H766.453V445H755.766V444.086ZM774.996 445.316C773.934 445.316 772.996 445.098 772.184 444.66C771.379 444.223 770.699 443.633 770.145 442.891C769.598 442.141 769.184 441.27 768.902 440.277C768.621 439.285 768.48 438.23 768.48 437.113C768.48 435.949 768.629 434.859 768.926 433.844C769.223 432.82 769.652 431.93 770.215 431.172C770.777 430.414 771.457 429.82 772.254 429.391C773.059 428.953 773.965 428.734 774.973 428.734C776.098 428.734 777.07 428.965 777.891 429.426C778.711 429.887 779.387 430.504 779.918 431.277C780.449 432.051 780.844 432.938 781.102 433.938C781.359 434.938 781.488 435.977 781.488 437.055C781.488 438.188 781.344 439.258 781.055 440.266C780.773 441.266 780.355 442.141 779.801 442.891C779.254 443.641 778.578 444.234 777.773 444.672C776.969 445.102 776.043 445.316 774.996 445.316ZM774.996 444.016C775.801 444.016 776.52 443.836 777.152 443.477C777.785 443.117 778.32 442.625 778.758 442C779.195 441.375 779.527 440.641 779.754 439.797C779.988 438.945 780.105 438.031 780.105 437.055C780.105 436.117 779.996 435.223 779.777 434.371C779.566 433.52 779.246 432.773 778.816 432.133C778.395 431.492 777.863 430.984 777.223 430.609C776.582 430.227 775.832 430.035 774.973 430.035C774.199 430.035 773.496 430.215 772.863 430.574C772.238 430.934 771.703 431.43 771.258 432.062C770.812 432.688 770.469 433.434 770.227 434.301C769.984 435.16 769.863 436.094 769.863 437.102C769.863 438.07 769.977 438.977 770.203 439.82C770.437 440.656 770.773 441.387 771.211 442.012C771.648 442.629 772.184 443.117 772.816 443.477C773.457 443.836 774.184 444.016 774.996 444.016Z" fill="#211F22"/>
<path d="M770 764L1177 764" stroke="black"/>
<path d="M770 777L1177 777" stroke="black"/>
<path d="M1159 764L1159 777" stroke="black"/>
<path d="M785 764L785 777" stroke="black"/>
<path d="M1159 483L1159 517" stroke="black"/>
<path d="M785 483L785 517" stroke="black"/>
<path d="M1194.52 777.316C1193.92 777.316 1193.3 777.223 1192.66 777.035C1192.03 776.855 1191.45 776.559 1190.93 776.145C1190.41 775.73 1189.98 775.191 1189.65 774.527C1189.31 773.855 1189.14 773.035 1189.13 772.066H1190.52C1190.52 772.824 1190.66 773.457 1190.93 773.965C1191.19 774.465 1191.52 774.867 1191.92 775.172C1192.32 775.477 1192.75 775.695 1193.22 775.828C1193.69 775.953 1194.14 776.016 1194.56 776.016C1195.1 776.016 1195.61 775.914 1196.11 775.711C1196.6 775.508 1197.03 775.227 1197.41 774.867C1197.79 774.5 1198.09 774.07 1198.31 773.578C1198.54 773.086 1198.65 772.547 1198.65 771.961C1198.65 771.398 1198.54 770.887 1198.32 770.426C1198.11 769.957 1197.8 769.559 1197.41 769.23C1197.01 768.895 1196.53 768.633 1195.98 768.445C1195.42 768.258 1194.8 768.164 1194.12 768.164H1192.82V767.426L1196.84 762.316L1196.91 762.234H1189.88V761.062H1198.61V761.883L1194.58 766.875L1194.41 767.109C1195.27 767.133 1196.04 767.258 1196.74 767.484C1197.43 767.703 1198.02 768.02 1198.51 768.434C1199 768.84 1199.38 769.344 1199.63 769.945C1199.9 770.539 1200.03 771.219 1200.03 771.984C1200.03 772.727 1199.89 773.422 1199.62 774.07C1199.35 774.719 1198.96 775.285 1198.47 775.77C1197.99 776.246 1197.41 776.625 1196.73 776.906C1196.05 777.18 1195.32 777.316 1194.52 777.316Z" fill="black"/>
<path d="M758.523 777.316C757.922 777.316 757.301 777.223 756.66 777.035C756.027 776.855 755.449 776.559 754.926 776.145C754.41 775.73 753.984 775.191 753.648 774.527C753.312 773.855 753.141 773.035 753.133 772.066H754.516C754.523 772.824 754.66 773.457 754.926 773.965C755.191 774.465 755.523 774.867 755.922 775.172C756.32 775.477 756.754 775.695 757.223 775.828C757.691 775.953 758.137 776.016 758.559 776.016C759.098 776.016 759.613 775.914 760.105 775.711C760.598 775.508 761.031 775.227 761.406 774.867C761.789 774.5 762.09 774.07 762.309 773.578C762.535 773.086 762.648 772.547 762.648 771.961C762.648 771.398 762.539 770.887 762.32 770.426C762.109 769.957 761.805 769.559 761.406 769.23C761.008 768.895 760.531 768.633 759.977 768.445C759.422 768.258 758.805 768.164 758.125 768.164H756.824V767.426L760.844 762.316L760.914 762.234H753.883V761.062H762.613V761.883L758.582 766.875L758.406 767.109C759.266 767.133 760.043 767.258 760.738 767.484C761.434 767.703 762.023 768.02 762.508 768.434C763 768.84 763.375 769.344 763.633 769.945C763.898 770.539 764.031 771.219 764.031 771.984C764.031 772.727 763.895 773.422 763.621 774.07C763.348 774.719 762.965 775.285 762.473 775.77C761.988 776.246 761.406 776.625 760.727 776.906C760.055 777.18 759.32 777.316 758.523 777.316Z" fill="black"/>
<path d="M1168.84 491.41L1165.61 492.746V491.469L1169.02 490.051H1170.23V506H1168.84V491.41ZM1180.23 506.316C1179.16 506.316 1178.23 506.098 1177.41 505.66C1176.61 505.223 1175.93 504.633 1175.38 503.891C1174.83 503.141 1174.41 502.27 1174.13 501.277C1173.85 500.285 1173.71 499.23 1173.71 498.113C1173.71 496.949 1173.86 495.859 1174.16 494.844C1174.45 493.82 1174.88 492.93 1175.45 492.172C1176.01 491.414 1176.69 490.82 1177.48 490.391C1178.29 489.953 1179.2 489.734 1180.2 489.734C1181.33 489.734 1182.3 489.965 1183.12 490.426C1183.94 490.887 1184.62 491.504 1185.15 492.277C1185.68 493.051 1186.07 493.938 1186.33 494.938C1186.59 495.938 1186.72 496.977 1186.72 498.055C1186.72 499.188 1186.57 500.258 1186.29 501.266C1186 502.266 1185.59 503.141 1185.03 503.891C1184.48 504.641 1183.81 505.234 1183 505.672C1182.2 506.102 1181.27 506.316 1180.23 506.316ZM1180.23 505.016C1181.03 505.016 1181.75 504.836 1182.38 504.477C1183.02 504.117 1183.55 503.625 1183.99 503C1184.43 502.375 1184.76 501.641 1184.98 500.797C1185.22 499.945 1185.34 499.031 1185.34 498.055C1185.34 497.117 1185.23 496.223 1185.01 495.371C1184.8 494.52 1184.48 493.773 1184.05 493.133C1183.62 492.492 1183.09 491.984 1182.45 491.609C1181.81 491.227 1181.06 491.035 1180.2 491.035C1179.43 491.035 1178.73 491.215 1178.09 491.574C1177.47 491.934 1176.93 492.43 1176.49 493.062C1176.04 493.688 1175.7 494.434 1175.46 495.301C1175.21 496.16 1175.09 497.094 1175.09 498.102C1175.09 499.07 1175.21 499.977 1175.43 500.82C1175.67 501.656 1176 502.387 1176.44 503.012C1176.88 503.629 1177.41 504.117 1178.05 504.477C1178.69 504.836 1179.41 505.016 1180.23 505.016Z" fill="black"/>
<path d="M756.836 491.41L753.613 492.746V491.469L757.023 490.051H758.23V506H756.836V491.41ZM768.227 506.316C767.164 506.316 766.227 506.098 765.414 505.66C764.609 505.223 763.93 504.633 763.375 503.891C762.828 503.141 762.414 502.27 762.133 501.277C761.852 500.285 761.711 499.23 761.711 498.113C761.711 496.949 761.859 495.859 762.156 494.844C762.453 493.82 762.883 492.93 763.445 492.172C764.008 491.414 764.688 490.82 765.484 490.391C766.289 489.953 767.195 489.734 768.203 489.734C769.328 489.734 770.301 489.965 771.121 490.426C771.941 490.887 772.617 491.504 773.148 492.277C773.68 493.051 774.074 493.938 774.332 494.938C774.59 495.938 774.719 496.977 774.719 498.055C774.719 499.188 774.574 500.258 774.285 501.266C774.004 502.266 773.586 503.141 773.031 503.891C772.484 504.641 771.809 505.234 771.004 505.672C770.199 506.102 769.273 506.316 768.227 506.316ZM768.227 505.016C769.031 505.016 769.75 504.836 770.383 504.477C771.016 504.117 771.551 503.625 771.988 503C772.426 502.375 772.758 501.641 772.984 500.797C773.219 499.945 773.336 499.031 773.336 498.055C773.336 497.117 773.227 496.223 773.008 495.371C772.797 494.52 772.477 493.773 772.047 493.133C771.625 492.492 771.094 491.984 770.453 491.609C769.812 491.227 769.062 491.035 768.203 491.035C767.43 491.035 766.727 491.215 766.094 491.574C765.469 491.934 764.934 492.43 764.488 493.062C764.043 493.688 763.699 494.434 763.457 495.301C763.215 496.16 763.094 497.094 763.094 498.102C763.094 499.07 763.207 499.977 763.434 500.82C763.668 501.656 764.004 502.387 764.441 503.012C764.879 503.629 765.414 504.117 766.047 504.477C766.688 504.836 767.414 505.016 768.227 505.016Z" fill="black"/>
<path d="M900 764V863" stroke="black"/>
<path d="M1041 825H900" stroke="black"/>
<path d="M1041 764V863" stroke="black"/>
<path d="M896 144V517" stroke="black"/>
<path d="M1046 144V517" stroke="black"/>
<path d="M1046 165H896" stroke="black"/>
<path d="M1208 517H734" stroke="black"/>
<path d="M1208 483H734" stroke="black"/>
<path d="M966.762 154.316C966.16 154.316 965.539 154.223 964.898 154.035C964.266 153.855 963.688 153.559 963.164 153.145C962.648 152.73 962.223 152.191 961.887 151.527C961.551 150.855 961.379 150.035 961.371 149.066H962.754C962.762 149.824 962.898 150.457 963.164 150.965C963.43 151.465 963.762 151.867 964.16 152.172C964.559 152.477 964.992 152.695 965.461 152.828C965.93 152.953 966.375 153.016 966.797 153.016C967.336 153.016 967.852 152.914 968.344 152.711C968.836 152.508 969.27 152.227 969.645 151.867C970.027 151.5 970.328 151.07 970.547 150.578C970.773 150.086 970.887 149.547 970.887 148.961C970.887 148.398 970.777 147.887 970.559 147.426C970.348 146.957 970.043 146.559 969.645 146.23C969.246 145.895 968.77 145.633 968.215 145.445C967.66 145.258 967.043 145.164 966.363 145.164H965.062V144.426L969.082 139.316L969.152 139.234H962.121V138.062H970.852V138.883L966.82 143.875L966.645 144.109C967.504 144.133 968.281 144.258 968.977 144.484C969.672 144.703 970.262 145.02 970.746 145.434C971.238 145.84 971.613 146.344 971.871 146.945C972.137 147.539 972.27 148.219 972.27 148.984C972.27 149.727 972.133 150.422 971.859 151.07C971.586 151.719 971.203 152.285 970.711 152.77C970.227 153.246 969.645 153.625 968.965 153.906C968.293 154.18 967.559 154.316 966.762 154.316ZM979.84 154.316C979.301 154.316 978.738 154.238 978.152 154.082C977.566 153.934 977.016 153.684 976.5 153.332C975.984 152.973 975.531 152.5 975.141 151.914C974.758 151.32 974.5 150.59 974.367 149.723H975.727C975.867 150.348 976.09 150.871 976.395 151.293C976.707 151.715 977.055 152.055 977.438 152.312C977.828 152.562 978.234 152.742 978.656 152.852C979.086 152.961 979.48 153.016 979.84 153.016C980.402 153.016 980.934 152.914 981.434 152.711C981.934 152.5 982.367 152.211 982.734 151.844C983.109 151.477 983.406 151.047 983.625 150.555C983.844 150.055 983.953 149.512 983.953 148.926C983.953 148.348 983.844 147.824 983.625 147.355C983.406 146.887 983.094 146.488 982.688 146.16C982.281 145.832 981.789 145.582 981.211 145.41C980.641 145.23 980.004 145.141 979.301 145.141L976.102 145.129L975.352 144.566L976.207 138.051H984.27V139.234H977.379L976.758 144.062H979.582C980.473 144.062 981.273 144.18 981.984 144.414C982.695 144.648 983.301 144.98 983.801 145.41C984.301 145.832 984.684 146.344 984.949 146.945C985.215 147.539 985.348 148.203 985.348 148.938C985.348 149.664 985.215 150.355 984.949 151.012C984.684 151.66 984.309 152.23 983.824 152.723C983.34 153.207 982.758 153.594 982.078 153.883C981.406 154.172 980.66 154.316 979.84 154.316Z" fill="black"/>
<path d="M962.418 849.316C961.816 849.316 961.195 849.223 960.555 849.035C959.922 848.855 959.344 848.559 958.82 848.145C958.305 847.73 957.879 847.191 957.543 846.527C957.207 845.855 957.035 845.035 957.027 844.066H958.41C958.418 844.824 958.555 845.457 958.82 845.965C959.086 846.465 959.418 846.867 959.816 847.172C960.215 847.477 960.648 847.695 961.117 847.828C961.586 847.953 962.031 848.016 962.453 848.016C962.992 848.016 963.508 847.914 964 847.711C964.492 847.508 964.926 847.227 965.301 846.867C965.684 846.5 965.984 846.07 966.203 845.578C966.43 845.086 966.543 844.547 966.543 843.961C966.543 843.398 966.434 842.887 966.215 842.426C966.004 841.957 965.699 841.559 965.301 841.23C964.902 840.895 964.426 840.633 963.871 840.445C963.316 840.258 962.699 840.164 962.02 840.164H960.719V839.426L964.738 834.316L964.809 834.234H957.777V833.062H966.508V833.883L962.477 838.875L962.301 839.109C963.16 839.133 963.938 839.258 964.633 839.484C965.328 839.703 965.918 840.02 966.402 840.434C966.895 840.84 967.27 841.344 967.527 841.945C967.793 842.539 967.926 843.219 967.926 843.984C967.926 844.727 967.789 845.422 967.516 846.07C967.242 846.719 966.859 847.285 966.367 847.77C965.883 848.246 965.301 848.625 964.621 848.906C963.949 849.18 963.215 849.316 962.418 849.316ZM976.246 849.316C975.184 849.316 974.246 849.098 973.434 848.66C972.629 848.223 971.949 847.633 971.395 846.891C970.848 846.141 970.434 845.27 970.152 844.277C969.871 843.285 969.73 842.23 969.73 841.113C969.73 839.949 969.879 838.859 970.176 837.844C970.473 836.82 970.902 835.93 971.465 835.172C972.027 834.414 972.707 833.82 973.504 833.391C974.309 832.953 975.215 832.734 976.223 832.734C977.348 832.734 978.32 832.965 979.141 833.426C979.961 833.887 980.637 834.504 981.168 835.277C981.699 836.051 982.094 836.938 982.352 837.938C982.609 838.938 982.738 839.977 982.738 841.055C982.738 842.188 982.594 843.258 982.305 844.266C982.023 845.266 981.605 846.141 981.051 846.891C980.504 847.641 979.828 848.234 979.023 848.672C978.219 849.102 977.293 849.316 976.246 849.316ZM976.246 848.016C977.051 848.016 977.77 847.836 978.402 847.477C979.035 847.117 979.57 846.625 980.008 846C980.445 845.375 980.777 844.641 981.004 843.797C981.238 842.945 981.355 842.031 981.355 841.055C981.355 840.117 981.246 839.223 981.027 838.371C980.816 837.52 980.496 836.773 980.066 836.133C979.645 835.492 979.113 834.984 978.473 834.609C977.832 834.227 977.082 834.035 976.223 834.035C975.449 834.035 974.746 834.215 974.113 834.574C973.488 834.934 972.953 835.43 972.508 836.062C972.062 836.688 971.719 837.434 971.477 838.301C971.234 839.16 971.113 840.094 971.113 841.102C971.113 842.07 971.227 842.977 971.453 843.82C971.688 844.656 972.023 845.387 972.461 846.012C972.898 846.629 973.434 847.117 974.066 847.477C974.707 847.836 975.434 848.016 976.246 848.016Z" fill="black"/>
</svg>
