<svg width="1302" height="1080" viewBox="0 0 1302 1080" fill="none" xmlns="http://www.w3.org/2000/svg">
<rect width="1302" height="1080" fill="white"/>
<path d="M1013.31 985L1013.31 970.86H1018.15C1019.17 970.86 1020.05 971.027 1020.79 971.36C1021.52 971.693 1022.08 972.207 1022.47 972.9C1022.87 973.58 1023.07 974.447 1023.07 975.5C1023.07 976.54 1022.83 977.413 1022.37 978.12C1021.91 978.827 1021.29 979.353 1020.49 979.7C1019.7 980.047 1018.79 980.22 1017.77 980.22H1014.75L1014.75 985H1013.31ZM1014.75 978.92H1017.71C1018.85 978.92 1019.79 978.647 1020.51 978.1C1021.23 977.553 1021.59 976.66 1021.59 975.42C1021.59 974.3 1021.28 973.48 1020.67 972.96C1020.07 972.427 1019.19 972.16 1018.05 972.16H1014.75L1014.75 978.92ZM1028.49 985.12C1028.06 985.12 1027.63 985.067 1027.19 984.96C1026.75 984.84 1026.35 984.66 1025.99 984.42C1025.63 984.167 1025.34 983.847 1025.11 983.46C1024.9 983.06 1024.79 982.593 1024.79 982.06C1024.79 981.46 1024.9 980.96 1025.11 980.56C1025.34 980.16 1025.64 979.84 1026.01 979.6C1026.38 979.36 1026.81 979.193 1027.29 979.1C1027.77 978.993 1028.28 978.94 1028.81 978.94H1032.15C1032.15 978.287 1032.06 977.713 1031.87 977.22C1031.7 976.713 1031.4 976.313 1030.99 976.02C1030.59 975.727 1030.05 975.58 1029.37 975.58C1029.01 975.58 1028.66 975.62 1028.33 975.7C1028 975.78 1027.7 975.913 1027.43 976.1C1027.18 976.273 1026.98 976.513 1026.83 976.82H1025.31C1025.43 976.353 1025.63 975.96 1025.91 975.64C1026.2 975.32 1026.54 975.067 1026.93 974.88C1027.32 974.68 1027.72 974.54 1028.15 974.46C1028.58 974.38 1028.98 974.34 1029.37 974.34C1030.37 974.34 1031.18 974.547 1031.79 974.96C1032.4 975.36 1032.84 975.933 1033.11 976.68C1033.39 977.413 1033.53 978.28 1033.53 979.28L1033.53 985H1032.31L1032.25 983.56C1031.96 983.96 1031.6 984.273 1031.19 984.5C1030.79 984.727 1030.36 984.887 1029.89 984.98C1029.44 985.073 1028.97 985.12 1028.49 985.12ZM1028.63 983.88C1029.28 983.88 1029.88 983.773 1030.41 983.56C1030.94 983.333 1031.36 983 1031.67 982.56C1031.99 982.12 1032.15 981.573 1032.15 980.92L1032.15 980.12H1029.79C1029.38 980.12 1028.96 980.133 1028.53 980.16C1028.1 980.173 1027.72 980.24 1027.37 980.36C1027.02 980.467 1026.74 980.647 1026.53 980.9C1026.32 981.14 1026.21 981.487 1026.21 981.94C1026.21 982.393 1026.32 982.767 1026.55 983.06C1026.78 983.34 1027.08 983.547 1027.45 983.68C1027.82 983.813 1028.22 983.88 1028.63 983.88ZM1040.03 985.12C1039.55 985.12 1039.06 985.08 1038.57 985C1038.09 984.92 1037.63 984.78 1037.21 984.58C1036.79 984.38 1036.45 984.107 1036.17 983.76C1035.89 983.4 1035.72 982.947 1035.67 982.4H1037.07C1037.17 982.787 1037.39 983.093 1037.73 983.32C1038.07 983.533 1038.45 983.68 1038.87 983.76C1039.29 983.84 1039.67 983.88 1040.01 983.88C1040.42 983.88 1040.85 983.833 1041.29 983.74C1041.73 983.647 1042.09 983.467 1042.39 983.2C1042.69 982.933 1042.85 982.54 1042.85 982.02C1042.85 981.513 1042.72 981.14 1042.47 980.9C1042.21 980.66 1041.89 980.5 1041.49 980.42C1041.09 980.34 1040.67 980.3 1040.23 980.3H1038.39L1038.39 979.08H1039.77C1040.05 979.08 1040.34 979.053 1040.65 979C1040.97 978.947 1041.26 978.853 1041.53 978.72C1041.79 978.587 1042.01 978.4 1042.17 978.16C1042.34 977.92 1042.43 977.613 1042.43 977.24C1042.43 976.827 1042.31 976.5 1042.07 976.26C1041.83 976.007 1041.52 975.833 1041.15 975.74C1040.77 975.633 1040.4 975.58 1040.03 975.58C1039.69 975.58 1039.34 975.613 1038.97 975.68C1038.59 975.747 1038.27 975.88 1037.99 976.08C1037.71 976.28 1037.53 976.58 1037.45 976.98H1036.03C1036.08 976.3 1036.31 975.773 1036.73 975.4C1037.15 975.013 1037.66 974.74 1038.25 974.58C1038.85 974.42 1039.43 974.34 1040.01 974.34C1040.46 974.34 1040.91 974.387 1041.35 974.48C1041.8 974.56 1042.21 974.707 1042.57 974.92C1042.94 975.133 1043.23 975.42 1043.45 975.78C1043.67 976.127 1043.79 976.56 1043.81 977.08C1043.82 977.587 1043.7 978.04 1043.45 978.44C1043.21 978.84 1042.81 979.16 1042.25 979.4C1042.98 979.573 1043.5 979.9 1043.81 980.38C1044.11 980.86 1044.27 981.407 1044.27 982.02C1044.27 982.593 1044.14 983.073 1043.89 983.46C1043.65 983.847 1043.32 984.167 1042.91 984.42C1042.51 984.673 1042.05 984.853 1041.55 984.96C1041.05 985.067 1040.55 985.12 1040.03 985.12ZM1046.54 985L1046.54 974.46H1048.52L1052.16 980.16L1055.78 974.46H1057.72L1057.72 985H1056.32L1056.32 975.94L1052.34 982.28H1051.92L1047.94 975.94L1047.94 985H1046.54ZM1065.02 985.12C1063.92 985.12 1063 984.893 1062.26 984.44C1061.53 983.973 1060.98 983.333 1060.62 982.52C1060.26 981.707 1060.08 980.78 1060.08 979.74C1060.08 978.7 1060.27 977.78 1060.64 976.98C1061.02 976.167 1061.57 975.527 1062.3 975.06C1063.04 974.58 1063.94 974.34 1065 974.34C1065.78 974.34 1066.45 974.487 1067.02 974.78C1067.61 975.06 1068.1 975.447 1068.48 975.94C1068.87 976.433 1069.15 976.993 1069.32 977.62C1069.51 978.247 1069.6 978.893 1069.6 979.56C1069.6 979.68 1069.6 979.793 1069.6 979.9C1069.6 980.007 1069.6 980.113 1069.58 980.22H1061.5C1061.56 980.927 1061.72 981.56 1061.98 982.12C1062.25 982.667 1062.64 983.1 1063.14 983.42C1063.66 983.727 1064.31 983.88 1065.08 983.88C1065.44 983.88 1065.81 983.84 1066.18 983.76C1066.56 983.667 1066.9 983.513 1067.2 983.3C1067.51 983.073 1067.74 982.78 1067.88 982.42H1069.36C1069.18 983.047 1068.86 983.56 1068.42 983.96C1067.98 984.36 1067.46 984.653 1066.86 984.84C1066.26 985.027 1065.65 985.12 1065.02 985.12ZM1061.54 979H1068.18C1068.17 978.347 1068.03 977.767 1067.76 977.26C1067.5 976.74 1067.13 976.333 1066.66 976.04C1066.2 975.733 1065.62 975.58 1064.94 975.58C1064.24 975.58 1063.64 975.74 1063.14 976.06C1062.65 976.38 1062.27 976.8 1062 977.32C1061.75 977.84 1061.6 978.4 1061.54 979ZM1071.99 988.9L1071.99 974.46H1073.35L1073.41 976.24C1073.82 975.587 1074.34 975.107 1074.97 974.8C1075.61 974.493 1076.32 974.34 1077.11 974.34C1078.17 974.34 1079.05 974.58 1079.73 975.06C1080.41 975.54 1080.91 976.193 1081.25 977.02C1081.58 977.833 1081.75 978.747 1081.75 979.76C1081.75 980.8 1081.57 981.727 1081.23 982.54C1080.89 983.353 1080.37 983.987 1079.67 984.44C1078.97 984.893 1078.09 985.12 1077.03 985.12C1076.53 985.12 1076.06 985.067 1075.61 984.96C1075.15 984.853 1074.74 984.68 1074.37 984.44C1073.99 984.187 1073.67 983.873 1073.41 983.5L1073.41 988.9H1071.99ZM1076.97 983.88C1077.79 983.88 1078.45 983.693 1078.93 983.32C1079.42 982.933 1079.77 982.427 1079.99 981.8C1080.21 981.173 1080.33 980.487 1080.33 979.74C1080.33 978.98 1080.21 978.287 1079.99 977.66C1079.76 977.033 1079.39 976.533 1078.89 976.16C1078.38 975.773 1077.71 975.58 1076.89 975.58C1076.13 975.58 1075.48 975.773 1074.95 976.16C1074.43 976.547 1074.03 977.06 1073.77 977.7C1073.5 978.34 1073.37 979.027 1073.37 979.76C1073.37 980.547 1073.49 981.253 1073.75 981.88C1074.01 982.493 1074.41 982.98 1074.95 983.34C1075.49 983.7 1076.17 983.88 1076.97 983.88ZM1084.04 985L1084.04 974.46H1085.48L1085.48 978.6H1087.5C1088.1 978.6 1088.65 978.647 1089.16 978.74C1089.66 978.833 1090.1 978.993 1090.48 979.22C1090.86 979.447 1091.16 979.76 1091.38 980.16C1091.59 980.547 1091.7 981.053 1091.7 981.68C1091.7 982.28 1091.59 982.793 1091.38 983.22C1091.18 983.633 1090.89 983.973 1090.52 984.24C1090.16 984.507 1089.73 984.7 1089.24 984.82C1088.74 984.94 1088.21 985 1087.64 985H1084.04ZM1085.48 983.78H1086.48C1086.94 983.78 1087.4 983.767 1087.84 983.74C1088.29 983.713 1088.7 983.64 1089.06 983.52C1089.42 983.387 1089.7 983.18 1089.92 982.9C1090.14 982.62 1090.26 982.233 1090.26 981.74C1090.26 981.287 1090.16 980.933 1089.98 980.68C1089.8 980.427 1089.57 980.24 1089.28 980.12C1088.98 979.987 1088.66 979.907 1088.3 979.88C1087.95 979.84 1087.61 979.82 1087.28 979.82H1085.48L1085.48 983.78ZM1093.38 985L1093.38 974.46H1094.8L1094.8 985H1093.38ZM1103.26 989.64L1103.26 988.3C1103.92 988.3 1104.44 988.2 1104.84 988C1105.26 987.8 1105.6 987.493 1105.86 987.08C1106.14 986.667 1106.41 986.153 1106.66 985.54L1101.96 974.46H1103.64L1107.44 983.86L1110.58 974.46H1112.2L1109.02 983.38C1108.89 983.767 1108.73 984.207 1108.54 984.7C1108.37 985.18 1108.18 985.673 1107.96 986.18C1107.75 986.687 1107.52 987.16 1107.26 987.6C1107.01 988.04 1106.73 988.393 1106.42 988.66C1106.14 988.913 1105.86 989.107 1105.58 989.24C1105.32 989.387 1105 989.487 1104.64 989.54C1104.28 989.607 1103.82 989.64 1103.26 989.64ZM1113.86 985L1113.86 974.46H1115.28L1115.28 979.12H1117.42L1120.62 974.46H1122.22L1118.7 979.5L1122.54 985H1120.9L1117.6 980.34H1115.28L1115.28 985H1113.86ZM1127.22 985.12C1126.79 985.12 1126.36 985.067 1125.92 984.96C1125.48 984.84 1125.08 984.66 1124.72 984.42C1124.36 984.167 1124.07 983.847 1123.84 983.46C1123.63 983.06 1123.52 982.593 1123.52 982.06C1123.52 981.46 1123.63 980.96 1123.84 980.56C1124.07 980.16 1124.37 979.84 1124.74 979.6C1125.11 979.36 1125.54 979.193 1126.02 979.1C1126.5 978.993 1127.01 978.94 1127.54 978.94H1130.88C1130.88 978.287 1130.79 977.713 1130.6 977.22C1130.43 976.713 1130.13 976.313 1129.72 976.02C1129.32 975.727 1128.78 975.58 1128.1 975.58C1127.74 975.58 1127.39 975.62 1127.06 975.7C1126.73 975.78 1126.43 975.913 1126.16 976.1C1125.91 976.273 1125.71 976.513 1125.56 976.82H1124.04C1124.16 976.353 1124.36 975.96 1124.64 975.64C1124.93 975.32 1125.27 975.067 1125.66 974.88C1126.05 974.68 1126.45 974.54 1126.88 974.46C1127.31 974.38 1127.71 974.34 1128.1 974.34C1129.1 974.34 1129.91 974.547 1130.52 974.96C1131.13 975.36 1131.57 975.933 1131.84 976.68C1132.12 977.413 1132.26 978.28 1132.26 979.28L1132.26 985H1131.04L1130.98 983.56C1130.69 983.96 1130.33 984.273 1129.92 984.5C1129.52 984.727 1129.09 984.887 1128.62 984.98C1128.17 985.073 1127.7 985.12 1127.22 985.12ZM1127.36 983.88C1128.01 983.88 1128.61 983.773 1129.14 983.56C1129.67 983.333 1130.09 983 1130.4 982.56C1130.72 982.12 1130.88 981.573 1130.88 980.92L1130.88 980.12H1128.52C1128.11 980.12 1127.69 980.133 1127.26 980.16C1126.83 980.173 1126.45 980.24 1126.1 980.36C1125.75 980.467 1125.47 980.647 1125.26 980.9C1125.05 981.14 1124.94 981.487 1124.94 981.94C1124.94 982.393 1125.05 982.767 1125.28 983.06C1125.51 983.34 1125.81 983.547 1126.18 983.68C1126.55 983.813 1126.95 983.88 1127.36 983.88ZM1138.76 985.12C1138.28 985.12 1137.79 985.08 1137.3 985C1136.82 984.92 1136.36 984.78 1135.94 984.58C1135.52 984.38 1135.18 984.107 1134.9 983.76C1134.62 983.4 1134.45 982.947 1134.4 982.4H1135.8C1135.9 982.787 1136.12 983.093 1136.46 983.32C1136.8 983.533 1137.18 983.68 1137.6 983.76C1138.02 983.84 1138.4 983.88 1138.74 983.88C1139.15 983.88 1139.58 983.833 1140.02 983.74C1140.46 983.647 1140.82 983.467 1141.12 983.2C1141.42 982.933 1141.58 982.54 1141.58 982.02C1141.58 981.513 1141.45 981.14 1141.2 980.9C1140.94 980.66 1140.62 980.5 1140.22 980.42C1139.82 980.34 1139.4 980.3 1138.96 980.3H1137.12L1137.12 979.08H1138.5C1138.78 979.08 1139.07 979.053 1139.38 979C1139.7 978.947 1139.99 978.853 1140.26 978.72C1140.52 978.587 1140.74 978.4 1140.9 978.16C1141.07 977.92 1141.16 977.613 1141.16 977.24C1141.16 976.827 1141.04 976.5 1140.8 976.26C1140.56 976.007 1140.25 975.833 1139.88 975.74C1139.5 975.633 1139.13 975.58 1138.76 975.58C1138.42 975.58 1138.07 975.613 1137.7 975.68C1137.32 975.747 1137 975.88 1136.72 976.08C1136.44 976.28 1136.26 976.58 1136.18 976.98H1134.76C1134.81 976.3 1135.04 975.773 1135.46 975.4C1135.88 975.013 1136.39 974.74 1136.98 974.58C1137.58 974.42 1138.16 974.34 1138.74 974.34C1139.19 974.34 1139.64 974.387 1140.08 974.48C1140.53 974.56 1140.94 974.707 1141.3 974.92C1141.67 975.133 1141.96 975.42 1142.18 975.78C1142.4 976.127 1142.52 976.56 1142.54 977.08C1142.55 977.587 1142.43 978.04 1142.18 978.44C1141.94 978.84 1141.54 979.16 1140.98 979.4C1141.71 979.573 1142.23 979.9 1142.54 980.38C1142.84 980.86 1143 981.407 1143 982.02C1143 982.593 1142.87 983.073 1142.62 983.46C1142.38 983.847 1142.05 984.167 1141.64 984.42C1141.24 984.673 1140.78 984.853 1140.28 984.96C1139.78 985.067 1139.28 985.12 1138.76 985.12ZM1148.59 985.12C1148.16 985.12 1147.73 985.067 1147.29 984.96C1146.85 984.84 1146.45 984.66 1146.09 984.42C1145.73 984.167 1145.44 983.847 1145.21 983.46C1145 983.06 1144.89 982.593 1144.89 982.06C1144.89 981.46 1145 980.96 1145.21 980.56C1145.44 980.16 1145.74 979.84 1146.11 979.6C1146.48 979.36 1146.91 979.193 1147.39 979.1C1147.87 978.993 1148.38 978.94 1148.91 978.94H1152.25C1152.25 978.287 1152.16 977.713 1151.97 977.22C1151.8 976.713 1151.5 976.313 1151.09 976.02C1150.69 975.727 1150.15 975.58 1149.47 975.58C1149.11 975.58 1148.76 975.62 1148.43 975.7C1148.1 975.78 1147.8 975.913 1147.53 976.1C1147.28 976.273 1147.08 976.513 1146.93 976.82H1145.41C1145.53 976.353 1145.73 975.96 1146.01 975.64C1146.3 975.32 1146.64 975.067 1147.03 974.88C1147.42 974.68 1147.82 974.54 1148.25 974.46C1148.68 974.38 1149.08 974.34 1149.47 974.34C1150.47 974.34 1151.28 974.547 1151.89 974.96C1152.5 975.36 1152.94 975.933 1153.21 976.68C1153.49 977.413 1153.63 978.28 1153.63 979.28L1153.63 985H1152.41L1152.35 983.56C1152.06 983.96 1151.7 984.273 1151.29 984.5C1150.89 984.727 1150.46 984.887 1149.99 984.98C1149.54 985.073 1149.07 985.12 1148.59 985.12ZM1148.73 983.88C1149.38 983.88 1149.98 983.773 1150.51 983.56C1151.04 983.333 1151.46 983 1151.77 982.56C1152.09 982.12 1152.25 981.573 1152.25 980.92L1152.25 980.12H1149.89C1149.48 980.12 1149.06 980.133 1148.63 980.16C1148.2 980.173 1147.82 980.24 1147.47 980.36C1147.12 980.467 1146.84 980.647 1146.63 980.9C1146.42 981.14 1146.31 981.487 1146.31 981.94C1146.31 982.393 1146.42 982.767 1146.65 983.06C1146.88 983.34 1147.18 983.547 1147.55 983.68C1147.92 983.813 1148.32 983.88 1148.73 983.88ZM1156.34 985L1156.34 974.46H1157.76L1157.76 979.22H1163.56L1163.56 974.46H1164.96L1164.96 985H1163.56L1163.56 980.44H1157.76L1157.76 985H1156.34ZM1167.73 985L1167.73 974.46H1169.17L1169.17 978.6H1171.19C1171.79 978.6 1172.34 978.647 1172.85 978.74C1173.36 978.833 1173.8 978.993 1174.17 979.22C1174.56 979.447 1174.86 979.76 1175.07 980.16C1175.28 980.547 1175.39 981.053 1175.39 981.68C1175.39 982.28 1175.28 982.793 1175.07 983.22C1174.87 983.633 1174.58 983.973 1174.21 984.24C1173.85 984.507 1173.42 984.7 1172.93 984.82C1172.44 984.94 1171.9 985 1171.33 985H1167.73ZM1169.17 983.78H1170.17C1170.64 983.78 1171.09 983.767 1171.53 983.74C1171.98 983.713 1172.39 983.64 1172.75 983.52C1173.11 983.387 1173.4 983.18 1173.61 982.9C1173.84 982.62 1173.95 982.233 1173.95 981.74C1173.95 981.287 1173.86 980.933 1173.67 980.68C1173.5 980.427 1173.26 980.24 1172.97 980.12C1172.68 979.987 1172.35 979.907 1171.99 979.88C1171.64 979.84 1171.3 979.82 1170.97 979.82H1169.17L1169.17 983.78ZM1177.07 985L1177.07 974.46H1178.49L1178.49 985H1177.07ZM1186.64 985L1186.64 974.46H1190.7C1191.14 974.46 1191.58 974.493 1192.04 974.56C1192.49 974.613 1192.9 974.733 1193.28 974.92C1193.66 975.093 1193.97 975.353 1194.2 975.7C1194.44 976.033 1194.56 976.487 1194.56 977.06C1194.56 977.367 1194.5 977.667 1194.4 977.96C1194.29 978.253 1194.12 978.52 1193.9 978.76C1193.68 979 1193.38 979.2 1193 979.36C1193.76 979.52 1194.31 979.833 1194.66 980.3C1195 980.753 1195.18 981.3 1195.18 981.94C1195.18 982.473 1195.08 982.933 1194.88 983.32C1194.69 983.707 1194.42 984.027 1194.08 984.28C1193.74 984.52 1193.35 984.7 1192.9 984.82C1192.46 984.94 1191.99 985 1191.5 985H1186.64ZM1188.08 983.78H1191.12C1191.54 983.78 1191.96 983.74 1192.36 983.66C1192.77 983.567 1193.1 983.4 1193.36 983.16C1193.62 982.907 1193.76 982.54 1193.76 982.06C1193.76 981.607 1193.66 981.26 1193.46 981.02C1193.26 980.767 1193 980.587 1192.68 980.48C1192.36 980.373 1192.01 980.307 1191.64 980.28C1191.26 980.253 1190.91 980.24 1190.58 980.24H1188.08L1188.08 983.78ZM1188.08 979.06H1190C1190.29 979.06 1190.62 979.04 1190.98 979C1191.34 978.96 1191.68 978.88 1192.02 978.76C1192.35 978.64 1192.62 978.467 1192.84 978.24C1193.05 978 1193.16 977.687 1193.16 977.3C1193.16 976.767 1193.01 976.393 1192.72 976.18C1192.44 975.953 1192.09 975.813 1191.68 975.76C1191.28 975.707 1190.89 975.68 1190.52 975.68H1188.08L1188.08 979.06ZM1202.96 985L1202.96 974.46H1204.94L1208.58 980.16L1212.2 974.46H1214.14L1214.14 985H1212.74L1212.74 975.94L1208.76 982.28H1208.34L1204.36 975.94L1204.36 985H1202.96ZM1216.91 985L1216.91 974.46H1218.89L1222.53 980.16L1226.15 974.46H1228.09L1228.09 985H1226.69L1226.69 975.94L1222.71 982.28H1222.29L1218.31 975.94L1218.31 985H1216.91Z" fill="#A3A3A1"/>
<path d="M721.899 262.575C708.246 264.001 693.676 266.549 681.144 269.707C664.128 273.986 664.332 273.884 664.332 279.284V283.768L558.165 284.277C494.893 284.583 446.7 285.194 439.16 285.907C390.763 290.085 363.356 293.549 329.121 299.764C312.717 302.821 311.8 303.126 311.8 304.756C311.8 305.572 310.17 306.387 308.031 306.692C305.891 307.1 303.14 308.119 301.815 309.036C298.657 311.175 300.185 313.009 306.706 314.538C309.661 315.251 311.8 316.372 311.8 317.085C311.8 318.817 315.774 319.632 344.914 324.115C381.797 329.821 407.473 332.776 448.839 336.138C468.3 337.666 900.712 338.583 900.712 336.953C900.712 336.444 901.833 335.934 903.259 335.934C904.889 335.934 905.806 335.323 905.806 334.406C905.806 333.081 909.372 332.877 931.788 332.877H957.769V310.972V289.066H931.889C906.927 289.066 906.01 288.964 905.501 287.028C905.195 285.805 904.074 284.99 902.851 284.99C901.629 284.99 900.712 284.481 900.712 283.971C900.712 283.36 894.904 282.952 885.429 282.952C870.961 282.952 869.432 282.749 854.149 278.775C845.285 276.534 832.855 273.273 826.436 271.643C813.903 268.382 796.684 265.326 782.013 263.594C769.378 262.065 733.005 261.454 721.899 262.575ZM787.616 266.141C805.141 268.484 817.979 271.235 842.941 278.062C865.255 284.073 865.764 284.175 882.168 284.685L898.674 285.194V289.168V293.141H876.157H853.742L847.017 289.168C822.156 274.088 787.616 267.669 739.729 269.096C712.118 269.809 692.351 272.866 673.808 279.183L666.37 281.73V278.775C666.37 276.024 666.777 275.718 674.827 273.375C688.276 269.299 707.431 265.835 725.465 264.205C735.246 263.39 776.409 264.613 787.616 266.141ZM778.956 271.745C795.258 273.171 806.975 275.413 820.017 279.386C826.232 281.424 831.428 283.258 831.428 283.462C831.428 283.768 794.443 283.971 749.205 283.971C702.336 283.971 667.491 283.564 668.408 283.054C674.011 279.794 702.133 273.681 719.861 271.847C731.578 270.624 765.812 270.522 778.956 271.745ZM846.202 290.696L854.251 295.485L876.463 294.771L898.674 294.058V315.047V336.036L679.412 335.628C442.828 335.221 452.915 335.425 401.462 329.821C374.461 326.764 319.748 318.715 315.163 317.085C313.736 316.575 313.227 304.349 314.653 304.349C315.061 304.349 321.378 303.228 328.612 301.904C363.05 295.485 396.877 291.205 433.047 288.556C464.428 286.315 454.749 286.417 654.653 286.213L838.051 286.009L846.202 290.696ZM903.565 310.666C903.361 325.847 902.851 334.304 902.24 334.202C901.221 333.896 900.202 290.9 901.119 288.352C901.425 287.639 902.138 287.028 902.75 287.028C903.463 287.028 903.768 294.67 903.565 310.666ZM950.637 310.972V330.84H928.222H905.806V310.972V291.103H928.222H950.637V310.972ZM955.731 310.972C955.731 327.987 955.527 330.84 954.203 330.84C952.878 330.84 952.675 327.987 952.675 310.972C952.675 293.956 952.878 291.103 954.203 291.103C955.527 291.103 955.731 293.956 955.731 310.972ZM311.8 311.073C311.8 313.519 311.597 313.621 308.54 313.009C302.834 311.787 301.714 310.768 304.668 309.545C309.457 307.609 311.8 308.119 311.8 311.073Z" fill="#737373"/>
<path d="M957.736 306.785L957.736 460.543M957.736 460.543L312.412 460.543M957.736 460.543L957.736 491.018M312.412 460.543L312.412 306.785M312.412 460.543L312.412 491.018" stroke="#A3A3A1"/>
<path d="M446.021 294.568L822.697 294.568L991.015 294.568M991.015 294.568L991.018 326.122M991.015 294.568L1008.65 294.568M991.018 326.122H1008.66M991.018 326.122H885.427H822.65H446.02" stroke="#A3A3A1"/>
<path opacity="0.8" d="M622.388 498.004V486.424H619.508V485.444C620.082 485.417 620.575 485.371 620.988 485.304C621.415 485.224 621.775 485.077 622.068 484.864C622.375 484.637 622.622 484.304 622.808 483.864H623.828V498.004H622.388ZM631.74 498.164C631.193 498.164 630.647 498.111 630.1 498.004C629.553 497.911 629.04 497.744 628.56 497.504C628.093 497.264 627.693 496.951 627.36 496.564C627.027 496.164 626.807 495.671 626.7 495.084H628.2C628.373 495.551 628.653 495.917 629.04 496.184C629.44 496.437 629.88 496.617 630.36 496.724C630.84 496.817 631.307 496.864 631.76 496.864C632.12 496.864 632.5 496.831 632.9 496.764C633.3 496.684 633.68 496.551 634.04 496.364C634.4 496.164 634.687 495.884 634.9 495.524C635.127 495.151 635.24 494.677 635.24 494.104C635.24 493.531 635.127 493.071 634.9 492.724C634.687 492.364 634.4 492.097 634.04 491.924C633.68 491.737 633.273 491.617 632.82 491.564C632.38 491.497 631.933 491.464 631.48 491.464H630.1V490.164H630.98C631.447 490.164 631.9 490.117 632.34 490.024C632.78 489.931 633.173 489.784 633.52 489.584C633.88 489.371 634.16 489.097 634.36 488.764C634.573 488.417 634.68 487.997 634.68 487.504C634.68 486.837 634.533 486.324 634.24 485.964C633.947 485.604 633.567 485.357 633.1 485.224C632.647 485.077 632.167 485.004 631.66 485.004C631.247 485.004 630.827 485.057 630.4 485.164C629.987 485.271 629.613 485.451 629.28 485.704C628.96 485.957 628.74 486.304 628.62 486.744H627.16C627.253 486.171 627.447 485.691 627.74 485.304C628.047 484.917 628.413 484.604 628.84 484.364C629.267 484.124 629.733 483.957 630.24 483.864C630.747 483.757 631.253 483.704 631.76 483.704C632.333 483.704 632.88 483.771 633.4 483.904C633.92 484.024 634.38 484.224 634.78 484.504C635.193 484.784 635.513 485.151 635.74 485.604C635.98 486.057 636.1 486.611 636.1 487.264C636.1 487.757 636.013 488.224 635.84 488.664C635.68 489.091 635.427 489.471 635.08 489.804C634.733 490.137 634.293 490.397 633.76 490.584C634.413 490.664 634.96 490.871 635.4 491.204C635.84 491.524 636.173 491.931 636.4 492.424C636.627 492.904 636.74 493.437 636.74 494.024C636.74 494.851 636.587 495.537 636.28 496.084C635.973 496.617 635.573 497.037 635.08 497.344C634.587 497.651 634.047 497.864 633.46 497.984C632.873 498.104 632.3 498.164 631.74 498.164ZM644.014 498.184C643.507 498.184 642.994 498.124 642.474 498.004C641.967 497.897 641.487 497.724 641.034 497.484C640.594 497.231 640.207 496.904 639.874 496.504C639.554 496.104 639.327 495.617 639.194 495.044H640.674C640.847 495.457 641.107 495.797 641.454 496.064C641.801 496.331 642.187 496.531 642.614 496.664C643.054 496.797 643.481 496.864 643.894 496.864C644.587 496.864 645.207 496.751 645.754 496.524C646.301 496.284 646.734 495.924 647.054 495.444C647.374 494.964 647.534 494.351 647.534 493.604C647.534 492.551 647.227 491.744 646.614 491.184C646.014 490.624 645.207 490.344 644.194 490.344C643.581 490.344 643.007 490.471 642.474 490.724C641.954 490.977 641.507 491.291 641.134 491.664H639.554L640.214 483.864H648.534V485.184H641.494L641.054 490.224C641.481 489.824 641.974 489.531 642.534 489.344C643.107 489.144 643.767 489.044 644.514 489.044C645.407 489.044 646.194 489.231 646.874 489.604C647.554 489.964 648.081 490.477 648.454 491.144C648.841 491.811 649.034 492.597 649.034 493.504C649.034 494.504 648.807 495.351 648.354 496.044C647.914 496.737 647.314 497.271 646.554 497.644C645.794 498.004 644.947 498.184 644.014 498.184Z" fill="#A3A3A1"/>
<path opacity="0.8" d="M1015.73 318.313C1015.22 318.313 1014.71 318.253 1014.19 318.133C1013.68 318.026 1013.2 317.853 1012.75 317.613C1012.31 317.359 1011.92 317.033 1011.59 316.633C1011.27 316.233 1011.04 315.746 1010.91 315.173H1012.39C1012.56 315.586 1012.82 315.926 1013.17 316.193C1013.52 316.459 1013.9 316.659 1014.33 316.793C1014.77 316.926 1015.2 316.993 1015.61 316.993C1016.3 316.993 1016.92 316.879 1017.47 316.653C1018.02 316.413 1018.45 316.053 1018.77 315.573C1019.09 315.093 1019.25 314.479 1019.25 313.733C1019.25 312.679 1018.94 311.873 1018.33 311.313C1017.73 310.753 1016.92 310.473 1015.91 310.473C1015.3 310.473 1014.72 310.599 1014.19 310.853C1013.67 311.106 1013.22 311.419 1012.85 311.793H1011.27L1011.93 303.993H1020.25V305.313H1013.21L1012.77 310.353C1013.2 309.953 1013.69 309.659 1014.25 309.473C1014.82 309.273 1015.48 309.173 1016.23 309.173C1017.12 309.173 1017.91 309.359 1018.59 309.733C1019.27 310.093 1019.8 310.606 1020.17 311.273C1020.56 311.939 1020.75 312.726 1020.75 313.633C1020.75 314.633 1020.52 315.479 1020.07 316.173C1019.63 316.866 1019.03 317.399 1018.27 317.773C1017.51 318.133 1016.66 318.313 1015.73 318.313Z" fill="#A3A3A1"/>
<path d="M827.996 363.282L793.996 363.286M827.996 295L827.996 363.282L827.996 380.997M793.996 363.286L793.996 381M793.996 363.286L793.996 295" stroke="#A3A3A1"/>
<path opacity="0.8" d="M801.903 393.182C801.396 393.182 800.883 393.122 800.363 393.002C799.856 392.895 799.376 392.722 798.923 392.482C798.483 392.229 798.096 391.902 797.763 391.502C797.443 391.102 797.216 390.615 797.083 390.042H798.563C798.736 390.455 798.996 390.795 799.343 391.062C799.689 391.329 800.076 391.529 800.503 391.662C800.943 391.795 801.369 391.862 801.783 391.862C802.476 391.862 803.096 391.749 803.643 391.522C804.189 391.282 804.623 390.922 804.943 390.442C805.263 389.962 805.423 389.349 805.423 388.602C805.423 387.549 805.116 386.742 804.503 386.182C803.903 385.622 803.096 385.342 802.083 385.342C801.469 385.342 800.896 385.469 800.363 385.722C799.843 385.975 799.396 386.289 799.023 386.662H797.443L798.103 378.862H806.423V380.182H799.383L798.943 385.222C799.369 384.822 799.863 384.529 800.423 384.342C800.996 384.142 801.656 384.042 802.403 384.042C803.296 384.042 804.083 384.229 804.763 384.602C805.443 384.962 805.969 385.475 806.343 386.142C806.729 386.809 806.923 387.595 806.923 388.502C806.923 389.502 806.696 390.349 806.243 391.042C805.803 391.735 805.203 392.269 804.443 392.642C803.683 393.002 802.836 393.182 801.903 393.182ZM810.489 393.162C810.182 393.162 809.929 393.062 809.729 392.862C809.529 392.649 809.429 392.389 809.429 392.082C809.429 391.775 809.529 391.522 809.729 391.322C809.929 391.122 810.182 391.022 810.489 391.022C810.809 391.022 811.069 391.122 811.269 391.322C811.469 391.522 811.569 391.775 811.569 392.082C811.569 392.389 811.469 392.649 811.269 392.862C811.069 393.062 810.809 393.162 810.489 393.162ZM819.051 393.182C818.545 393.182 818.031 393.122 817.511 393.002C817.005 392.895 816.525 392.722 816.071 392.482C815.631 392.229 815.245 391.902 814.911 391.502C814.591 391.102 814.365 390.615 814.231 390.042H815.711C815.885 390.455 816.145 390.795 816.491 391.062C816.838 391.329 817.225 391.529 817.651 391.662C818.091 391.795 818.518 391.862 818.931 391.862C819.625 391.862 820.245 391.749 820.791 391.522C821.338 391.282 821.771 390.922 822.091 390.442C822.411 389.962 822.571 389.349 822.571 388.602C822.571 387.549 822.265 386.742 821.651 386.182C821.051 385.622 820.245 385.342 819.231 385.342C818.618 385.342 818.045 385.469 817.511 385.722C816.991 385.975 816.545 386.289 816.171 386.662H814.591L815.251 378.862H823.571V380.182H816.531L816.091 385.222C816.518 384.822 817.011 384.529 817.571 384.342C818.145 384.142 818.805 384.042 819.551 384.042C820.445 384.042 821.231 384.229 821.911 384.602C822.591 384.962 823.118 385.475 823.491 386.142C823.878 386.809 824.071 387.595 824.071 388.502C824.071 389.502 823.845 390.349 823.391 391.042C822.951 391.735 822.351 392.269 821.591 392.642C820.831 393.002 819.985 393.182 819.051 393.182Z" fill="#A3A3A1"/>
<path d="M805.545 302.438C811.921 302.438 817.089 307.607 817.089 313.982C817.089 320.358 811.92 325.526 805.545 325.526C799.169 325.526 794 320.358 794 313.982C794 307.607 799.169 302.438 805.545 302.438ZM805.545 307.385C801.902 307.385 798.947 310.339 798.947 313.982C798.948 317.626 801.902 320.579 805.545 320.579C809.188 320.579 812.141 317.625 812.142 313.982C812.142 310.339 809.188 307.385 805.545 307.385ZM805.363 295C815.229 295 823.359 302.426 824.473 311.993H827.988V317.623H819.518V314.241H819.511C819.511 306.387 813.218 300.02 805.363 300.02V295Z" fill="black"/>
<path d="M600.703 650.24C614.356 648.813 628.926 646.266 641.458 643.107C658.473 638.828 658.269 638.93 658.269 633.53V629.047L764.436 628.537C827.709 628.232 875.902 627.62 883.441 626.907C931.838 622.73 959.246 619.266 993.48 613.051C1009.88 609.994 1010.8 609.688 1010.8 608.058C1010.8 607.243 1012.43 606.428 1014.57 606.122C1016.71 605.715 1019.46 604.696 1020.79 603.779C1023.94 601.639 1022.42 599.805 1015.9 598.277C1012.94 597.564 1010.8 596.443 1010.8 595.73C1010.8 593.998 1006.83 593.182 977.688 588.699C940.804 582.994 915.129 580.039 873.762 576.677C854.302 575.148 421.89 574.231 421.89 575.861C421.89 576.371 420.769 576.88 419.343 576.88C417.712 576.88 416.795 577.492 416.795 578.409C416.795 579.733 413.229 579.937 390.814 579.937H364.833V601.843V623.749H390.712C415.675 623.749 416.592 623.851 417.101 625.787C417.407 627.009 418.527 627.824 419.75 627.824C420.973 627.824 421.89 628.334 421.89 628.843C421.89 629.454 427.697 629.862 437.173 629.862C451.641 629.862 453.169 630.066 468.452 634.039C477.317 636.281 489.747 639.541 496.166 641.172C508.698 644.432 525.917 647.489 540.589 649.221C553.223 650.749 589.597 651.36 600.703 650.24ZM534.985 646.673C517.461 644.33 504.623 641.579 479.66 634.753C457.347 628.741 456.837 628.639 440.433 628.13L423.928 627.62V623.647V619.673H446.445H468.86L475.585 623.647C500.445 638.726 534.985 645.145 582.872 643.719C610.484 643.006 630.25 639.949 648.794 633.632L656.232 631.085V634.039C656.232 636.79 655.824 637.096 647.775 639.439C634.326 643.515 615.171 646.979 597.137 648.609C587.356 649.424 546.193 648.202 534.985 646.673ZM543.646 641.07C527.344 639.643 515.627 637.402 502.585 633.428C496.37 631.39 491.173 629.556 491.173 629.353C491.173 629.047 528.159 628.843 573.397 628.843C620.265 628.843 655.111 629.251 654.194 629.76C648.59 633.021 620.469 639.134 602.741 640.968C591.023 642.19 556.789 642.292 543.646 641.07ZM476.4 622.119L468.351 617.33L446.139 618.043L423.928 618.756V597.767V576.778L643.19 577.186C879.773 577.594 869.687 577.39 921.14 582.994C948.14 586.05 1002.85 594.099 1007.44 595.73C1008.87 596.239 1009.37 608.466 1007.95 608.466C1007.54 608.466 1001.22 609.586 993.99 610.911C959.552 617.33 925.725 621.609 889.555 624.258C858.173 626.5 867.853 626.398 667.949 626.602L484.551 626.805L476.4 622.119ZM419.037 602.149C419.241 586.967 419.75 578.511 420.361 578.612C421.38 578.918 422.399 621.915 421.482 624.462C421.177 625.175 420.463 625.787 419.852 625.787C419.139 625.787 418.833 618.145 419.037 602.149ZM371.965 601.843V581.975H394.38H416.795V601.843V621.711H394.38H371.965V601.843ZM366.87 601.843C366.87 584.828 367.074 581.975 368.399 581.975C369.723 581.975 369.927 584.828 369.927 601.843C369.927 618.858 369.723 621.711 368.399 621.711C367.074 621.711 366.87 618.858 366.87 601.843ZM1010.8 601.741C1010.8 599.296 1011 599.194 1014.06 599.805C1019.77 601.028 1020.89 602.047 1017.93 603.269C1013.14 605.205 1010.8 604.696 1010.8 601.741Z" fill="#737373"/>
<path d="M364.848 804.016L364.848 773.541L364.848 619M364.848 773.541L1010.17 773.541M1010.17 773.541L1010.17 619.783M1010.17 773.541L1010.17 804.016" stroke="#A3A3A1"/>
<path d="M494.34 587.004L494.34 630.752L494.34 674.501M494.34 674.501L622.59 674.502M494.34 674.501L494.34 691.842M622.59 674.502L622.59 691.844M622.59 674.502L622.59 652.619L622.59 630.736L622.59 587.005" stroke="#A3A3A1"/>
<path d="M623.086 587H499.909L331.591 587M331.591 587L331.588 618.554M331.591 587L313.951 587M331.588 618.554H313.948M331.588 618.554H437.178H499.955H623.086" stroke="#A3A3A1"/>
<path opacity="0.8" d="M622.4 811.002V799.422H619.52V798.442C620.093 798.415 620.587 798.369 621 798.302C621.427 798.222 621.787 798.075 622.08 797.862C622.387 797.635 622.633 797.302 622.82 796.862H623.84V811.002H622.4ZM631.752 811.162C631.205 811.162 630.658 811.109 630.112 811.002C629.565 810.909 629.052 810.742 628.572 810.502C628.105 810.262 627.705 809.949 627.372 809.562C627.038 809.162 626.818 808.669 626.712 808.082H628.212C628.385 808.549 628.665 808.915 629.052 809.182C629.452 809.435 629.892 809.615 630.372 809.722C630.852 809.815 631.318 809.862 631.772 809.862C632.132 809.862 632.512 809.829 632.912 809.762C633.312 809.682 633.692 809.549 634.052 809.362C634.412 809.162 634.698 808.882 634.912 808.522C635.138 808.149 635.252 807.675 635.252 807.102C635.252 806.529 635.138 806.069 634.912 805.722C634.698 805.362 634.412 805.095 634.052 804.922C633.692 804.735 633.285 804.615 632.832 804.562C632.392 804.495 631.945 804.462 631.492 804.462H630.112V803.162H630.992C631.458 803.162 631.912 803.115 632.352 803.022C632.792 802.929 633.185 802.782 633.532 802.582C633.892 802.369 634.172 802.095 634.372 801.762C634.585 801.415 634.692 800.995 634.692 800.502C634.692 799.835 634.545 799.322 634.252 798.962C633.958 798.602 633.578 798.355 633.112 798.222C632.658 798.075 632.178 798.002 631.672 798.002C631.258 798.002 630.838 798.055 630.412 798.162C629.998 798.269 629.625 798.449 629.292 798.702C628.972 798.955 628.752 799.302 628.632 799.742H627.172C627.265 799.169 627.458 798.689 627.752 798.302C628.058 797.915 628.425 797.602 628.852 797.362C629.278 797.122 629.745 796.955 630.252 796.862C630.758 796.755 631.265 796.702 631.772 796.702C632.345 796.702 632.892 796.769 633.412 796.902C633.932 797.022 634.392 797.222 634.792 797.502C635.205 797.782 635.525 798.149 635.752 798.602C635.992 799.055 636.112 799.609 636.112 800.262C636.112 800.755 636.025 801.222 635.852 801.662C635.692 802.089 635.438 802.469 635.092 802.802C634.745 803.135 634.305 803.395 633.772 803.582C634.425 803.662 634.972 803.869 635.412 804.202C635.852 804.522 636.185 804.929 636.412 805.422C636.638 805.902 636.752 806.435 636.752 807.022C636.752 807.849 636.598 808.535 636.292 809.082C635.985 809.615 635.585 810.035 635.092 810.342C634.598 810.649 634.058 810.862 633.472 810.982C632.885 811.102 632.312 811.162 631.752 811.162ZM644.026 811.182C643.519 811.182 643.006 811.122 642.486 811.002C641.979 810.895 641.499 810.722 641.046 810.482C640.606 810.229 640.219 809.902 639.886 809.502C639.566 809.102 639.339 808.615 639.206 808.042H640.686C640.859 808.455 641.119 808.795 641.466 809.062C641.812 809.329 642.199 809.529 642.626 809.662C643.066 809.795 643.492 809.862 643.906 809.862C644.599 809.862 645.219 809.749 645.766 809.522C646.312 809.282 646.746 808.922 647.066 808.442C647.386 807.962 647.546 807.349 647.546 806.602C647.546 805.549 647.239 804.742 646.626 804.182C646.026 803.622 645.219 803.342 644.206 803.342C643.592 803.342 643.019 803.469 642.486 803.722C641.966 803.975 641.519 804.289 641.146 804.662H639.566L640.226 796.862H648.546V798.182H641.506L641.066 803.222C641.492 802.822 641.986 802.529 642.546 802.342C643.119 802.142 643.779 802.042 644.526 802.042C645.419 802.042 646.206 802.229 646.886 802.602C647.566 802.962 648.092 803.475 648.466 804.142C648.852 804.809 649.046 805.595 649.046 806.502C649.046 807.502 648.819 808.349 648.366 809.042C647.926 809.735 647.326 810.269 646.566 810.642C645.806 811.002 644.959 811.182 644.026 811.182Z" fill="#A3A3A1"/>
<path opacity="0.8" d="M546.64 708.793V707.593L550.84 703.893C551.213 703.573 551.613 703.226 552.04 702.853C552.48 702.466 552.893 702.053 553.28 701.613C553.667 701.173 553.987 700.706 554.24 700.213C554.493 699.72 554.62 699.2 554.62 698.653C554.62 697.72 554.34 697.013 553.78 696.533C553.22 696.04 552.487 695.793 551.58 695.793C550.9 695.793 550.287 695.933 549.74 696.213C549.193 696.48 548.82 696.9 548.62 697.473H547.06C547.22 696.793 547.527 696.24 547.98 695.813C548.433 695.373 548.98 695.046 549.62 694.833C550.26 694.606 550.94 694.493 551.66 694.493C552.527 694.493 553.293 694.653 553.96 694.973C554.627 695.28 555.147 695.733 555.52 696.333C555.893 696.92 556.08 697.653 556.08 698.533C556.08 699.386 555.913 700.14 555.58 700.793C555.247 701.446 554.813 702.04 554.28 702.573C553.747 703.106 553.18 703.64 552.58 704.173L548.74 707.493H556.24V708.793H546.64ZM563.389 708.973C562.882 708.973 562.369 708.913 561.849 708.793C561.342 708.686 560.862 708.513 560.409 708.273C559.969 708.02 559.582 707.693 559.249 707.293C558.929 706.893 558.702 706.406 558.569 705.833H560.049C560.222 706.246 560.482 706.586 560.829 706.853C561.176 707.12 561.562 707.32 561.989 707.453C562.429 707.586 562.856 707.653 563.269 707.653C563.962 707.653 564.582 707.54 565.129 707.313C565.676 707.073 566.109 706.713 566.429 706.233C566.749 705.753 566.909 705.14 566.909 704.393C566.909 703.34 566.602 702.533 565.989 701.973C565.389 701.413 564.582 701.133 563.569 701.133C562.956 701.133 562.382 701.26 561.849 701.513C561.329 701.766 560.882 702.08 560.509 702.453H558.929L559.589 694.653H567.909V695.973H560.869L560.429 701.013C560.856 700.613 561.349 700.32 561.909 700.133C562.482 699.933 563.142 699.833 563.889 699.833C564.782 699.833 565.569 700.02 566.249 700.393C566.929 700.753 567.456 701.266 567.829 701.933C568.216 702.6 568.409 703.386 568.409 704.293C568.409 705.293 568.182 706.14 567.729 706.833C567.289 707.526 566.689 708.06 565.929 708.433C565.169 708.793 564.322 708.973 563.389 708.973Z" fill="#A3A3A1"/>
<path opacity="0.8" d="M305.593 610.743C305.086 610.743 304.573 610.683 304.053 610.562C303.546 610.456 303.066 610.282 302.613 610.042C302.173 609.789 301.786 609.462 301.453 609.062C301.133 608.662 300.906 608.176 300.773 607.602H302.253C302.426 608.016 302.686 608.356 303.033 608.622C303.38 608.889 303.766 609.089 304.193 609.222C304.633 609.356 305.06 609.422 305.473 609.422C306.166 609.422 306.786 609.309 307.333 609.082C307.88 608.842 308.313 608.482 308.633 608.002C308.953 607.522 309.113 606.909 309.113 606.162C309.113 605.109 308.806 604.302 308.193 603.742C307.593 603.182 306.786 602.902 305.773 602.902C305.16 602.902 304.586 603.029 304.053 603.282C303.533 603.536 303.086 603.849 302.713 604.222H301.133L301.793 596.422H310.113V597.742H303.073L302.633 602.782C303.06 602.382 303.553 602.089 304.113 601.902C304.686 601.702 305.346 601.602 306.093 601.602C306.986 601.602 307.773 601.789 308.453 602.162C309.133 602.522 309.66 603.036 310.033 603.702C310.42 604.369 310.613 605.156 310.613 606.062C310.613 607.062 310.386 607.909 309.933 608.602C309.493 609.296 308.893 609.829 308.133 610.202C307.373 610.562 306.526 610.743 305.593 610.743Z" fill="#A3A3A1"/>
<path d="M497.161 607.889C497.161 607.197 497.311 606.566 497.612 605.997C497.913 605.427 498.365 604.939 498.967 604.532C499.569 604.117 500.318 603.799 501.213 603.58C502.117 603.352 503.167 603.238 504.363 603.238C505.25 603.238 506.182 603.303 507.158 603.433C508.143 603.563 509.156 603.763 510.198 604.031C510.157 603.576 510.019 603.156 509.783 602.774C509.547 602.383 509.217 602.05 508.794 601.773C508.379 601.488 507.874 601.268 507.28 601.114C506.694 600.959 506.027 600.882 505.278 600.882C504.871 600.882 504.424 600.906 503.936 600.955C503.447 601.004 502.943 601.077 502.422 601.175C501.901 601.272 501.384 601.395 500.872 601.541C500.367 601.688 499.895 601.862 499.456 602.066L498.357 599.1C498.902 598.904 499.484 598.725 500.103 598.563C500.729 598.4 501.368 598.261 502.019 598.147C502.67 598.025 503.321 597.932 503.972 597.867C504.623 597.802 505.254 597.769 505.864 597.769C508.558 597.769 510.56 598.457 511.87 599.832C513.18 601.207 513.835 603.315 513.835 606.155L513.835 612.43L510.222 612.43L510.222 611.075C509.848 611.294 509.437 611.502 508.989 611.697C508.55 611.893 508.07 612.063 507.549 612.21C507.028 612.356 506.466 612.47 505.864 612.552C505.27 612.641 504.639 612.686 503.972 612.686C502.849 612.686 501.86 612.564 501.006 612.32C500.16 612.076 499.451 611.738 498.882 611.307C498.312 610.875 497.881 610.371 497.588 609.793C497.303 609.207 497.161 608.572 497.161 607.889ZM500.969 607.767C500.969 608.003 501.03 608.23 501.152 608.45C501.274 608.662 501.47 608.853 501.738 609.024C502.007 609.187 502.349 609.321 502.764 609.427C503.187 609.524 503.695 609.573 504.29 609.573C504.924 609.573 505.539 609.516 506.133 609.402C506.727 609.288 507.28 609.138 507.793 608.951C508.306 608.764 508.77 608.548 509.185 608.304C509.6 608.06 509.945 607.807 510.222 607.547L510.222 606.912C509.669 606.757 509.119 606.627 508.574 606.521C508.037 606.416 507.52 606.334 507.024 606.277C506.536 606.212 506.072 606.167 505.632 606.143C505.201 606.119 504.823 606.106 504.497 606.106C503.822 606.106 503.26 606.151 502.812 606.241C502.365 606.33 502.003 606.452 501.726 606.607C501.449 606.753 501.254 606.928 501.14 607.132C501.026 607.335 500.969 607.547 500.969 607.767ZM518.694 610.318C518.694 609.992 518.759 609.687 518.889 609.402C519.028 609.109 519.223 608.857 519.475 608.646C519.727 608.426 520.033 608.255 520.391 608.133C520.749 608.011 521.152 607.95 521.599 607.95C522.047 607.95 522.45 608.011 522.808 608.133C523.166 608.255 523.467 608.426 523.711 608.646C523.963 608.857 524.154 609.109 524.285 609.402C524.423 609.687 524.492 609.992 524.492 610.318C524.492 610.643 524.423 610.953 524.285 611.246C524.154 611.53 523.963 611.779 523.711 611.99C523.467 612.202 523.166 612.369 522.808 612.491C522.45 612.621 522.047 612.686 521.599 612.686C521.152 612.686 520.749 612.621 520.391 612.491C520.033 612.369 519.727 612.202 519.475 611.99C519.223 611.779 519.028 611.53 518.889 611.246C518.759 610.953 518.694 610.643 518.694 610.318ZM545.256 594.07C546.371 594.07 547.413 594.176 548.381 594.388C549.35 594.591 550.233 594.876 551.03 595.242C551.836 595.6 552.552 596.028 553.179 596.524C553.805 597.02 554.334 597.562 554.766 598.147C555.197 598.725 555.522 599.336 555.742 599.979C555.97 600.613 556.084 601.256 556.084 601.907C556.084 602.575 555.982 603.242 555.779 603.909C555.583 604.577 555.274 605.215 554.851 605.826C554.436 606.428 553.903 606.993 553.252 607.522C552.609 608.043 551.832 608.495 550.92 608.877C550.017 609.26 548.979 609.561 547.808 609.781C546.644 610 545.334 610.11 543.877 610.11C542.135 610.11 540.577 609.948 539.202 609.622C537.834 609.288 536.626 608.857 535.576 608.328C534.535 607.791 533.635 607.189 532.878 606.521C532.13 605.854 531.495 605.179 530.974 604.495L530.974 615.567L527.654 615.567L527.654 594.534L530.974 594.534L530.974 595.987C530.974 596.915 531.068 597.757 531.255 598.514C531.442 599.271 531.65 599.922 531.877 600.467C532.113 601.012 532.329 601.443 532.524 601.761C532.72 602.07 532.83 602.241 532.854 602.273C535.108 605.618 538.783 607.291 543.877 607.291C545.326 607.291 546.587 607.14 547.661 606.839C548.735 606.538 549.626 606.139 550.334 605.643C551.051 605.138 551.584 604.564 551.934 603.921C552.284 603.27 552.458 602.599 552.458 601.907C552.458 601.362 552.328 600.796 552.068 600.21C551.816 599.616 551.405 599.075 550.835 598.587C550.265 598.09 549.521 597.684 548.601 597.366C547.69 597.049 546.575 596.89 545.256 596.89C542.872 596.89 540.805 597.35 539.055 598.27C537.306 599.181 535.869 600.556 534.746 602.396L532.341 600.918C532.659 600.398 533.033 599.869 533.464 599.332C533.896 598.786 534.388 598.261 534.941 597.757C535.495 597.244 536.117 596.768 536.809 596.329C537.509 595.881 538.282 595.49 539.128 595.157C539.983 594.823 540.915 594.559 541.924 594.363C542.941 594.168 544.052 594.07 545.256 594.07ZM558.318 607.889C558.318 607.197 558.468 606.566 558.77 605.997C559.071 605.427 559.522 604.939 560.125 604.532C560.727 604.117 561.475 603.799 562.371 603.58C563.274 603.352 564.324 603.238 565.52 603.238C566.407 603.238 567.339 603.303 568.315 603.433C569.3 603.563 570.313 603.763 571.355 604.031C571.314 603.576 571.176 603.156 570.94 602.774C570.704 602.383 570.374 602.05 569.951 601.773C569.536 601.488 569.032 601.268 568.437 601.114C567.852 600.959 567.184 600.882 566.436 600.882C566.029 600.882 565.581 600.906 565.093 600.955C564.604 601.004 564.1 601.077 563.579 601.175C563.058 601.272 562.542 601.395 562.029 601.541C561.524 601.688 561.052 601.862 560.613 602.066L559.514 599.1C560.059 598.904 560.641 598.725 561.26 598.563C561.886 598.4 562.525 598.261 563.176 598.147C563.827 598.025 564.478 597.932 565.129 597.867C565.78 597.802 566.411 597.769 567.021 597.769C569.715 597.769 571.717 598.457 573.027 599.832C574.338 601.207 574.993 603.315 574.993 606.155L574.993 612.43L571.379 612.43L571.379 611.075C571.005 611.294 570.594 611.502 570.146 611.697C569.707 611.893 569.227 612.063 568.706 612.21C568.185 612.356 567.624 612.47 567.021 612.552C566.427 612.641 565.797 612.686 565.129 612.686C564.006 612.686 563.018 612.564 562.163 612.32C561.317 612.076 560.609 611.738 560.039 611.307C559.469 610.875 559.038 610.371 558.745 609.793C558.46 609.207 558.318 608.572 558.318 607.889ZM562.126 607.767C562.126 608.003 562.187 608.23 562.31 608.45C562.432 608.662 562.627 608.853 562.896 609.024C563.164 609.187 563.506 609.321 563.921 609.427C564.344 609.524 564.853 609.573 565.447 609.573C566.082 609.573 566.696 609.516 567.29 609.402C567.884 609.288 568.437 609.138 568.95 608.951C569.463 608.764 569.927 608.548 570.342 608.304C570.757 608.06 571.103 607.807 571.379 607.547L571.379 606.912C570.826 606.757 570.277 606.627 569.731 606.521C569.194 606.416 568.678 606.334 568.181 606.277C567.693 606.212 567.229 606.167 566.79 606.143C566.358 606.119 565.98 606.106 565.654 606.106C564.979 606.106 564.417 606.151 563.97 606.241C563.522 606.33 563.16 606.452 562.883 606.607C562.607 606.753 562.411 606.928 562.297 607.132C562.183 607.335 562.126 607.547 562.126 607.767ZM579.778 598.025L583.391 598.025L583.391 600.101C584.189 599.507 585.031 598.994 585.918 598.563C586.805 598.131 587.688 597.802 588.567 597.574L589.629 600.882C588.237 601.02 587.013 601.334 585.955 601.822C584.905 602.302 584.05 602.981 583.391 603.86L583.391 612.43L579.778 612.43L579.778 598.025ZM594.5 600.735L591.021 600.735L591.021 598.025L594.5 598.025L594.5 593.545L598.113 593.545L598.113 598.025L601.592 598.025L601.592 600.735L598.113 600.735L598.113 612.43L594.5 612.43L594.5 600.735ZM605.376 608.011C606.353 608.597 607.427 609.028 608.599 609.305C609.771 609.581 610.971 609.72 612.2 609.72C613.03 609.72 613.722 609.663 614.275 609.549C614.828 609.435 615.272 609.288 615.605 609.109C615.939 608.93 616.175 608.727 616.313 608.499C616.452 608.271 616.521 608.039 616.521 607.803C616.521 607.461 616.37 607.168 616.069 606.924C615.776 606.68 615.288 606.558 614.604 606.558C614.287 606.558 613.945 606.578 613.579 606.619C613.213 606.66 612.826 606.705 612.419 606.753C612.021 606.794 611.602 606.835 611.162 606.875C610.731 606.916 610.291 606.937 609.844 606.937C608.867 606.937 608.033 606.831 607.341 606.619C606.658 606.408 606.1 606.119 605.669 605.752C605.238 605.386 604.924 604.955 604.729 604.459C604.534 603.954 604.436 603.413 604.436 602.835C604.436 602.103 604.607 601.427 604.949 600.809C605.291 600.19 605.779 599.657 606.414 599.209C607.048 598.754 607.813 598.4 608.708 598.147C609.612 597.895 610.617 597.769 611.724 597.769C612.301 597.769 612.904 597.806 613.53 597.879C614.165 597.944 614.788 598.034 615.398 598.147C616.008 598.261 616.594 598.396 617.156 598.55C617.717 598.697 618.214 598.855 618.645 599.026L617.51 601.834C616.59 601.492 615.671 601.224 614.751 601.028C613.84 600.825 612.9 600.723 611.931 600.723C611.256 600.723 610.682 600.776 610.21 600.882C609.746 600.98 609.368 601.114 609.075 601.285C608.782 601.447 608.566 601.639 608.428 601.858C608.298 602.07 608.232 602.294 608.232 602.53C608.232 602.701 608.265 602.855 608.33 602.994C608.403 603.132 608.517 603.254 608.672 603.36C608.835 603.458 609.042 603.535 609.294 603.592C609.555 603.641 609.872 603.665 610.247 603.665C610.588 603.665 610.951 603.645 611.333 603.604C611.715 603.563 612.114 603.523 612.529 603.482C612.944 603.433 613.372 603.388 613.811 603.348C614.259 603.307 614.714 603.287 615.178 603.287C616.041 603.287 616.794 603.388 617.437 603.592C618.088 603.795 618.625 604.08 619.048 604.446C619.471 604.813 619.788 605.244 620 605.74C620.212 606.237 620.317 606.778 620.317 607.364C620.317 608.121 620.142 608.825 619.792 609.476C619.443 610.127 618.922 610.692 618.23 611.172C617.538 611.644 616.676 612.015 615.642 612.283C614.617 612.552 613.429 612.686 612.078 612.686C611.248 612.686 610.446 612.633 609.673 612.527C608.9 612.43 608.163 612.295 607.463 612.125C606.764 611.945 606.104 611.738 605.486 611.502C604.875 611.266 604.318 611.014 603.813 610.745L605.376 608.011Z" fill="#737373"/>
</svg>
